<?xml version="1.0" encoding="UTF-8"?>
<svg width="1000px" height="350px" viewBox="0 0 1000 350" version="1.1" xmlns="http://www.w3.org/2000/svg" xmlns:xlink="http://www.w3.org/1999/xlink">
    <!-- Generator: Sketch 63.1 (92452) - https://sketch.com -->
    <title>adcb</title>
    <desc>Created with Sketch.</desc>
    <g id="Page-1" stroke="none" stroke-width="1" fill="none" fill-rule="evenodd">
        <g id="Components-/-Logos-/-_Logotype-/-ADCB" transform="translate(15.000000, 29.000000)">
            <g id="Logo">
                <g id="Desktop-/-Component-/-Logos-/-Red" transform="translate(711.064793, 8.305214)">
                    <g id="Logo" transform="translate(0.761549, 0.600355)">
                        <path d="M256.817568,141.712066 C256.817568,124.268972 244.199055,115.728401 225.139155,101.528238 C206.552724,87.6827138 174.918354,67.3147669 156.089683,56.1454834 C137.257342,44.9688879 106.643317,27.7488142 85.4840018,17.6544144 C64.1742037,7.49786137 47.1329718,0.767042771 36.8267518,0.767042771 C26.5388834,0.767042771 19.3781159,3.9916935 14.3167636,10.7115439 C9.25908158,17.41677 6.24943046,27.244277 4.23076202,39.6785595 C2.20842327,52.1018738 1.14036415,67.1392757 0.582477602,84.2971962 C0.0429425832,101.466085 -0.00110109188,141.712066 -0.00110109188,141.712066 C-0.00110109188,141.712066 0.0429425832,181.958047 0.582477602,199.12328 C1.14036415,216.288512 2.20842327,231.32957 4.23076202,243.745572 C6.24943046,256.176199 9.25908158,266.007362 14.3167636,272.712588 C19.3781159,279.428782 26.5388834,282.657089 36.8267518,282.657089 C47.1329718,282.657089 64.1742037,275.92627 85.4840018,265.766061 C106.643317,255.675318 137.257342,238.455244 156.089683,227.274992 C174.918354,216.105709 206.552724,195.741418 225.139155,181.89955 C244.199055,167.695731 256.817568,159.15516 256.817568,141.712066" id="Shape" fill="#AB2328"></path>
                        <path d="M36.2229865,248.169779 C38.135216,248.169779 39.680415,249.716295 39.680415,251.606481 L39.680415,251.606481 L39.680415,255.386854 C39.680415,257.273384 38.135216,258.816244 36.2229865,258.816244 L36.2229865,258.816244 L32.4535819,258.816244 C30.548693,258.816244 28.9998238,257.273384 28.9998238,255.386854 L28.9998238,255.386854 L28.9998238,251.606481 C28.9998238,249.716295 30.548693,248.169779 32.4535819,248.169779 L32.4535819,248.169779 Z M57.610228,248.169779 C59.515117,248.169779 61.0529753,249.716295 61.0529753,251.606481 L61.0529753,251.606481 L61.0529753,255.386854 C61.0529753,257.273384 59.515117,258.816244 57.610228,258.816244 L57.610228,258.816244 L53.8188017,258.816244 C51.928594,258.816244 50.3577029,257.273384 50.3577029,255.386854 L50.3577029,255.386854 L50.3577029,251.606481 C50.3577029,249.716295 51.928594,248.169779 53.8188017,248.169779 L53.8188017,248.169779 Z M79.0675724,205.589399 C80.9063959,205.589399 82.4259027,207.099354 82.4259027,208.956636 L82.4259027,208.956636 L82.4259027,212.87594 C82.4259027,214.722253 80.9063959,216.232209 79.0675724,216.232209 L79.0675724,216.232209 L29.0009249,216.232209 L29.0009249,226.885987 L93.1064939,226.885987 L93.1064939,208.942012 C93.1064939,207.099354 94.5966382,205.589399 96.4464725,205.589399 L96.4464725,205.589399 L121.811959,205.589399 C123.665464,205.589399 125.170289,207.099354 125.170289,208.942012 L125.170289,208.942012 L125.170289,223.540686 C125.170289,225.387 123.665464,226.885987 121.811959,226.885987 L121.811959,226.885987 L117.814996,226.885987 C115.972502,226.885987 114.500709,225.387 114.500709,223.540686 L114.500709,223.540686 L114.500709,216.239521 L103.794426,216.239521 L103.794426,234.183496 C103.794426,236.022497 102.2896,237.521485 100.428755,237.521485 L100.428755,237.521485 L21.6896748,237.521485 C19.8508514,237.521485 18.3093227,236.022497 18.3093227,234.183496 L18.3093227,234.183496 L18.3093227,208.927388 C18.3093227,207.08473 19.8068077,205.589399 21.6456311,205.589399 L21.6456311,205.589399 Z M143.170572,205.589399 C145.031418,205.589399 146.547254,207.099354 146.547254,208.942012 L146.547254,208.942012 L146.547254,212.87594 C146.547254,214.722253 145.031418,216.232209 143.170572,216.232209 L143.170572,216.232209 L139.228663,216.232209 C137.356807,216.232209 135.859322,214.722253 135.859322,212.87594 L135.859322,212.87594 L135.859322,208.942012 C135.859322,207.099354 137.356807,205.589399 139.228663,205.589399 L139.228663,205.589399 Z M207.293392,109.792777 C209.150567,109.792777 210.662733,111.299076 210.662733,113.141734 L210.662733,113.141734 L210.662733,170.304335 C210.662733,172.154304 209.150567,173.660604 207.293392,173.660604 L207.293392,173.660604 L189.275858,173.660604 L189.275858,191.55705 C189.275858,193.396051 187.752681,194.953536 185.895506,194.953536 L185.895506,194.953536 L167.911006,194.953536 L167.911006,202.240076 C167.911006,204.08639 166.395169,205.589033 164.552675,205.589033 L164.552675,205.589033 L160.588745,205.589033 C158.742581,205.589033 157.226744,204.08639 157.226744,202.240076 L157.226744,202.240076 L157.226744,194.953536 L107.160096,194.953536 C105.313932,194.953536 103.794426,193.414332 103.794426,191.586298 L103.794426,191.586298 L103.794426,145.073819 C103.794426,143.223849 105.313932,141.710238 107.160096,141.710238 L107.160096,141.710238 L143.169471,141.710238 C145.030316,141.710238 146.546153,143.231162 146.546153,145.073819 L146.546153,145.073819 L146.546153,149.018715 C146.546153,150.846748 145.030316,152.367672 143.169471,152.367672 L143.169471,152.367672 L114.500709,152.367672 L114.500709,184.310726 L157.226744,184.310726 L157.226744,173.660604 L128.524949,173.660604 C126.682455,173.660604 125.170289,172.154304 125.170289,170.304335 L125.170289,170.304335 L125.170289,166.359439 C125.170289,164.513125 126.682455,162.999514 128.524949,162.999514 L128.524949,162.999514 L164.549005,162.999514 C166.391499,162.999514 167.903665,164.513125 167.903665,166.359439 L167.903665,166.359439 L167.911006,184.310726 L178.595267,184.310726 L178.595267,166.359439 C178.595267,164.535062 180.111104,163.014138 181.960938,163.014138 L181.960938,163.014138 L199.978471,163.014138 L199.978471,113.141734 C199.978471,111.299076 201.494308,109.792777 203.336802,109.792777 L203.336802,109.792777 Z M89.7419241,141.711335 C91.61011,141.711335 93.1039246,143.22129 93.1039246,145.074916 L93.1039246,145.074916 L93.1039246,191.587395 C93.1039246,193.430053 91.61011,194.954632 89.7419241,194.954632 L89.7419241,194.954632 L64.501228,194.954632 C62.6146906,194.954632 61.0548104,193.397148 61.0548104,191.503306 L61.0548104,191.503306 L61.0548104,187.741213 C61.0548104,185.847371 62.6146906,184.311823 64.501228,184.311823 L64.501228,184.311823 L82.4233334,184.311823 L82.4233334,145.074916 C82.4233334,143.22129 83.9428402,141.711335 85.785334,141.711335 L85.785334,141.711335 Z M25.5405601,184.317307 C27.4527897,184.317307 28.990648,185.867479 28.990648,187.754009 L28.990648,187.754009 L28.990648,191.505134 C28.990648,193.39532 27.4527897,194.952804 25.5405601,194.952804 L25.5405601,194.952804 L21.7711556,194.952804 C19.8625963,194.952804 18.3100568,193.39532 18.3100568,191.505134 L18.3100568,191.505134 L18.3100568,187.754009 C18.3100568,185.867479 19.8625963,184.317307 21.7711556,184.317307 L21.7711556,184.317307 Z M46.9028436,184.309995 C48.8187435,184.309995 50.3602721,185.849199 50.3602721,187.739385 L50.3602721,187.739385 L50.3602721,191.505134 C50.3602721,193.398976 48.8187435,194.952804 46.9028436,194.952804 L46.9028436,194.952804 L43.1297688,194.952804 C41.2322204,194.952804 39.6833512,193.398976 39.6833512,191.505134 L39.6833512,191.505134 L39.6833512,187.739385 C39.6833512,185.849199 41.2322204,184.309995 43.1297688,184.309995 L43.1297688,184.309995 Z M132.489614,56.5641031 C134.346789,56.5641031 135.858955,58.0740586 135.858955,59.9167161 L135.858955,59.9167161 L135.858955,99.1463106 L157.227478,99.1463106 L157.227478,91.8378335 C157.227478,90.0024881 158.769007,88.4961887 160.626182,88.4961887 L160.626182,88.4961887 L185.929273,88.4961887 C187.782778,88.4961887 189.276592,90.0024881 189.276592,91.8378335 L189.276592,91.8378335 L189.276592,127.722127 C189.276592,129.557473 187.779107,131.082052 185.929273,131.082052 L185.929273,131.082052 L85.8877355,131.082052 C83.9791763,131.082052 82.4229664,129.528224 82.4229664,127.652662 L82.4229664,127.652662 L82.4229664,109.792777 L50.3738522,109.792777 L50.3738522,141.724862 L68.3803747,141.724862 C70.230209,141.724862 71.7423752,143.231162 71.7423752,145.073819 L71.7423752,145.073819 L71.7423752,170.304335 C71.7423752,172.154304 70.2265387,173.660604 68.3803747,173.660604 L68.3803747,173.660604 L21.6793979,173.660604 C19.8369042,173.660604 18.3100568,172.154304 18.3100568,170.304335 L18.3100568,170.304335 L18.3100568,102.484299 C18.3100568,100.630674 19.8369042,99.1463106 21.6793979,99.1463106 L21.6793979,99.1463106 L25.6286475,99.1463106 C27.4858224,99.1463106 28.990648,100.663578 28.990648,102.50258 L28.990648,102.50258 L29.0016589,162.999514 L61.0544434,162.999514 L61.0544434,152.367672 L43.0479209,152.367672 C41.1944163,152.367672 39.693261,150.861373 39.693261,149.033339 L39.693261,149.033339 L39.693261,102.484299 C39.693261,100.648954 41.1944163,99.1463106 43.0479209,99.1463106 L43.0479209,99.1463106 L89.7452274,99.1463106 C91.598732,99.1463106 93.1072279,100.648954 93.1072279,102.484299 L93.1072279,102.484299 L93.1072279,120.428274 L125.171023,120.428274 L125.171023,59.9167161 C125.171023,58.0740586 126.68319,56.5641031 128.525683,56.5641031 L128.525683,56.5641031 Z M228.659345,120.429005 C230.51285,120.429005 232.025016,121.935305 232.025016,123.788931 L232.025016,123.788931 L232.025016,159.6586 C232.025016,161.504914 230.51285,163.011213 228.659345,163.011213 L228.659345,163.011213 L224.710096,163.011213 C222.863932,163.011213 221.348095,161.504914 221.348095,159.6586 L221.348095,159.6586 L221.348095,123.788931 C221.348095,121.935305 222.863932,120.429005 224.710096,120.429005 L224.710096,120.429005 Z M164.45321,141.712066 C166.361769,141.712066 167.903298,143.26955 167.903298,145.159737 L167.903298,145.159737 L167.903298,148.94011 C167.903298,150.819328 166.361769,152.365844 164.45321,152.365844 L164.45321,152.365844 L160.669124,152.365844 C158.778917,152.365844 157.230047,150.819328 157.230047,148.94011 L157.230047,148.94011 L157.230047,145.159737 C157.230047,143.26955 158.778917,141.712066 160.669124,141.712066 L160.669124,141.712066 Z M185.823568,141.712066 C187.750479,141.712066 189.273656,143.26955 189.273656,145.159737 L189.273656,145.159737 L189.273656,148.929141 C189.273656,150.819328 187.750479,152.365844 185.823568,152.365844 L185.823568,152.365844 L182.054164,152.365844 C180.163956,152.365844 178.593065,150.819328 178.593065,148.929141 L178.593065,148.929141 L178.593065,145.159737 C178.593065,143.26955 180.163956,141.712066 182.054164,141.712066 L182.054164,141.712066 Z M68.2948566,120.439608 C70.1997455,120.439608 71.7412741,121.98978 71.7412741,123.868999 L71.7412741,123.868999 L71.7412741,127.653027 C71.7412741,129.52859 70.1997455,131.082418 68.2948566,131.082418 L68.2948566,131.082418 L64.5144411,131.082418 C62.6168928,131.082418 61.0533423,129.52859 61.0533423,127.653027 L61.0533423,127.653027 L61.0533423,123.868999 C61.0533423,121.98978 62.6168928,120.439608 64.5144411,120.439608 L64.5144411,120.439608 Z M178.596001,99.1463106 L167.908069,99.1463106 L167.908069,109.792777 L135.858955,109.792777 L135.858955,120.428274 L178.596001,120.428274 L178.596001,99.1463106 Z M111.126963,45.9249493 C112.984138,45.9249493 114.499975,47.4166244 114.499975,49.2739063 L114.499975,49.2739063 L114.499975,106.436507 C114.499975,108.279165 112.984138,109.792777 111.126963,109.792777 L111.126963,109.792777 L107.159362,109.792777 C105.313198,109.792777 103.793692,108.279165 103.793692,106.436507 L103.793692,106.436507 L103.793692,49.2739063 C103.793692,47.4166244 105.313198,45.9249493 107.159362,45.9249493 L107.159362,45.9249493 Z M89.6501665,77.8449699 C91.562396,77.8449699 93.1039246,79.4024542 93.1039246,81.2962967 L93.1039246,81.2962967 L93.1039246,85.0657014 C93.1039246,86.9558878 91.562396,88.4950918 89.6501665,88.4950918 L89.6501665,88.4950918 L85.8881026,88.4950918 C83.9795433,88.4950918 82.4233334,86.9558878 82.4233334,85.0657014 L82.4233334,85.0657014 L82.4233334,81.2962967 C82.4233334,79.4024542 83.9795433,77.8449699 85.8881026,77.8449699 L85.8881026,77.8449699 Z M68.3807417,24.6334799 C70.2269058,24.6334799 71.7427423,26.121499 71.7427423,27.9678126 L71.7427423,27.9678126 L71.7427423,56.5655655 L82.4233334,56.5655655 L82.4233334,38.6362149 C82.4233334,36.775277 83.9428402,35.2689776 85.785334,35.2689776 L85.785334,35.2689776 L89.7492647,35.2689776 C91.61011,35.2689776 93.1112653,36.775277 93.1112653,38.6362149 L93.1112653,38.6362149 L93.1112653,63.8740426 C93.1112653,65.6984198 91.61011,67.2010632 89.7492647,67.2010632 L89.7492647,67.2010632 L71.7427423,67.2010632 L71.7427423,85.1340698 C71.7427423,86.9803834 70.2269058,88.493995 68.3807417,88.493995 L68.3807417,88.493995 L21.6760947,88.493995 C19.8409415,88.493995 18.3104238,86.9803834 18.3104238,85.1340698 L18.3104238,85.1340698 L18.3104238,38.6362149 C18.3104238,36.775277 19.8262603,35.2799458 21.6760947,35.2799458 L21.6760947,35.2799458 L25.6326848,35.2799458 C27.4898598,35.2799458 29.0020259,36.775277 29.0020259,38.6362149 L29.0020259,38.6362149 L29.0020259,77.843873 L61.0548104,77.843873 L61.0548104,67.2010632 L43.0703098,67.2010632 C41.2094645,67.2010632 39.6936281,65.6984198 39.6936281,63.8740426 L39.6936281,63.8740426 L39.6936281,27.9824369 C39.6936281,26.1361232 41.1801021,24.6334799 43.0299364,24.6334799 L43.0299364,24.6334799 Z M153.771885,67.20216 C155.673103,67.20216 157.229313,68.7596444 157.229313,70.6571429 L157.229313,70.6571429 L157.229313,74.4192355 C157.229313,76.3094219 155.673103,77.8449699 153.771885,77.8449699 L153.771885,77.8449699 L149.991469,77.8449699 C148.097591,77.8449699 146.548722,76.3094219 146.548722,74.4192355 L146.548722,74.4192355 L146.548722,70.6571429 C146.548722,68.7596444 148.097591,67.20216 149.991469,67.20216 L149.991469,67.20216 Z M61.0548104,35.2799458 L50.3742193,35.2799458 L50.359538,56.5655655 L61.0548104,56.5655655 L61.0548104,35.2799458 Z" id="Patern" fill="#DA291C"></path>
                    </g>
                </g>
                <path d="M335.262053,81.8273435 C335.262053,80.761426 336.162937,79.9411116 337.144828,79.9411116 L343.470656,79.9411116 C344.538462,79.9411116 345.525262,80.761426 345.525262,81.8273435 L345.525262,88.4045949 C345.525262,89.3035023 344.538462,90.1238167 343.470656,90.1238167 L337.144828,90.1238167 C336.162937,90.1238167 335.262053,89.3035023 335.262053,88.4045949 L335.262053,81.8273435 Z M50.6537611,220.391708 L68.0528587,171.93667 L80.6235103,140.396318 L92.852955,171.93667 L109.837204,220.391708 L50.6537611,220.391708 Z M98.9185829,124.373171 C96.4638569,119.11972 95.3101357,116.160203 87.7569439,116.160203 L73.2298757,116.160203 C66.5775684,116.160203 64.2799449,119.11972 62.3137094,124.373171 C60.7549584,128.560704 0.000490945192,284.783932 0.000490945192,284.783932 C0.000490945192,284.783932 0.000490945192,289.956333 5.82801037,289.956333 L21.3492426,289.956333 C24.7883137,289.956333 26.3495194,286.262463 26.3495194,286.262463 L43.1864847,240.025221 L118.050717,240.025221 L134.710942,286.262463 C134.710942,286.262463 136.196051,289.956333 139.806953,289.956333 L154.577039,289.956333 C160.902868,289.956333 160.902868,284.783932 160.902868,284.783932 C160.902868,284.783932 100.560795,128.560704 98.9185829,124.373171 L98.9185829,124.373171 Z M617.901654,268.692016 L579.15135,268.692016 L579.15135,209.305183 L617.901654,209.305183 C636.209001,209.305183 647.206173,221.867782 647.206173,239.367004 C647.206173,257.514618 636.209001,268.692016 617.901654,268.692016 L617.901654,268.692016 Z M579.15135,137.350839 L615.029625,137.350839 C631.115444,137.350839 641.378653,148.444732 641.378653,163.964393 C641.378653,178.499185 631.115444,189.345018 615.029625,189.345018 L579.15135,189.345018 L579.15135,137.350839 Z M643.506901,198.132698 C657.552843,192.461722 666.257301,178.499185 666.257301,161.009787 C666.257301,132.178438 644.989555,116.160203 615.029625,116.160203 L562.159737,116.160203 C555.752903,116.160203 554.277612,122.897096 554.277612,124.373171 L554.277612,282.573504 C554.277612,284.783932 554.277612,289.956333 562.159737,289.956333 L616.419,289.956333 C647.206173,289.956333 672.079911,273.780912 672.079911,240.025221 C672.079911,221.867782 661.65469,204.211375 643.506901,198.132698 L643.506901,198.132698 Z M513.065218,252.342217 C511.098983,248.8129 507.979026,250.288975 506.010336,252.342217 C498.619156,258.995605 481.134143,269.996168 457.573683,269.996168 C419.410059,269.996168 393.048757,239.367004 393.048757,201.836393 C393.048757,166.022547 417.922495,136.203873 456.100848,136.203873 C476.541351,136.203873 491.15188,144.087733 499.770422,149.923263 C506.010336,153.698182 507.40953,153.698182 511.098983,149.923263 C513.065218,146.222024 516.109078,141.130671 516.109078,141.130671 C516.109078,141.130671 519.717525,136.203873 516.109078,133.656968 C507.40953,128.069498 487.374056,114.025912 456.100848,114.025912 C405.528583,114.025912 368.179928,152.057554 368.179928,201.836393 C368.179928,252.342217 403.888826,291.930982 456.100848,291.930982 C489.841056,291.930982 511.098983,275.915203 519.717525,268.692016 C523.492894,266.30721 521.936598,264.086958 520.453943,261.129896 C519.717525,259.90188 516.109078,255.461376 513.065218,252.342217 L513.065218,252.342217 Z M245.207976,268.692016 L214.342252,268.692016 L214.342252,137.350839 L245.207976,137.350839 C284.854255,137.350839 309.727993,161.009787 309.727993,203.477021 C309.727993,245.028156 284.854255,268.692016 245.207976,268.692016 L245.207976,268.692016 Z M248.246927,116.160203 C300.125105,116.160203 336.00338,148.444732 336.00338,203.477021 C336.00338,257.514618 300.125105,289.956333 248.246927,289.956333 L248.246927,289.956333 L196.835387,289.956108 C196.488968,289.949124 190.946259,289.72562 190.946259,282.573504 L190.946259,282.573504 L190.946259,124.373171 C190.946259,117.643645 195.296033,116.160203 196.85233,116.160203 L196.85233,116.160203 Z M39.8186007,87.1692112 C40.7194851,87.1692112 41.625279,87.8249715 41.625279,88.8958011 L41.625279,94.7313311 C41.625279,95.6302384 40.7194851,96.3719598 39.8186007,96.3719598 L34.2365539,96.3719598 C33.2522088,96.3719598 32.3488696,95.6302384 32.3488696,94.7313311 L32.3488696,88.8958011 C32.3488696,87.8249715 33.2522088,87.1692112 34.2365539,87.1692112 L39.8186007,87.1692112 Z M24.4618351,87.1692112 C25.5296409,87.1692112 26.3495194,87.8249715 26.3495194,88.8958011 L26.3495194,94.7313311 C26.3495194,95.6302384 25.4461802,96.3719598 24.4618351,96.3719598 L19.0540738,96.3719598 C17.9838133,96.3719598 17.1639348,95.6302384 17.1639348,94.7313311 L17.1639348,88.8958011 C17.1639348,87.8249715 17.9838133,87.1692112 19.0540738,87.1692112 L24.4618351,87.1692112 Z M311.458575,87.1692112 C312.357005,87.1692112 313.262799,87.8249715 313.262799,88.8958011 L313.262799,94.7313311 C313.262799,95.6302384 312.357005,96.3719598 311.458575,96.3719598 L305.874074,96.3719598 C304.96828,96.3719598 304.064941,95.6302384 304.064941,94.7313311 L304.064941,88.8958011 C304.064941,87.8249715 304.96828,87.1692112 305.874074,87.1692112 L311.458575,87.1692112 Z M296.18527,87.1692112 C297.167161,87.1692112 298.0705,87.8249715 298.0705,88.8958011 L298.0705,94.7313311 C298.0705,95.6302384 297.0837,96.3719598 296.18527,96.3719598 L290.691594,96.3719598 C289.704794,96.3719598 288.801455,95.6302384 288.801455,94.7313311 L288.801455,88.8958011 C288.801455,87.8249715 289.704794,87.1692112 290.691594,87.1692112 L296.18527,87.1692112 Z M96.3779415,34.1926198 C97.2788259,34.1926198 97.9342378,34.8483801 97.9342378,35.7521995 L97.9342378,74.690117 C97.9342378,78.8727381 97.6912199,82.731163 96.051463,85.9411956 C93.5108216,90.6150229 89.3132402,92.3416128 82.4228244,92.3416128 C81.52194,92.3416128 78.6450012,92.3416128 77.2531716,92.0935536 C76.5118443,91.9289995 76.0994504,91.4377933 76.0994504,90.5364299 L76.0994504,84.4626649 C76.0994504,83.6325264 76.595305,83.2248252 77.4961894,83.2248252 L79.2194071,83.2248252 C85.3758598,83.2248252 87.5924773,82.6476579 87.5924773,75.9181326 L87.5924773,35.7521995 C87.5924773,34.8483801 88.2503439,34.1926198 89.2322342,34.1926198 L96.3779415,34.1926198 Z M450.602261,32.7975941 C454.787569,32.7975941 460.367161,33.3723054 462.66724,34.1926198 C463.7375,34.605233 464.066433,34.8483801 464.066433,35.7521995 L464.066433,62.2871598 L479.494386,62.2871598 C482.118488,62.2871598 482.781264,62.2036548 482.781264,59.5732454 L482.781264,46.757675 C482.781264,43.3953684 482.687984,39.6941295 482.609433,35.7521995 C482.609433,34.8483801 483.277119,34.1926198 484.261464,34.1926198 L491.15188,34.1926198 C492.379243,34.1926198 492.872642,34.8483801 492.951194,35.7521995 C493.034654,39.2815163 493.123024,41.8333326 493.123024,44.2156828 L493.12253,57.193702 C493.118696,62.9180972 493.085152,66.8931305 492.791636,69.5078914 C492.543709,70.5738089 492.214776,71.3155303 490.903952,71.8976096 C488.67436,72.5274764 482.485937,72.7818771 478.072387,72.7959001 L463.897057,72.796517 L463.897057,75.5890244 C462.834161,89.0578991 454.048697,92.3416128 442.801142,92.3416128 C440.918368,92.3416128 434.180145,92.3416128 432.952782,91.9289995 C431.882521,91.6858525 431.641958,91.2732392 431.641958,90.3743318 L431.641958,84.3791598 C431.641958,83.4679723 432.127994,82.9767661 433.112339,82.9767661 L440.589434,82.9767661 C449.122062,82.9767661 453.636303,81.4982353 453.636303,75.2599163 L453.636303,72.796517 L447.639407,72.796517 C435.738896,72.796517 428.600553,66.6343349 428.600553,54.727496 L428.600553,53.0844112 C428.600553,40.1902478 436.477768,32.7975941 450.602261,32.7975941 Z M654.180049,79.9411116 C655.247855,79.9411116 656.234655,80.761426 656.234655,81.8273435 L656.234655,88.4045949 C656.234655,89.3035023 655.247855,90.1238167 654.180049,90.1238167 L647.861585,90.1238167 C646.87724,90.1238167 645.971446,89.3035023 645.971446,88.4045949 L645.971446,81.8273435 C645.971446,80.761426 646.87724,79.9411116 647.861585,79.9411116 L654.180049,79.9411116 Z M153.430682,79.9411116 C154.493579,79.9411116 155.477924,80.761426 155.477924,81.8273435 L155.477924,88.4045949 C155.477924,89.3035023 154.493579,90.1238167 153.430682,90.1238167 L147.107308,90.1238167 C146.120508,90.1238167 145.217169,89.3035023 145.217169,88.4045949 L145.217169,81.8273435 C145.217169,80.761426 146.120508,79.9411116 147.107308,79.9411116 L153.430682,79.9411116 Z M484.833415,79.9411116 C485.901221,79.9411116 486.885566,80.761426 486.885566,81.8273435 L486.885566,88.4045949 C486.885566,89.3035023 485.901221,90.1238167 484.833415,90.1238167 L478.507586,90.1238167 C477.525696,90.1238167 476.624811,89.3035023 476.624811,88.4045949 L476.624811,81.8273435 C476.624811,80.761426 477.525696,79.9411116 478.507586,79.9411116 L484.833415,79.9411116 Z M331.150387,32.7975941 C335.507525,32.7975941 340.100318,33.2912563 342.982166,33.8635116 C343.88305,34.1115707 344.37645,34.4406789 344.37645,35.5065964 L344.37645,59.4062353 C344.37645,61.7861295 345.279789,62.2871598 348.149364,62.2871598 L351.760266,62.2871598 C350.856927,62.2871598 350.118054,62.8594151 350.118054,63.7558665 L350.118054,63.7558665 L350.118054,71.3155303 C350.118054,72.2168937 350.856927,72.796517 351.760266,72.796517 L351.760266,72.796517 L345.439347,72.796517 C337.886155,72.796517 333.951229,70.9937902 333.951229,62.4492579 L333.951229,42.7371521 C332.309018,42.4890929 331.489139,42.4080439 329.923024,42.4080439 C323.68802,42.4080439 320.482148,44.7879381 320.482148,52.0184937 L320.482148,65.5708735 C320.482148,69.5078914 320.401142,74.604156 320.163033,78.4650369 C320.163033,79.4474493 319.576354,80.0221606 318.346536,80.2702198 C313.753744,81.0070291 307.921315,81.4982353 301.936693,81.4982353 C283.133492,81.4982353 275.577846,72.5460019 275.577846,55.5478104 C275.577846,53.1679163 275.99024,48.2337497 276.645652,44.7093451 C276.810118,43.6385155 277.386979,43.0662602 278.290318,43.0662602 L284.608783,43.0662602 C285.679043,43.0662602 286.086528,43.5574665 286.005522,44.623384 C285.757594,47.0057342 285.595583,49.7122805 285.595583,51.2743163 C285.595583,62.694861 287.478357,71.2320252 302.179711,71.2320252 C305.135201,71.2320252 307.513831,71.0674711 309.811454,70.738363 C310.023963,66.0269935 310.054322,63.4827458 310.058659,60.0571623 L310.059381,51.0360812 C310.059381,38.5447069 317.607664,32.7975941 331.150387,32.7975941 Z M60.0087217,32.7975941 C63.8675509,32.7975941 68.632174,33.2052953 71.6735795,33.8635116 C72.5720092,34.1115707 73.0654091,34.4406789 73.0654091,35.5065964 L73.0654091,71.0674711 C73.0654091,72.0523396 72.4099973,72.796517 71.4231974,72.796517 L64.1964842,72.796517 C63.2955998,72.796517 62.6377332,72.0523396 62.6377332,71.0674711 L62.6377332,42.7371521 C60.6714977,42.4890929 59.8516193,42.4080439 58.2855041,42.4080439 C52.0505002,42.4080439 48.8519922,44.7879381 48.8519922,52.0184937 L48.8519922,65.5708735 C48.8519922,69.5078914 48.7685316,74.604156 48.5156948,78.4650369 C48.5156948,79.4474493 47.9388342,80.0221606 46.7090165,80.2702198 C42.1162242,81.0070291 36.2052441,81.4982353 30.2991734,81.4982353 C11.4935179,81.4982353 3.85932015,72.5460019 3.85932015,55.5478104 C3.85932015,53.0844112 4.35026534,48.2337497 5.0081319,44.7093451 C5.25851395,43.4739614 5.50889599,43.0662602 6.73625897,43.0662602 L13.0547236,43.0662602 C13.955608,43.0662602 14.4490079,43.5574665 14.4490079,44.623384 C14.1986259,47.0057342 13.955608,49.7122805 13.955608,51.2743163 C13.955608,62.694861 15.8408376,71.2320252 30.5421913,71.2320252 C33.4952266,71.2320252 35.8763108,71.0674711 38.1788438,70.738363 C38.395824,65.8306865 38.4190719,63.2744875 38.4215627,59.6241536 L38.4218616,51.0360812 C38.4218616,38.4612019 45.889138,32.7975941 60.0087217,32.7975941 Z M652.127898,59.5732454 L652.127898,46.5120719 C652.127898,43.1448532 652.049347,39.4436143 651.968341,35.5065964 C651.968341,34.605233 652.623753,33.9470167 653.608098,33.9470167 L660.505878,33.9470167 C661.733241,33.9470167 662.229096,34.605233 662.307647,35.5065964 C662.391108,39.0408252 662.474568,41.5877295 662.474568,43.9676237 L662.474507,56.0638058 C662.473494,62.3995278 662.455772,66.7244362 662.145635,69.5078914 C661.900162,70.5738089 661.573684,71.3155303 660.260405,71.8976096 C658.030813,72.5274764 651.837758,72.7818771 647.430693,72.7959001 L640.224932,72.796517 C636.03717,72.796517 631.444377,72.3003988 628.569893,70.0040096 C625.538307,72.1383007 620.768774,72.796517 617.246243,72.796517 L611.079971,72.796517 L611.000491,72.7945801 L611.00142,72.796517 L610.017075,72.796517 C606.735106,72.796517 601.970483,72.3789918 598.690969,70.4952159 C595.737934,72.3789918 591.054317,72.796517 587.359954,72.796517 L566.671524,72.796517 C549.112869,72.796517 543.930942,66.3076828 543.930942,54.8895941 C543.930942,53.8261326 544.016858,50.1248937 544.429252,48.4842649 C544.758185,47.2488812 545.084664,46.8411801 546.14756,46.8411801 L552.308922,46.8411801 C553.209806,46.8411801 553.705661,47.3348423 553.705661,48.3983038 C553.6222,49.6336875 553.6222,51.5272875 553.6222,52.0946307 C553.6222,59.9809466 557.557126,62.2871598 568.478202,62.2871598 L588.344299,62.2871598 C590.312989,62.2871598 593.027916,62.0317326 593.027916,59.4848283 L593.027916,12.0146587 C593.027916,11.0322462 593.766789,10.2954369 594.670128,10.2954369 L602.051489,10.2954369 C602.957283,10.2954369 603.701065,11.0322462 603.701065,12.0146587 L603.701065,60.8847661 C604.358931,62.0317326 607.311967,62.2871598 608.868263,62.2871598 L611.00142,62.2871598 C611.027701,62.2873439 611.053892,62.2871598 611.079971,62.2871598 L618.802539,62.2871598 C620.685314,62.2871598 623.559798,62.0317326 623.559798,59.4848283 L623.559798,35.7521995 C623.559798,34.8483801 624.21521,34.1926198 625.209374,34.1926198 L632.342807,34.1926198 C633.246146,34.1926198 633.901558,34.8483801 633.901558,35.7521995 L633.901558,60.8847661 C634.55697,62.0317326 637.767752,62.2871598 639.240587,62.2871598 L648.84593,62.2871598 C651.470032,62.2871598 652.127898,62.2036548 652.127898,59.5732454 Z M516.597569,21.7110696 C517.584369,21.7110696 518.242235,22.4454229 518.242235,23.3516984 L518.242235,71.0674711 C518.242235,71.9712906 517.584369,72.796517 516.597569,72.796517 L509.208844,72.796517 C508.224499,72.796517 507.566632,71.9712906 507.566632,71.0674711 L507.566632,23.3516984 C507.566632,22.4454229 508.224499,21.7110696 509.208844,21.7110696 L516.597569,21.7110696 Z M371.540448,10.2954369 C372.446242,10.2954369 373.101653,11.0322462 373.101653,12.0146587 L373.101653,37.0661762 C378.850622,33.1267023 387.312062,32.635496 391.163527,32.635496 C405.19965,32.635496 414.228132,38.3801528 414.228132,54.646447 L414.228132,58.0087536 C414.228132,61.6289435 413.901654,66.720296 413.165236,70.0040096 C412.917309,71.0674711 412.259442,72.1383007 410.541134,72.3789918 C407.848488,72.748341 397.965794,72.7909583 392.48728,72.7958756 L351.922278,72.796517 L351.922278,62.2871598 L362.433414,62.2871598 L362.433414,12.0146587 C362.433414,11.0322462 363.088826,10.2954369 364.073171,10.2954369 L371.540448,10.2954369 Z M248.408939,10.2954369 C249.395739,10.2954369 250.051151,11.0322462 250.051151,11.9360657 L250.051151,71.0674711 C250.051151,71.9712906 249.395739,72.796517 248.408939,72.796517 L241.020214,72.796517 C240.038323,72.796517 239.380457,71.9712906 239.380457,71.0674711 L239.380457,11.9360657 C239.380457,11.0322462 240.038323,10.2954369 241.020214,10.2954369 L248.408939,10.2954369 Z M119.035062,10.2954369 C120.100413,10.2954369 120.674819,11.0322462 120.674819,11.9360657 L120.674819,58.0947147 C120.674819,61.7861295 122.236025,62.2871598 125.279885,62.2871598 L163.688982,62.2871598 L159.832608,53.7401715 C156.62919,46.757675 151.052053,42.3245388 140.621922,42.3245388 C139.885504,42.3245388 137.425869,42.4080439 136.196051,42.4890929 C135.039875,42.575054 134.467924,42.1624408 134.467924,41.1702042 L134.467924,35.0988953 C134.467924,34.2761248 135.039875,33.7849186 136.107681,33.5344034 C138.822608,32.9646042 141.277334,32.7975941 144.151818,32.7975941 C156.133336,32.7975941 164.754333,37.5598384 171.328089,52.4261949 C173.048852,56.3681248 174.610058,60.3075988 175.186918,61.1279132 C175.756415,62.0317326 176.168809,62.2871598 177.072148,62.2871598 L185.361757,62.2871598 C187.246987,62.2871598 190.13129,62.0317326 190.13129,59.4848283 L190.13129,35.7521995 C190.13129,34.8483801 190.789157,34.1926198 191.771047,34.1926198 L198.906935,34.1926198 C199.805365,34.1926198 200.463232,34.8483801 200.463232,35.7521995 L200.463232,60.8847661 C201.128462,62.0317326 204.329425,62.2871598 205.802261,62.2871598 L215.000119,62.2871598 C217.624221,62.2871598 218.201081,62.2036548 218.201081,59.5732454 L218.201081,12.0146587 C218.201081,11.0322462 218.937499,10.2954369 219.840838,10.2954369 L227.308115,10.2954369 C228.216363,10.2954369 228.871775,11.0322462 228.871775,12.0146587 L228.871775,59.7353435 C228.871775,62.694861 228.790769,66.5557419 228.464291,69.5078914 C228.216363,70.5738089 227.88743,71.3155303 226.574152,71.8976096 C224.263982,72.527991 217.833054,72.7822925 213.405853,72.795934 L206.786606,72.796517 C202.606207,72.796517 198.006051,72.3003988 195.131567,70.0040096 C192.09998,72.1383007 187.330448,72.796517 183.807916,72.796517 L122.236025,72.796517 C114.768748,72.796517 110.004125,70.824324 110.004125,61.2163303 L110.004125,11.9360657 C110.004125,11.0322462 110.740543,10.2954369 111.724888,10.2954369 L119.035062,10.2954369 Z M448.793128,42.3245388 C442.558124,42.3245388 438.937404,46.0208657 438.937404,52.3476019 L438.937404,53.4135194 C438.937404,59.6518384 441.487864,62.6064439 447.639407,62.6064439 L453.805679,62.6064439 L453.805679,42.575054 C452.242018,42.4080439 450.52371,42.3245388 448.793128,42.3245388 Z M388.455964,42.653647 C384.756692,42.653647 377.20841,43.1448532 373.101653,46.1854198 L373.101653,62.3608408 C375.647204,62.4492579 378.77207,62.5278509 382.957378,62.5278509 L402.246615,62.5278509 C403.638444,62.5278509 403.888826,61.6289435 403.888826,57.1098462 L403.888826,55.8769186 C403.888826,45.8587676 399.215028,42.653647 388.455964,42.653647 Z M574.963588,26.3873528 C575.950388,26.3873528 577.509139,26.4708579 579.065435,26.8785591 C579.806762,27.0431132 580.135695,27.5367754 580.135695,28.2760408 L580.135695,31.2355583 C580.135695,31.9772797 579.806762,32.3063879 579.065435,32.3063879 C578.412478,32.3063879 576.441333,32.1442898 575.785921,32.1442898 C573.24528,32.1442898 572.091559,33.5344034 572.091559,35.5901015 C572.091559,37.3093233 572.832886,38.6232999 573.404837,38.9622322 L579.558835,38.9622322 C580.54318,38.9622322 581.041489,39.3650213 581.041489,40.1018307 L581.041489,43.4739614 C581.041489,44.2156828 580.54318,44.623384 579.558835,44.623384 L565.525167,44.623384 C564.538367,44.623384 564.047422,44.2156828 564.047422,43.4739614 L564.047422,40.1902478 C564.047422,39.5271194 564.538367,39.2029233 565.525167,39.2029233 L566.75253,39.2029233 C566.094663,38.1320937 565.687179,36.1599007 565.687179,34.605233 C565.687179,29.2682774 569.047698,26.3873528 574.963588,26.3873528 Z M631.930413,18.3364828 C632.917213,18.3364828 633.742001,19.1567972 633.742001,20.2325388 L633.742001,26.635412 C633.742001,27.6202805 632.917213,28.447963 631.851862,28.447963 L625.454846,28.447963 C624.21521,28.447963 623.478792,27.6202805 623.478792,26.635412 L623.478792,20.2325388 C623.478792,19.1567972 624.379676,18.3364828 625.454846,18.3364828 L631.930413,18.3364828 Z M205.642703,18.2529777 C206.708054,18.2529777 207.527933,19.0831163 207.527933,20.1441217 L207.527933,26.5494509 C207.527933,27.5367754 206.708054,28.3570898 205.642703,28.3570898 L199.888826,28.3570898 C198.906935,28.3570898 197.92259,27.5367754 197.92259,26.5494509 L197.92259,20.1441217 C197.92259,19.0831163 198.906935,18.2529777 199.888826,18.2529777 L205.642703,18.2529777 Z M190.371853,18.2529777 C191.444568,18.2529777 192.426459,19.0831163 192.426459,20.1441217 L192.426459,26.5494509 C192.426459,27.5367754 191.358653,28.3570898 190.371853,28.3570898 L184.706346,28.3570898 C183.636085,28.3570898 182.737655,27.5367754 182.737655,26.5494509 L182.737655,20.1441217 C182.737655,19.0831163 183.636085,18.2529777 184.706346,18.2529777 L190.371853,18.2529777 Z M393.625617,14.2349108 C394.609962,14.2349108 395.432296,15.0552252 395.432296,16.1186867 L395.432296,22.531384 C395.432296,23.5162525 394.609962,24.3390229 393.547066,24.3390229 L387.137777,24.3390229 C385.915323,24.3390229 385.169086,23.5162525 385.169086,22.531384 L385.169086,16.1186867 C385.169086,15.0552252 386.067516,14.2349108 387.137777,14.2349108 L393.625617,14.2349108 Z M514.542963,0.763580078 C515.441393,0.763580078 517.093423,0.847085136 518.406702,1.2547863 C518.983562,1.34074739 519.310041,1.66739953 519.310041,2.0751007 L519.310041,4.29535284 C519.310041,4.86760809 518.983562,5.11812327 518.242235,5.11812327 L515.372661,5.11812327 C512.490812,5.11812327 511.260995,6.01703066 511.260995,8.40429292 C511.260995,10.2954369 512.002322,11.6855505 512.986667,12.2651739 L518.73318,12.2651739 C519.638974,12.2651739 520.046459,12.5083209 520.046459,13.0854882 L520.046459,15.5488875 C520.046459,16.2046478 519.638974,16.5312999 518.73318,16.5312999 L506.096251,16.5312999 C505.183093,16.5312999 504.782973,16.2046478 504.782973,15.5488875 L504.782973,13.1640812 C504.782973,12.594282 505.183093,12.3437668 506.096251,12.3437668 L507.652547,12.3437668 C506.751663,11.0322462 506.339269,9.3105684 506.339269,7.65765946 C506.339269,3.06242521 509.049286,0.763580078 514.542963,0.763580078 Z" id="Fill-38" fill="#273239"></path>
            </g>
        </g>
    </g>
</svg>