<?xml version="1.0" encoding="UTF-8"?>
<svg width="51px" height="56px" viewBox="0 0 51 56" version="1.1" xmlns="http://www.w3.org/2000/svg" xmlns:xlink="http://www.w3.org/1999/xlink">
    <title>adce-icon</title>
    <defs>
        <polygon id="path-1" points="0 0.0913501977 50.7521711 0.0913501977 50.7521711 55.9592955 0 55.9592955"></polygon>
        <polygon id="path-3" points="0 0.0913501977 50.7521711 0.0913501977 50.7521711 55.9592955 0 55.9592955"></polygon>
        <polygon id="path-5" points="0 0.0913501977 50.7521711 0.0913501977 50.7521711 55.9592955 0 55.9592955"></polygon>
        <polygon id="path-7" points="0 0.0913501977 50.7521711 0.0913501977 50.7521711 55.9592955 0 55.9592955"></polygon>
    </defs>
    <g id="Page-1" stroke="none" stroke-width="1" fill="none" fill-rule="evenodd">
        <g id="adce-icon">
            <g id="Fill-1-Clipped">
                <mask id="mask-2" fill="white">
                    <use xlink:href="#path-1"></use>
                </mask>
                <g id="path-1"></g>
                <path d="M32.1147922,30.1726539 C33.0327973,30.1780416 33.2432819,29.9960477 33.2572534,29.1857961 C33.2732338,28.2638644 33.0542567,28.0175837 32.2108572,28.0087259 C31.3211602,27.9993204 31.0448363,28.2762834 31.0490369,29.1735597 C31.0525983,29.9272863 31.3093803,30.1679968 32.1147922,30.1726539 M4.75197545,36.4471042 C3.91113281,36.4365115 3.66293446,36.6708298 3.64275351,37.494231 C3.62038096,38.4054786 3.85360338,38.666096 4.6970029,38.6718489 C5.55245618,38.6776932 5.80138506,38.4434663 5.807138,37.6272791 C5.81362147,36.6971289 5.59957552,36.4577883 4.75197545,36.4471042 M36.3443914,28.0114654 C35.5143241,28.0146615 35.2709655,28.2632251 35.2790927,29.099228 C35.2876764,29.9730359 35.5147807,30.1835205 36.437169,30.1724712 C37.2984665,30.1621525 37.508038,29.9489284 37.4986324,29.0927446 C37.4891355,28.2178408 37.2649534,28.0078129 36.3443914,28.0114654 M29.0249146,41.7940525 C29.0213532,40.9233494 28.7998193,40.6895791 27.9738613,40.684374 C27.0642573,40.6787124 26.8583386,40.8823483 26.8544119,41.7914044 C26.8505767,42.6842061 27.0757632,42.9055574 27.9823538,42.9003523 C28.8203656,42.8955126 29.0285673,42.6745265 29.0249146,41.7940525 M11.0317222,51.3455794 C11.8923805,51.3622903 12.1660561,51.0945502 12.1726309,50.2295087 C12.1788405,49.4225444 11.9093654,49.147773 11.0916258,49.1272268 C10.2569014,49.1063153 9.98687838,49.3557921 9.97025877,50.1635782 C9.95144757,51.0756476 10.1790084,51.3291423 11.0317222,51.3455794 M17.3252577,17.5104294 C18.200344,17.5272316 18.4823295,17.2636921 18.4898174,16.4226668 C18.4973054,15.5855681 18.2308437,15.2921681 17.4533748,15.2812101 C16.5898856,15.2690651 16.3092699,15.5355266 16.292285,16.3833093 C16.2753915,17.2260696 16.5221288,17.4951795 17.3252577,17.5104294 M14.2828647,24.9261538 C14.2948272,24.0484192 14.0453504,23.7896281 13.1817699,23.7839665 C12.306227,23.7782136 12.0762006,23.9902506 12.0628685,24.8151128 C12.0488057,25.6889207 12.3147195,25.9728238 13.1586669,25.9854255 C13.967914,25.9975706 14.2720893,25.7110193 14.2828647,24.9261538 M7.94695833,50.225856 C7.95051968,49.4192571 7.67520032,49.13855 6.86376161,49.1219304 C6.0076691,49.1043064 5.73417608,49.3771602 5.73625253,50.2467675 C5.73828532,51.0994813 5.9712338,51.3386393 6.8023969,51.3415615 C7.67885299,51.3447575 7.94321435,51.0869709 7.94695833,50.225856 M30.055513,13.1943533 C29.1777785,13.1976407 28.9527745,13.4304979 28.9511206,14.3372711 C28.9497611,15.1421351 29.2238021,15.4072269 30.0546912,15.4047952 C30.8907854,15.4022958 31.1850985,15.0977552 31.1733187,14.247233 C31.1620868,13.4367988 30.9013781,13.1911573 30.055513,13.1943533 M10.0403899,37.5707542 C10.0434946,36.6996858 9.78808229,36.4398902 8.93189847,36.442995 C8.09343005,36.4460085 7.84915832,36.6828835 7.83683059,37.5050063 C7.8235897,38.3841106 8.08091969,38.6633565 8.9110783,38.6707531 C9.79273943,38.6786977 10.0371938,38.4405442 10.0403899,37.5707542 M45.9205737,28.0820532 C45.9205737,26.9784928 45.915186,25.8750238 45.9224913,24.7715549 C45.9270571,24.0920686 45.6408712,23.7752914 44.9244929,23.7716044 C44.2222688,23.7682601 43.7185668,23.9035912 43.7192957,24.7305537 C43.721215,26.9374004 43.7200278,29.1442471 43.7287029,31.3511851 C43.7315337,32.0890227 44.1514071,32.3509185 44.8520789,32.3408737 C45.5557641,32.3309202 45.9386543,32.0652804 45.9264179,31.3136539 C45.9090677,30.236758 45.9220347,29.159223 45.9205737,28.0820532 M22.7066324,15.2809362 C22.7066324,13.5440957 22.7132985,11.8071639 22.7039842,10.0704148 C22.6990531,9.15587967 22.4797107,8.95060009 21.5830737,8.95415884 C20.7215935,8.9578141 20.4914759,9.19404997 20.4923837,10.2062938 C20.4954025,13.6533102 20.514305,17.1003268 20.5321118,20.5473434 C20.5371342,21.5232431 20.7346518,21.7466946 21.5618882,21.7610314 C22.4504895,21.7764638 22.6973181,21.5311876 22.7019752,20.570355 C22.7106503,18.8072154 22.7044407,17.0440758 22.7066324,15.2809362 M18.4854342,33.297049 L18.4586785,33.297049 C18.4586785,31.9039241 18.4691799,30.5107077 18.4551171,29.1177652 C18.4454376,28.1541932 18.2804287,28.0031557 17.3575838,28.0060831 C16.4764705,28.0091826 16.301782,28.1922722 16.2993165,29.1617798 C16.2941114,31.2387744 16.2972161,33.3157689 16.2959377,35.3926722 C16.2952072,36.4410774 16.2942027,36.4412599 15.2827807,36.4440908 C14.5465868,36.4460998 13.8103929,36.4548661 13.0743817,36.4463737 C12.3358136,36.4378812 12.0369346,36.8066174 12.05465,37.5252786 C12.0753788,38.3677649 12.2995609,38.6572383 13.1007722,38.66637 C14.5464956,38.6828069 15.9928581,38.653677 17.4385815,38.6739493 C18.1735883,38.6841767 18.4963009,38.3629251 18.4894521,37.6344932 C18.4757547,36.1887697 18.4854342,34.7428638 18.4854342,33.297049 M12.0736438,47.0924205 L12.0736438,47.0871242 C14.5737078,47.0871242 17.0738632,47.0756182 19.5737446,47.0941555 C20.3154176,47.0996345 20.6318294,46.7814877 20.6151184,46.0518685 C20.5958506,45.2101127 20.5869017,44.3666219 20.6261677,43.5263272 C20.6356647,43.3235131 20.8127275,43.0069188 20.9804759,42.952768 C22.0461398,42.6089613 22.5755018,42.9751406 22.6196077,44.0717608 C22.6465461,44.741659 22.9695327,44.9982584 23.614136,45.006203 C24.2566392,45.0141475 24.8030773,44.9338802 24.8227104,44.1308426 C24.8426174,43.3155687 24.8269109,42.4994727 24.8377608,41.6839248 C24.8463613,40.9906497 24.5173478,40.6815432 23.822703,40.6880267 C22.3492195,40.7020894 20.875188,40.7025461 19.4017043,40.6825477 C18.6977452,40.6729595 18.3864471,41.0070866 18.3837076,41.6816419 C18.3805115,42.4974638 18.3455373,43.315112 18.3895519,44.1284684 C18.4232477,44.7532562 18.2005266,44.9451122 17.5800308,44.9408203 C13.9747627,44.9151603 10.369312,44.9288578 6.76395264,44.9213699 C5.84932624,44.9194522 5.86567189,44.8785425 5.82229654,43.5608449 C5.79581475,42.7585378 6.32033692,42.9085708 6.77034479,42.9074751 C9.63877976,42.9009915 12.507306,42.9123148 15.3756497,42.8960605 C16.196768,42.8914034 16.3712739,42.6324296 16.3783052,41.7397192 C16.3840581,41.019597 16.09495,40.6839175 15.344876,40.6870222 C11.7921149,40.7015416 8.23935388,40.6869309 4.68668413,40.693323 C3.82072943,40.6948755 3.64759329,40.883718 3.64147508,41.7903999 C3.63197816,43.1850773 3.63225211,44.579846 3.64165771,45.9746148 C3.6482325,46.9546238 3.79242131,47.0894071 4.8102354,47.0910507 C7.23140197,47.09516 9.65247724,47.0924205 12.0736438,47.0924205 M8.92386262,17.5106119 C10.3457524,17.5106119 11.7676421,17.5173694 13.1895319,17.5082377 C14.0626092,17.5024848 14.2697151,17.2970226 14.2806731,16.4430304 C14.2913571,15.6006353 14.3003975,14.7575098 14.2790294,13.91548 C14.2668843,13.4373467 14.4608407,13.256266 14.9313947,13.2660369 C15.7735158,13.2834783 16.6173719,13.2415641 17.4587625,13.2720637 C18.164548,13.2976324 18.4889956,12.9844167 18.4892696,12.2986295 C18.4898174,10.7980249 18.4903653,9.29732897 18.4867127,7.79672438 C18.484795,7.02555624 18.0302213,6.84356239 17.3423339,6.85260273 C16.6656783,6.86136911 16.2878105,7.09504813 16.2945679,7.81151765 C16.3016907,8.54871602 16.2512839,9.28947575 16.3089046,10.0221996 C16.3700867,10.799212 16.1322071,11.0916075 15.3056099,11.07791 C14.5401034,11.0651258 14.225244,10.90103 14.2653319,10.0652097 C14.3333628,8.64660735 14.2735504,7.22225206 14.2856955,5.80045363 C14.2917224,5.09357233 14.0084585,4.70940368 13.2635895,4.71397787 C11.762711,4.72346642 10.2617411,4.7210922 8.7608626,4.71680031 C8.12886087,4.71497399 7.84112247,5.05731967 7.83893087,5.64932476 C7.83098633,7.88740169 7.83381715,10.1253873 7.83957009,12.3634642 C7.84112247,12.9761981 8.16054771,13.2769035 8.77885195,13.2710593 C9.62142961,13.263206 10.4664728,13.3062161 11.3060371,13.2551701 C12.1537285,13.2035763 12.0595811,13.7456313 12.0627771,14.2816593 C12.0660645,14.8298325 12.1232287,15.3209328 11.2874997,15.2918942 C9.73584924,15.237926 8.18045471,15.2524454 6.62761705,15.2843149 C6.01296546,15.2970079 5.81453463,15.1141009 5.82832343,14.4746112 C5.87480354,12.3164362 5.86265845,10.1567088 5.85380075,7.99771207 C5.84996545,7.06582683 5.63327132,6.86721337 4.74330038,6.86429125 C3.84775913,6.86146043 3.65745547,7.0357837 3.65179385,7.99908181 C3.63535687,10.8163795 3.63398712,13.6337685 3.63544819,16.4511575 C3.63581345,17.2833251 3.8685793,17.5023935 4.73709085,17.5070507 C6.13268144,17.5145386 7.52827203,17.5090596 8.92386262,17.5106119 M41.6837605,28.0628766 L41.6770943,28.0628766 C41.6770943,26.2455864 41.6705195,24.428296 41.6806557,22.611097 C41.6843084,21.9620191 41.4110893,21.641498 40.7418304,21.6267047 C39.7880292,21.605428 39.5209284,21.8322582 39.5181889,22.8142762 C39.5102443,25.6323045 39.4966381,28.4506067 39.5270465,31.2682697 C39.5345345,31.9661106 39.3691602,32.2821571 38.6043843,32.2148568 C37.8465484,32.1482871 37.0781198,32.2084646 36.3143483,32.2008854 C35.5879252,32.1936714 35.257816,32.5380261 35.2735224,33.2672799 C35.2923336,34.1358828 35.267039,35.0054901 35.2782708,35.8743669 C35.283202,36.2668454 35.1421179,36.4681071 34.7268103,36.4437255 C34.4643666,36.4282017 34.1984529,36.4220835 33.9372876,36.4465563 C33.4179704,36.4951368 33.2388987,36.2685804 33.2552444,35.7602213 C33.2825481,34.9184654 33.2472085,34.0747006 33.2641934,33.2323056 C33.2779822,32.5407655 32.9591961,32.1979633 32.2740482,32.1972328 C30.088113,32.1949498 27.9019952,32.1808871 25.716334,32.2043554 C24.920967,32.2128478 24.6981546,32.5301728 24.7079255,33.3815169 C24.7160526,34.0882155 25.0071698,34.4453545 25.7608964,34.4321136 C27.2616836,34.4057231 28.7649365,34.4690055 30.2637147,34.408006 C31.1817198,34.3706575 31.022829,34.9462257 31.0490369,35.486363 C31.0774364,36.0721585 31.0385355,36.4806174 30.2397898,36.4635412 C27.9758703,36.4149608 25.7100331,36.4328588 23.4452918,36.4555054 C22.913099,36.4607104 22.6855382,36.3178 22.6949439,35.7498111 C22.7216996,34.1436447 22.7241651,32.5364736 22.6944872,30.9304898 C22.6833466,30.3291704 22.9261573,30.1554863 23.4899456,30.1646181 C24.9908241,30.1889996 26.4926158,30.1563083 27.9933118,30.1806898 C28.7329757,30.1926522 29.0447303,29.8876549 29.0313068,29.1450689 C29.0147785,28.2199412 28.9008155,28.0103697 28.0393353,28.002973 C25.8277401,27.9838879 23.6157797,28.0090912 21.404002,28.0127439 C20.7163885,28.0137484 20.4867274,28.4142627 20.4875448,29.0303754 C20.4916584,31.8484035 20.4812484,34.6664318 20.5058126,37.4841861 C20.5147616,38.5079358 20.7131924,38.6701139 21.7336547,38.6719403 C24.4990846,38.6768713 27.2648798,38.7005223 30.0295791,38.6580602 C30.8098789,38.6460977 31.1110409,38.8440719 31.0661131,39.6661947 C31.0169848,40.5660278 31.2978745,40.7757819 32.1965205,40.7633629 C33.0619273,40.7512177 33.29725,40.5483124 33.2513178,39.5887582 C33.215887,38.8484551 33.4753173,38.6140456 34.1907823,38.662352 C34.9510837,38.7134893 35.7175947,38.6630826 36.4811836,38.6724881 C37.1741847,38.6811632 37.4989977,38.3431094 37.4979932,37.6612489 C37.496806,36.8183972 37.5235618,35.9749064 37.4942491,35.1331506 C37.47489,34.5761198 37.6972458,34.3920256 38.2388443,34.4152201 C39.0275451,34.4489159 39.8188029,34.4302873 40.6088735,34.4196032 C41.5079762,34.4073668 41.6767291,34.2454626 41.6812036,33.3565875 C41.6899699,31.5920781 41.6837605,29.8274774 41.6837605,28.0628766 M5.85946237,32.1971414 C5.85946237,31.8001885 5.85946237,31.5163766 5.85946237,31.2325649 C5.85955369,27.9410605 5.86055817,24.6494646 5.85854921,21.3579601 C5.85836657,21.0423703 5.84238618,20.7266889 5.82878002,20.4112817 C5.79435368,19.6165539 5.27366681,19.5126357 4.62340176,19.5245068 C3.97651544,19.5361953 3.63800505,19.8034789 3.63836972,20.469085 C3.64065323,24.8138344 3.64056191,29.1586751 3.63900953,33.5036071 C3.63873559,34.119811 3.92811768,34.4248996 4.55436647,34.4240856 C7.47713477,34.4195119 10.4000857,34.4181422 13.3229453,34.4240856 C13.9832552,34.4253562 14.284965,34.116341 14.2821342,33.4600491 C14.275742,31.9854697 14.2758334,30.5107077 14.2893482,29.0362196 C14.296197,28.2952772 13.9392406,27.9932022 13.2170182,28.0121046 C12.4012876,28.0333814 11.5840046,27.9962156 10.7684566,28.0210537 C10.2819221,28.0360296 10.0380156,27.9000593 10.0444078,27.3620223 C10.0641322,25.7033487 10.0564616,24.0442186 10.0476039,22.3853625 C10.045321,21.9705115 10.1769081,21.7513518 10.6351344,21.7553697 C12.3201985,21.7702544 14.0056277,21.7724459 15.6907831,21.7609401 C16.1360425,21.7579266 16.3023299,21.9469519 16.2955724,22.3745872 C16.2836099,23.1379933 16.2898195,23.9018562 16.2955724,24.6653537 C16.3043389,25.8283611 16.4592116,25.9831426 17.6271502,25.9836905 C23.0516262,25.9861561 28.4761022,25.9862473 33.9005783,25.9871605 C34.7431559,25.9872518 35.5863729,26.0057891 36.42822,25.9818642 C37.2649534,25.9581219 37.4961668,25.7102888 37.4987237,24.8635106 C37.5052984,22.7570208 37.5048419,20.6505309 37.4952536,18.5440412 C37.4909618,17.6137996 37.3177343,17.4486081 36.3717864,17.4430377 C35.1078742,17.4355498 33.843962,17.4424898 32.5799586,17.443677 C31.1342352,17.445138 31.1146935,17.4444988 31.0546073,18.8576222 C31.0329652,19.3644289 30.8549893,19.556285 30.3470867,19.5395741 C29.5054223,19.5117225 28.6594659,19.4921808 27.8202669,19.545327 C27.1188646,19.5897981 26.9092018,19.3344772 26.9214383,18.6448546 C26.9593346,16.5126135 26.9407974,14.3791854 26.9349531,12.2463051 C26.9323049,11.2568905 26.6099575,10.9895157 25.6334186,11.0651258 C24.8631636,11.1247554 24.7029944,11.596314 24.7044555,12.2574457 C24.7124,15.7859166 24.6834527,19.3147527 24.7219882,22.8427671 C24.730572,23.6223362 24.4826476,23.8296248 23.7344913,23.8026864 C22.235439,23.748627 20.7331908,23.7884411 19.2322209,23.7836012 C19.0065777,23.7828707 18.7810258,23.7499054 18.4912785,23.7267111 C18.4912785,22.6074443 18.4970314,21.556391 18.4890869,20.505429 C18.4843384,19.8801847 18.206097,19.5277942 17.5288936,19.5298031 C14.6060339,19.5387522 11.6831743,19.5327253 8.7603147,19.5329993 C8.14429336,19.5329993 7.83619138,19.8472195 7.8362827,20.4595881 C7.83673927,23.4087469 7.84039194,26.3579057 7.83984403,29.3070644 C7.83984403,29.9008959 8.14109728,30.170097 8.72068333,30.1687273 C9.56326099,30.1668096 10.4078476,30.2060758 11.2478684,30.1602348 C11.8724735,30.1260824 12.1306253,30.3451508 12.063599,30.9666512 C12.0383043,31.2013346 12.121585,31.4704445 12.032734,31.6689666 C11.9387693,31.8790859 11.7018029,32.1708423 11.5222746,32.174495 C9.68224643,32.2114781 7.84121378,32.1971414 5.85946237,32.1971414 M-4.5658267e-05,28.9684628 C0.156014298,22.9908824 0.217105059,17.856519 0.452427767,12.7302827 C0.584562791,9.84860688 0.866548248,6.95579041 1.85632816,4.20013137 C3.08745767,0.772382638 5.7088814,-0.572618589 9.22621165,0.399354598 C12.8501083,1.40082303 16.198503,3.05967918 19.506901,4.78729668 C28.7543437,9.61620631 37.6754212,14.9792264 45.9978274,21.2924862 C47.1655833,22.1783479 48.3043004,23.1478556 49.2725297,24.2414624 C51.1722788,26.3875836 51.2884335,29.5918807 49.3549885,31.6872299 C47.8182225,33.3526609 45.9995624,34.7948228 44.1625478,36.1401894 C35.6759544,42.3551926 26.6631951,47.7226872 17.2550353,52.4110606 C14.749127,53.6598143 12.1249637,54.7531471 9.44637581,55.554815 C5.3128416,56.7919714 2.62840945,55.1693679 1.57662562,50.9858836 C1.09200877,49.0584654 0.716423866,47.0673084 0.610770637,45.0880226 C0.309426075,39.4394557 0.171994691,33.7822138 -4.5658267e-05,28.9684628" id="Fill-1" fill="#033A70" fill-rule="nonzero" mask="url(#mask-2)"></path>
            </g>
            <g id="Combined-Shape-Clipped">
                <mask id="mask-4" fill="white">
                    <use xlink:href="#path-3"></use>
                </mask>
                <g id="path-1"></g>
                <path d="M11.0916806,49.1272542 C11.9094202,49.1478004 12.1788039,49.4224806 12.1726857,50.2294448 C12.1660196,51.0945777 11.892344,51.3623177 11.0316856,51.3456068 C10.1790632,51.3290785 9.95141104,51.0756751 9.97022224,50.1636055 C9.98684186,49.3558195 10.2569562,49.1063427 11.0916806,49.1272542 Z M6.86369769,49.1218939 C7.6751364,49.1386048 7.95054708,49.4192205 7.94698573,50.2258195 C7.94315043,51.0870257 7.67888039,51.344721 6.80242429,51.3416163 C5.9712612,51.3386941 5.73831272,51.0994448 5.73627992,50.246731 C5.73420348,49.3771236 6.0076965,49.1043612 6.86369769,49.1218939 Z M19.401677,40.6825569 C20.8751605,40.7024638 22.349192,40.7020986 23.822767,40.6880358 C24.5173205,40.6815524 24.8464252,40.9906588 24.8377403,41.6838426 C24.8268836,42.4994819 24.84259,43.3155777 24.822683,44.1308518 C24.8030499,44.9338894 24.2566117,45.0141567 23.6141087,45.0062121 C22.9695052,44.9982675 22.6465186,44.7416681 22.6195803,44.07177 C22.5754744,42.9751497 22.0461125,42.6089704 20.9805398,42.9527772 C20.8127,43.0069279 20.6356373,43.3235223 20.6262317,43.5263363 C20.5869655,44.3665398 20.5959146,45.2101219 20.6151824,46.0517864 C20.6318933,46.7814969 20.3153901,47.0996436 19.5737173,47.0941647 C17.0738359,47.0755361 14.5736805,47.0870419 12.0736164,47.0870419 L12.0736164,47.0924296 L8.44191221,47.0932857 C7.23135175,47.0934569 6.02079129,47.0931144 4.810208,47.0910598 C3.79239392,47.0894161 3.64820511,46.954633 3.64163031,45.9746239 C3.63231603,44.5798552 3.63204208,43.1850865 3.64144769,41.7903177 C3.64756589,40.8837272 3.82070204,40.6947932 4.68665673,40.6933322 C8.2394178,40.6869401 11.7920875,40.7015507 15.3448486,40.6869401 C16.0949226,40.6839266 16.3841221,41.0196062 16.3783692,41.7397284 C16.3712464,42.6324388 16.1967406,42.8914125 15.3756223,42.8960696 C12.5072787,42.9123239 9.63875236,42.9010007 6.7703174,42.9074842 L6.73417659,42.9072704 C6.29281334,42.9012555 5.79649353,42.7799418 5.82226915,43.560854 C5.86573581,44.8785516 5.84929884,44.9194614 6.76401656,44.921379 C10.3692846,44.928867 13.9747354,44.9151695 17.5800034,44.9408294 C18.2005906,44.9451213 18.4232203,44.7532652 18.3895245,44.1284776 C18.3456012,43.3151212 18.3804842,42.4974729 18.3837716,41.6816511 C18.3864197,41.0070958 18.6977177,40.6729686 19.401677,40.6825569 Z M27.9738613,40.6844379 C28.7998193,40.6895516 29.0213532,40.9234134 29.0249146,41.7940252 C29.0285673,42.6745905 28.8203656,42.8955765 27.9823538,42.900325 C27.0757632,42.9056213 26.8504853,42.6841787 26.8543206,41.7914683 C26.8582473,40.8824122 27.0642573,40.678685 27.9738613,40.6844379 Z M40.7418304,21.6266591 C41.4110893,21.6415436 41.6843084,21.9620647 41.6806557,22.6111426 C41.6704282,24.4283416 41.6770943,26.245632 41.6770943,28.062831 L41.6837605,28.062831 C41.6837605,29.8274317 41.6899699,31.5920324 41.6812036,33.3566331 C41.6767291,34.245417 41.5079762,34.4074125 40.6088735,34.4195576 C39.8188029,34.4302416 39.0275451,34.4489615 38.2388443,34.4151744 C37.6972458,34.3920713 37.47489,34.5760741 37.4942491,35.1331963 C37.5235618,35.9749521 37.4967148,36.818443 37.4979932,37.6612032 C37.4989977,38.3430638 37.1741847,38.6811176 36.4811836,38.6725338 C35.7175947,38.6630369 34.9510837,38.7135349 34.1907823,38.6623064 C33.4753173,38.6140912 33.215887,38.8484095 33.2513178,39.5888039 C33.29725,40.548358 33.0619273,40.7511721 32.1964292,40.7633172 C31.2978745,40.7758275 31.0168935,40.5660735 31.0661131,39.666149 C31.1110409,38.8440263 30.8098789,38.646052 30.0295791,38.6580145 C27.2648798,38.7004767 24.4990846,38.6768257 21.7336547,38.671986 C20.7131924,38.6700683 20.5147616,38.5079815 20.5058126,37.4842318 C20.4811571,34.6663862 20.4916584,31.8483579 20.4875448,29.030421 C20.4867274,28.4143083 20.7163885,28.013794 21.404002,28.0126982 C23.6157797,28.0090456 25.8277401,27.9838422 28.0393353,28.0030187 C28.9008155,28.0104153 29.0147785,28.2199868 29.0313068,29.1451145 C29.0447303,29.8876093 28.7329757,30.1926065 27.9933118,30.1806441 C26.4926158,30.1563539 24.9908241,30.1889538 23.4899456,30.1646637 C22.9261573,30.1554407 22.6833466,30.3291248 22.6944872,30.9304441 C22.7240738,32.536428 22.7216996,34.1436903 22.6949439,35.7498568 C22.6855382,36.3177544 22.913099,36.4607561 23.4452005,36.4554597 C25.7100331,36.4328132 27.9758703,36.4150065 30.2397898,36.4634956 C31.0385355,36.480663 31.0774364,36.0722043 31.0490369,35.4864087 C31.022829,34.9462714 31.1817198,34.3706119 30.2636235,34.4079604 C28.7649365,34.4689598 27.2615923,34.4057688 25.7608964,34.4320679 C25.0070785,34.4454001 24.7160526,34.0881699 24.7079255,33.3814712 C24.6981546,32.5302185 24.920967,32.2128022 25.716334,32.2044011 C27.9019952,32.1809328 30.088113,32.1949955 32.2740482,32.1971871 C32.9591961,32.1979176 33.2779822,32.5407199 33.2641934,33.23226 C33.2472085,34.0747464 33.2825481,34.9184198 33.2552444,35.760267 C33.2388987,36.2685347 33.4179704,36.4951824 33.9372876,36.446602 C34.1984529,36.4221291 34.4643666,36.428156 34.7268103,36.4436799 C35.1421179,36.4681527 35.283202,36.266891 35.2782708,35.8744126 C35.2669476,35.0054445 35.2923336,34.1359284 35.2735224,33.2672342 C35.257816,32.5380717 35.5879252,32.1936258 36.3143483,32.2008398 C37.0780284,32.208419 37.8465484,32.1482414 38.6043843,32.2149025 C39.3691602,32.2821115 39.5345345,31.966065 39.5270465,31.2683153 C39.4966381,28.450561 39.5102443,25.6322589 39.5181889,22.8142306 C39.5209284,21.8322126 39.7880292,21.6054736 40.7418304,21.6266591 Z M18.4550806,29.1177562 C18.4691433,30.5106986 18.4587333,31.9039149 18.4587333,33.2970399 L18.4853977,33.2970399 C18.4853977,34.7428546 18.4758095,36.1887607 18.4894156,37.634484 C18.4962643,38.3630073 18.1735517,38.6841675 17.438545,38.6739401 C15.9929129,38.6536678 14.5465503,38.6827978 13.1007356,38.6663608 C12.2995244,38.6572292 12.0753423,38.3677557 12.0546135,37.5252694 C12.0369894,36.8066996 12.3358684,36.4379635 13.0743451,36.4463646 C13.8103565,36.454857 14.5466416,36.4460906 15.2827442,36.4440817 C16.2942575,36.4413422 16.2952619,36.4410682 16.2959012,35.3926631 C16.2971796,33.3157599 16.2940749,31.2387652 16.2993712,29.1617707 C16.3017455,28.1922631 16.476434,28.0091734 17.3575472,28.0061602 C18.2803921,28.0031466 18.445401,28.1542754 18.4550806,29.1177562 Z M4.75192979,36.4471042 C5.59962117,36.4577883 5.81357581,36.6971289 5.80709233,37.6272791 C5.80133939,38.4434663 5.55241053,38.6776932 4.69704855,38.6718489 C3.85364905,38.666096 3.6203353,38.4054786 3.64270786,37.494231 C3.66288881,36.6708298 3.91108714,36.4365115 4.75192979,36.4471042 Z M10.0403533,37.5707177 C10.0372486,38.4405076 9.79270291,38.6787525 8.91113308,38.6708079 C8.08088317,38.6634113 7.82355317,38.3840741 7.83679407,37.5049698 C7.8491218,36.682847 8.09339353,36.4460633 8.93186194,36.4429584 C9.78813708,36.4398537 10.0434581,36.6996493 10.0403533,37.5707177 Z M26.9349805,12.2463051 C26.9407335,14.3791854 26.9593621,16.5126135 26.9214656,18.6448546 C26.9092293,19.3345684 27.118892,19.5897981 27.820203,19.545327 C28.6594933,19.4921808 29.5053583,19.5117225 30.3470228,19.5395741 C30.8550166,19.556285 31.0329926,19.3644289 31.0545433,18.8576222 C31.1147209,17.4444988 31.1341713,17.445138 32.5798946,17.443677 C33.8438981,17.4424898 35.1079016,17.4355498 36.3718137,17.4430377 C37.3176704,17.4486081 37.4909892,17.6137996 37.4952811,18.5440412 C37.5048693,20.6505309 37.5053259,22.7570208 37.4987511,24.8635106 C37.4961029,25.7102888 37.2649807,25.9581219 36.4282473,25.9818642 C35.5863089,26.0057891 34.7431834,25.9872518 33.9005144,25.9871605 C28.4761297,25.9862473 23.0516536,25.9861561 17.6271775,25.9836905 C16.4591477,25.9831426 16.3043662,25.8283611 16.2955999,24.6653537 C16.2898469,23.9018562 16.2835461,23.1379933 16.2955999,22.3745872 C16.3023573,21.9469519 16.1359785,21.7579266 15.6908104,21.7609401 C14.0056551,21.7724459 12.3202258,21.7702544 10.6350705,21.7553697 C10.1769355,21.7513518 10.0453484,21.9705115 10.04754,22.3853625 C10.0564889,24.0442186 10.0641595,25.7033487 10.0444352,27.3620223 C10.038043,27.9000593 10.2819495,28.0360296 10.768484,28.0210537 C11.5840319,27.9962156 12.4013149,28.0333814 13.2170455,28.0121046 C13.9392679,27.9932022 14.296133,28.2952772 14.2893756,29.0362196 C14.2758607,30.5107077 14.2757694,31.9854697 14.2820703,33.4600491 C14.2849923,34.116341 13.9832825,34.4253562 13.3229727,34.4240856 C10.4001131,34.4181422 7.47716217,34.4195119 4.55430255,34.4240856 C3.92805376,34.4248996 3.63876297,34.119811 3.63894561,33.5036071 C3.64049799,29.1586751 3.64068063,24.8138344 3.63830623,20.469085 C3.63830623,19.8034789 3.97654284,19.5361953 4.62342916,19.5245068 C5.2736942,19.5126357 5.79428976,19.6165539 5.8288074,20.4112817 C5.84241357,20.7266889 5.85830264,21.0423703 5.85848528,21.3579601 C5.86058556,24.6494646 5.85958108,27.9410605 5.85948976,31.2325649 L5.85948976,32.1971414 L5.85948976,32.1971414 C7.84124118,32.1971414 9.68227382,32.2114781 11.522302,32.174495 C11.7018303,32.1708423 11.9387966,31.8790859 12.0327614,31.6689666 C12.1216124,31.4704445 12.0383317,31.2013346 12.0636264,30.9666512 C12.1305615,30.3451508 11.8725009,30.1260824 11.2478958,30.1602348 C10.407875,30.2060758 9.56328837,30.1668096 8.72071072,30.1687273 C8.14112468,30.170097 7.83978011,29.9008959 7.83987143,29.3070644 C7.84041934,26.3579057 7.83676667,23.4087469 7.83631009,20.4595881 C7.83621877,19.8472195 8.14432076,19.5329993 8.76025077,19.5329993 C11.6832017,19.5327253 14.6060614,19.5387522 17.5289209,19.5298031 C18.2061243,19.5277942 18.4843658,19.8801847 18.4891143,20.505429 C18.4970588,21.556391 18.4913059,22.6074443 18.4913059,23.7267111 C18.7810533,23.7499054 19.0066051,23.7828707 19.2322482,23.7836012 C20.7331268,23.7884411 22.2354664,23.748627 23.7345186,23.8026864 C24.482675,23.8296248 24.7305994,23.6223362 24.7220157,22.8427671 C24.6833887,19.3147527 24.7123361,15.7859166 24.7044828,12.2574457 C24.7030218,11.596314 24.863191,11.1247554 25.6334459,11.0651258 C26.6098936,10.9895157 26.9323324,11.2568905 26.9349805,12.2463051 Z M44.9245203,23.77165 C45.6408985,23.7753371 45.9269933,24.0921142 45.9225187,24.7716005 C45.9152134,25.8750695 45.9205097,26.9785385 45.9212402,28.0820988 C45.9220621,29.1592687 45.9090039,30.2368038 45.9264453,31.3136997 C45.9385904,32.0652347 45.5557915,32.3308745 44.8521063,32.3409193 C44.1514345,32.3508728 43.7315611,32.0890683 43.728639,31.3512307 C43.7200552,29.1442927 43.7211511,26.937446 43.7193231,24.7305081 C43.7185942,23.9036369 44.2222962,23.7683057 44.9245203,23.77165 Z M37.4986598,29.0927446 C37.5079741,29.9489284 37.2984026,30.1621525 36.4371964,30.1724712 C35.5148081,30.1835205 35.2877039,29.9730359 35.2791201,29.099228 C35.2709017,28.2632251 35.5142602,28.0146615 36.3444187,28.0114654 C37.2649807,28.0078129 37.4890715,28.2178408 37.4986598,29.0927446 Z M32.2108572,28.0087259 C33.0542567,28.0175837 33.2732338,28.2638644 33.2572534,29.1857961 C33.2432819,29.9960477 33.0327973,30.1780416 32.1147922,30.1726539 C31.3093803,30.1679968 31.0525983,29.9272863 31.0490369,29.1735597 C31.0448363,28.2762834 31.3211602,27.9993204 32.2108572,28.0087259 Z M13.1817334,23.7839574 C14.0453139,23.789619 14.2947906,24.0484101 14.2828282,24.9261446 C14.2720528,25.7110103 13.9679688,25.9975615 13.1586304,25.9855077 C12.3146829,25.9728147 12.0488605,25.6889116 12.0628319,24.8151037 C12.0761641,23.9902415 12.3061905,23.7782044 13.1817334,23.7839574 Z M33.4920555,19.7201068 C33.3412007,19.7591903 33.3325256,20.3556699 33.2650427,20.6982895 C33.2500668,20.7742649 33.2532628,20.856815 33.2634903,20.9343428 C33.3521586,21.6095373 33.0252455,21.7878784 32.3940655,21.7719894 C30.9746414,21.7361933 29.5537561,21.7592964 28.1334187,21.7603921 L28.0603363,21.7604626 C26.8912204,21.7619456 26.9173802,21.7878602 26.9230181,23.0353536 C26.9257575,23.6208752 27.1288455,23.815836 27.7087055,23.7972987 C28.838565,23.7610461 29.9703421,23.7866147 31.1013887,23.7843318 C32.2849422,23.7843318 33.4686785,23.7750175 34.6521408,23.7893542 C35.06964,23.7943766 35.2889823,23.6712819 35.2806725,23.2106813 C35.2622266,22.2114959 35.2845077,21.2115798 35.2618613,20.2125769 C35.2576607,20.0303091 35.1336529,19.7039438 35.040784,19.6949035 C34.5245716,19.644862 33.9804163,19.5933595 33.4920555,19.7201068 Z M22.7039294,10.0704056 C22.7132437,11.8071548 22.7066689,13.5440866 22.7055731,15.280927 C22.7044772,17.0440667 22.7106868,18.8072063 22.7020117,20.570346 C22.6972633,21.5311785 22.450526,21.7764547 21.5618335,21.7610222 C20.7346883,21.7466855 20.5371707,21.5232339 20.5321483,20.5473342 C20.5143416,17.1003176 20.4953477,13.6533012 20.4923289,10.2062846 C20.4914211,9.19404084 20.72163,8.95780497 21.5831102,8.95414971 C22.4797473,8.95059096 22.6989983,9.15587053 22.7039294,10.0704056 Z M13.2635713,4.71395364 C14.0084403,4.7094676 14.2917042,5.09354494 14.2856773,5.80042623 C14.2735322,7.22222466 14.3333445,8.64657995 14.2653137,10.0651823 C14.2252258,10.9010025 14.5400851,11.0650983 15.3055916,11.0778827 C16.1321889,11.0916715 16.3700685,10.799276 16.3088864,10.0221722 C16.2512657,9.28944835 16.3016724,8.54868864 16.294641,7.81149026 C16.2877922,7.09511205 16.6656601,6.86143304 17.3423156,6.85257534 C18.0302031,6.84362631 18.4847768,7.02552885 18.4866944,7.79678829 C18.490347,9.29739289 18.4898905,10.7979975 18.4892513,12.2986935 C18.4889773,12.9843892 18.164621,13.297605 17.4587442,13.2720364 C16.6173536,13.2416279 15.7734976,13.2835422 14.9313765,13.2661008 C14.4608224,13.2563299 14.266866,13.4373192 14.2790112,13.9154527 C14.3003793,14.7574824 14.2913388,15.600608 14.2806548,16.4430943 C14.2696969,17.2969952 14.0626823,17.5025488 13.1895136,17.5082104 C11.7676238,17.517342 10.3457341,17.5106759 8.92384435,17.5098541 C7.52825376,17.5091235 6.13266317,17.5145112 4.7371639,17.5071145 C3.86856103,17.5023661 3.63579519,17.2832977 3.63542993,16.4511302 C3.63396886,13.6337411 3.63533861,10.8163521 3.65177558,7.99905442 C3.6574372,7.0357563 3.84774087,6.86143304 4.74328211,6.86435516 C5.63334437,6.86718598 5.8500385,7.06579944 5.8538738,7.99768467 C5.86264018,10.1566815 5.8748766,12.3164089 5.82830516,14.4745838 C5.81451637,15.1140735 6.0129472,15.2969805 6.62759878,15.2843788 C8.18052777,15.252418 9.73583097,15.2378987 11.2874816,15.2918667 C12.1232105,15.3209968 12.0660462,14.8298964 12.0627589,14.2817232 L12.062759,14.2206536 C12.065355,13.7052912 12.1215193,13.2055082 11.3060188,13.2551428 C10.4664546,13.30628 9.62141136,13.2631786 8.7788337,13.2710319 C8.16052944,13.2768761 7.84110421,12.9761708 7.83955183,12.3634368 C7.83379888,10.1254512 7.83096807,7.88737429 7.83891261,5.64938868 C7.84110421,5.05729228 8.1288426,4.71494659 8.76093565,4.71677293 C10.2618142,4.72115612 11.7626927,4.72343903 13.2635713,4.71395364 Z M17.4533748,15.2812466 C18.2308437,15.2922046 18.4973054,15.5855133 18.4898174,16.4227034 C18.4823295,17.2637286 18.200344,17.5271768 17.3252577,17.5104659 C16.5221288,17.495216 16.2753915,17.2260148 16.292285,16.3832545 C16.3092699,15.5355632 16.5898856,15.2691016 17.4533748,15.2812466 Z M31.173337,14.2472148 C31.1851168,15.0977369 30.8907123,15.4023689 30.0547095,15.4048658 C29.2238203,15.4072087 28.9497794,15.1422081 28.9511389,14.3373442 C28.9527928,13.4304797 29.1777967,13.1976225 30.0555313,13.1943351 C30.9013963,13.191139 31.162105,13.4367806 31.173337,14.2472148 Z M10.043659,7.58246839 C10.0624702,8.42331103 10.0918741,9.26853687 10.0297789,10.1054529 C9.97115367,10.8939712 10.2891179,11.1060082 11.0287818,11.0636373 C12.0535359,11.0048294 12.0560928,11.0444609 12.0596541,9.98719799 C12.0608412,9.64530889 12.0598368,9.3035111 12.0598368,8.96171332 L12.0541751,8.96171332 C12.0541751,8.48841972 12.0396558,8.01457823 12.058467,7.54210648 C12.0754519,7.11492773 11.9198485,6.8982336 11.4687448,6.92855069 C11.2069403,6.94608346 10.9416658,6.95074061 10.6805919,6.92955517 C10.1921396,6.89001512 10.0333402,7.11876303 10.043659,7.58246839 Z" id="Combined-Shape" fill="#0E7AAE" fill-rule="nonzero" mask="url(#mask-4)"></path>
            </g>
            <g id="Fill-40-Clipped">
                <mask id="mask-6" fill="white">
                    <use xlink:href="#path-5"></use>
                </mask>
                <g id="path-1"></g>
                <path d="M12.0598368,8.96171332 C12.0598368,9.3035111 12.0608412,9.64530889 12.0596541,9.98719799 C12.0560928,11.0444609 12.0535359,11.0048294 11.0287818,11.0636373 C10.2891179,11.1060082 9.97115367,10.8939712 10.0297789,10.1054529 C10.0918741,9.26853687 10.0624702,8.42331103 10.043659,7.58246839 C10.0333402,7.11876303 10.1921396,6.89001512 10.6805919,6.92955517 C10.9416658,6.95074061 11.2069403,6.94608346 11.4687448,6.92855069 C11.9198485,6.8982336 12.0754519,7.11492773 12.058467,7.54210648 C12.0396558,8.01457823 12.0541751,8.48841972 12.0541751,8.96171332 L12.0598368,8.96171332 Z" id="Fill-40" fill="#033A70" fill-rule="nonzero" mask="url(#mask-6)"></path>
            </g>
            <g id="Fill-38-Clipped">
                <mask id="mask-8" fill="white">
                    <use xlink:href="#path-7"></use>
                </mask>
                <g id="path-1"></g>
                <path d="M27.7087055,23.7972714 C27.1288455,23.8158086 26.9257575,23.6209391 26.9230181,23.0353262 C26.9172651,21.7623737 26.890144,21.7613693 28.1334187,21.7603648 C29.5537561,21.7593603 30.9746414,21.7361658 32.3940655,21.7719619 C33.0252455,21.787851 33.3521586,21.6095098 33.2634903,20.9343154 C33.2532628,20.856879 33.2500668,20.7742375 33.2650427,20.6982621 C33.3325256,20.3556425 33.3412007,19.759163 33.4920555,19.7200795 C33.9804163,19.5933321 34.5245716,19.6448346 35.040784,19.6949674 C35.1336529,19.7039164 35.2576607,20.0302817 35.2618613,20.2126408 C35.2845077,21.2115524 35.2622266,22.2115597 35.2806725,23.210654 C35.2889823,23.6712545 35.06964,23.7944405 34.6521408,23.7893268 C33.4686785,23.7750814 32.2849422,23.7843044 31.1013887,23.7854915 C29.9703421,23.7866786 28.838565,23.7610187 27.7087055,23.7972714 Z" id="Fill-38" fill="#033A70" fill-rule="nonzero" mask="url(#mask-8)"></path>
            </g>
        </g>
    </g>
</svg>