<?xml version="1.0" encoding="UTF-8"?>
<svg width="468px" height="169px" viewBox="0 0 468 169" version="1.1" xmlns="http://www.w3.org/2000/svg" xmlns:xlink="http://www.w3.org/1999/xlink">
    <title>adce-illustration</title>
    <g id="I.--Modules" stroke="none" stroke-width="1" fill="none" fill-rule="evenodd">
        <g id="Headers-and-Footers-/-Page-Footer---Homepage" transform="translate(-876.000000, -226.000000)">
            <g id="adce-illustration" transform="translate(876.000000, 226.000000)">
                <g id="light" transform="translate(46.000000, 8.000000)" stroke="#0E7AAE" stroke-linecap="round" stroke-linejoin="round">
                    <path d="M28.4467522,109.947829 C12.7362222,109.947829 2.84217094e-14,122.683724 2.84217094e-14,138.394581 C2.84217094e-14,146.935192 3.76383099,154.596516 9.72292975,159.810973 L47.1712299,159.810973 C53.1303287,154.596516 56.8938321,146.934864 56.8938321,138.394581 C56.8938321,122.683724 44.1579374,109.947829 28.4467522,109.947829 Z M28.4467522,153.659571 C25.3269888,153.659571 22.4837222,154.843529 20.3418537,156.78687 L20.3418537,159.810645 L28.4467522,153.659571 Z" id="Stroke-23"></path>
                    <line x1="20.3418537" y1="156.78687" x2="28.4467522" y2="156.78687" id="Stroke-24"></line>
                    <path d="M28.4467522,153.659571 C31.5668433,153.659571 34.4101098,154.843529 36.5519783,156.78687 L36.5519783,159.810645" id="Stroke-25"></path>
                    <path d="M199.598449,155.995053 C199.598449,154.930343 199.598449,153.973087 199.598449,152.795355 C192.820343,150.827116 190.877657,149.885257 179.411551,151.605173 C167.250928,153.428939 166.01914,100.540054 166.01914,100.540054 L157.730784,100.540054 C155.896207,94.2428685 154.402337,88.1904029 154.06163,83.504697 C153.242623,72.2023931 153.734027,63.1933103 153.734027,63.1933103 L152.253262,63.1933103 L152.253262,61.8013252 L154.798737,61.8013252 L156.764355,59.8357071 L141.039411,59.8357071 L143.005029,61.8013252 C143.005029,61.8013252 145.386703,61.8013252 145.389979,61.8013252 C145.389979,61.8013252 145.389979,63.1933103 145.386703,63.1933103 L129,63.1933103 C129,63.1933103 129.655206,86.2893226 136.534869,100.540054 C143.414532,114.790785 145.052548,136.08498 145.052548,159.836198 C148.449791,159.836198 157.278692,159.836198 162.74311,159.836198 L203.120181,159.836198 L203.120181,155.995053 L199.598449,155.995053 Z" id="Stroke-34"></path>
                    <path d="M162.946224,158.155595 L166.274671,155.995053 M163.988002,159.836198 L169.907788,155.995053 M167.621119,159.836198 L173.540905,155.995053 M171.254236,159.836198 L177.174023,155.995053 M174.887354,159.836198 L180.80714,155.995053 M178.520471,159.836198 L184.440257,155.995053 M182.153588,159.836198 L188.070099,155.995053 M185.786706,159.836198 L191.703216,155.995053 M189.419823,159.836198 L195.336334,155.995053 M193.052941,159.836198 L198.969451,155.995053 M196.686058,159.836198 L202.602568,155.995053 M200.315899,159.836198 L203.120181,158.016691" id="Stroke-35"></path>
                    <path d="M310.278323,83.3150149 L293.462133,83.3150149 C293.462133,83.3150149 291.601348,102.324835 291.601348,119.489922 C291.601348,136.655009 292.910122,159.836198 292.910122,159.836198 L310.830334,159.836198 C310.830334,159.836198 312.139108,136.655009 312.139108,119.489922 C312.139108,102.324835 310.278323,83.3150149 310.278323,83.3150149 Z" id="Stroke-39"></path>
                    <path d="M308.31336,100.079771 L309.278151,98.0741857 M308.31336,92.058084 L309.278151,94.063342 M308.31336,96.0689277 L309.278151,94.063342 M309.278151,90.0524984 L308.31336,88.0472404 M308.31336,92.058084 L309.278151,90.0524984 M310.412968,84.767279 L301.870064,84.767279 M308.043743,84.767279 L308.043743,83.3150149 M306.809007,84.767279 L306.809007,83.3150149 M305.574272,84.767279 L305.574272,83.3150149 M304.339536,84.767279 L304.339536,83.3150149 M303.1048,84.767279 L303.1048,83.3150149 M301.870064,84.767279 L301.870064,83.3150149" id="Stroke-41"></path>
                    <path d="M285.677303,83.3150149 L268.860785,83.3150149 C268.860785,83.3150149 267,102.324835 267,119.489922 C267,136.655009 268.309102,159.836198 268.309102,159.836198 L286.228986,159.836198 C286.228986,159.836198 287.538088,136.655009 287.538088,119.489922 C287.538088,102.324835 285.677303,83.3150149 285.677303,83.3150149 Z" id="Stroke-45"></path>
                    <path d="M283.71234,100.079771 L284.677131,98.0741857 M283.71234,92.058084 L284.677131,94.063342 M283.71234,96.0689277 L284.677131,94.063342 M284.677131,90.0524984 L283.71234,88.0472404 M283.71234,92.058084 L284.677131,90.0524984 M285.81162,84.767279 L277.269044,84.767279 M283.442395,84.767279 L283.442395,83.3150149 M282.207659,84.767279 L282.207659,83.3150149 M280.972924,84.767279 L280.972924,83.3150149 M279.738515,84.767279 L279.738515,83.3150149 M278.50378,84.767279 L278.50378,83.3150149 M277.269044,84.767279 L277.269044,83.3150149" id="Stroke-47"></path>
                    <path d="M256.385564,150.915569 L239.376416,150.915569 M241.918615,20.4424279 L241.918615,150.915569 M245.895716,15.3318209 L245.895716,150.915569 M249.86954,10.2212139 L249.86954,150.915569 M253.843365,5.11060697 L253.843365,150.915569 M253.843365,4.79610808 L257.820465,3.43983161 M253.843365,7.81005577 L257.820465,6.45345171 M253.843365,10.8240035 L257.820465,9.46772701 M253.843365,13.8376236 L257.820465,12.4816747 M253.843365,16.8518989 L257.820465,15.4956224 M253.843365,19.8658466 L257.820465,18.5095701 M253.843365,22.8797943 L257.820465,21.5231902 M253.843365,25.893742 L257.820465,24.5374655 M253.843365,28.9073621 L257.820465,27.5514132 M253.843365,31.9216374 L257.820465,30.5653609 M253.843365,34.9355851 L257.820465,33.5793086 M253.843365,37.9495328 L257.820465,36.5929287 M253.843365,40.9634805 L257.820465,39.607204 M253.843365,43.9771005 L257.820465,42.6211517 M253.843365,46.9913759 L257.820465,45.6350994 M253.843365,50.0053235 L257.820465,48.6490471 M253.843365,53.0192712 L257.820465,51.6626672 M253.843365,56.0332189 L257.820465,54.6769425 M253.843365,59.046839 L257.820465,57.6908902 M253.843365,62.0611143 L257.820465,60.7048379 M253.843365,65.075062 L257.820465,63.7187856 M253.843365,68.0890097 L257.820465,66.7324057 M253.843365,71.1026298 L257.820465,69.746681 M253.843365,74.1165775 L257.820465,72.7606287 M253.843365,77.1308528 L257.820465,75.7745764 M253.843365,80.1448005 L257.820465,78.7881965 M253.843365,83.1587482 L257.820465,81.8021442 M253.843365,86.1723683 L257.820465,84.8164195 M253.843365,89.186316 L257.820465,87.8303672 M253.843365,92.2005913 L257.820465,90.8443149 M253.843365,95.214539 L257.820465,93.857935 M253.843365,98.2284867 L257.820465,96.8718827 M253.843365,101.242107 L257.820465,99.886158 M253.843365,104.256055 L257.820465,102.900106 M253.843365,107.27033 L257.820465,105.914053 M253.843365,110.284278 L257.820465,108.927673 M253.843365,113.298225 L257.820465,111.941621 M253.843365,116.311845 L257.820465,114.955896 M253.843365,119.325793 L257.820465,117.969844 M253.843365,122.340068 L257.820465,120.983792 M253.843365,125.354016 L257.820465,123.997412 M253.843365,128.367964 L257.820465,127.01136 M253.843365,131.381584 L257.820465,130.025635 M253.843365,134.395531 L257.820465,133.039583 M253.843365,137.409807 L257.820465,136.05353 M253.843365,140.423754 L257.820465,139.06715 M253.843365,143.437702 L257.820465,142.081098 M253.843365,146.451322 L257.820465,145.095373 M253.843365,149.46527 L257.820465,148.109321 M246.275735,13.4068256 L249.86954,12.1802799 M245.895716,16.5505041 L249.86954,15.1942276 M245.895716,19.5641242 L249.86954,18.2081753 M245.895716,22.5783995 L249.86954,21.222123 M245.895716,25.5923472 L249.86954,24.2360707 M245.895716,28.6062949 L249.86954,27.2500184 M245.895716,31.6202426 L249.86954,30.2639661 M245.895716,34.6338627 L249.86954,33.2779138 M245.895716,37.648138 L249.86954,36.2918615 M245.895716,40.6620857 L249.86954,39.3058092" id="Stroke-61"></path>
                    <path d="M237.944791,109.681488 L241.918615,108.324884 L237.944791,109.681488 Z M237.944791,112.695108 L241.918615,111.339159 L237.944791,112.695108 Z M237.944791,115.709056 L241.918615,114.353107 L237.944791,115.709056 Z M237.944791,118.723331 L241.918615,117.367055 L237.944791,118.723331 Z M237.944791,121.737279 L241.918615,120.380675 L237.944791,121.737279 Z M237.944791,124.751226 L241.918615,123.394622 L237.944791,124.751226 Z M237.944791,127.764847 L241.918615,126.408898 L237.944791,127.764847 Z M237.944791,130.778794 L241.918615,129.422845 L237.944791,130.778794 Z M237.944791,133.79307 L241.918615,132.436793 L237.944791,133.79307 Z M237.944791,136.807017 L241.918615,135.450413 L237.944791,136.807017 Z M237.944791,139.820965 L241.918615,138.464361 L237.944791,139.820965 Z M237.944791,142.834585 L241.918615,141.478636 L237.944791,142.834585 Z M237.944791,145.848533 L241.918615,144.492584 L237.944791,145.848533 Z M237.944791,148.862808 L241.918615,147.506532 L237.944791,148.862808 Z M239.379692,150.915569 L256.385564,150.915569 L239.379692,150.915569 Z M239.379692,159.836198 L245.643461,159.836198 L245.643461,154.873996 L239.379692,154.873996 L239.379692,159.836198 Z M248.182385,159.836198 L250.148003,159.836198 L250.148003,152.416973 L248.182385,152.416973 L248.182385,159.836198 Z M250.148003,159.836198 L252.113621,159.836198 L252.113621,152.416973 L250.148003,152.416973 L250.148003,159.836198 Z M252.113621,159.836198 L254.079239,159.836198 L254.079239,152.416973 L252.113621,152.416973 L252.113621,159.836198 Z" id="Stroke-63"></path>
                    <path d="M257.820465,0 C253.843365,0.385588744 253.843365,5.11060697 253.843365,5.11060697 C249.86954,5.49619571 249.86954,10.2212139 249.86954,10.2212139 C245.895716,10.6068027 245.895716,15.3318209 245.895716,15.3318209 C241.918615,15.7174096 241.918615,20.4424279 241.918615,20.4424279 C237.944791,20.8280166 237.944791,25.5530348 237.944791,25.5530348 L237.944791,150.915569 L239.376416,150.915569 C239.379692,150.915569 239.379692,159.836198 239.379692,159.836198 L256.385564,159.836198 L256.385564,150.915569 L257.820465,150.915569 L257.820465,0 Z" id="Stroke-64"></path>
                    <path d="M228.338627,146.149928 L208.97434,146.149928 L228.338627,146.149928 Z M208.972047,146.149928 L228.341903,146.149928 L208.972047,146.149928 Z M208.972047,147.506532 L228.341903,147.506532 L208.972047,147.506532 Z M208.972047,148.862808 L228.341903,148.862808 L208.972047,148.862808 Z M210.408259,146.149928 L210.408259,58.0135791 L210.408259,146.149928 Z M213.707876,146.149928 L213.707876,55.6240428 L213.707876,146.149928 Z M217.006839,146.149928 L217.006839,53.2345064 L217.006839,146.149928 Z M220.305801,146.149928 L220.305801,50.8446425 L220.305801,146.149928 Z M223.604763,146.149928 L223.604763,48.4551061 L223.604763,146.149928 Z M226.907002,146.149928 L226.907002,46.0655697 L226.907002,146.149928 Z M208.972047,159.836198 L213.707876,159.836198 L213.707876,150.558154 L208.972047,150.558154 L208.972047,159.836198 Z M216.351633,159.836198 L218.720202,159.836198 L218.720202,152.615828 L216.351633,152.615828 L216.351633,159.836198 Z M218.720202,159.836198 L221.085496,159.836198 L221.085496,152.615828 L218.720202,152.615828 L218.720202,159.836198 Z M221.085496,159.836198 L223.454066,159.836198 L223.454066,152.615828 L221.085496,152.615828 L221.085496,159.836198 Z M223.454066,159.836198 L225.822636,159.836198 L225.822636,152.615828 L223.454066,152.615828 L223.454066,159.836198 Z" id="Stroke-66"></path>
                    <path d="M226.907002,46.0655697 C226.274728,48.4872112 223.604763,48.4551061 223.604763,48.4551061 C222.975766,50.8767476 220.305801,50.8446425 220.305801,50.8446425 C219.673527,53.2662839 217.006839,53.2345064 217.006839,53.2345064 C216.374565,55.6558203 213.707876,55.6240428 213.707876,55.6240428 C213.075603,58.0453566 210.408259,58.0135791 210.408259,58.0135791 C209.776313,60.4352206 207.108969,60.4034431 207.108969,60.4034431 L207.108969,146.149928 L208.97434,146.149928 C208.972047,146.149928 208.972047,159.836198 208.972047,159.836198 L228.341903,159.836198 L228.341903,146.149928 L230.205964,146.149928 L230.205964,43.6760334 C229.57369,46.0973472 226.907002,46.0655697 226.907002,46.0655697 Z" id="Stroke-67"></path>
                    <path d="M120.242729,84.479316 C122.110394,93.9083858 128.429201,129.748483 122.17657,155.14951 L110.838557,158.173286 L110.838557,90.44726 L114.905421,86.656238 M112.285252,89.098846 C111.549783,72.9119813 108.93977,58.3919606 107.848852,52.8842988 M110.838557,158.173286 L110.838557,159.836198 L124.875036,159.836198 L124.875036,130.508194 M120.57066,84.1736624 L122.897296,84.1736624 M120.608662,86.3656541 L123.322525,86.3656541 M121.00932,88.5579734 L123.727115,88.5579734 M121.387702,90.7496376 L124.109428,90.7496376 M121.749048,92.9416293 L124.471429,92.9416293 M122.090738,95.1339487 L124.81574,95.1339487 M122.41572,97.3256128 L125.14367,97.3256128 M122.723339,99.5179322 L125.450634,99.5179322 M123.010975,101.709924 L125.741546,101.709924 M123.28092,103.901588 L126.010835,103.901588 M123.526949,106.093907 L126.263417,106.093907 M123.759875,108.285899 L126.497654,108.285899 M123.971179,110.477891 L126.70863,110.477891 M124.162499,112.669883 L126.900933,112.669883 M124.332853,114.862202 L127.074235,114.862202 M124.481585,117.053866 L127.225587,117.053866 M124.608039,119.245858 L127.354335,119.245858 M124.710252,121.438177 L127.460806,121.438177 M124.792807,123.629841 L127.543035,123.629841 M124.843914,125.822161 L127.600693,125.822161 M124.876674,128.014152 L127.626246,128.014152 M124.877984,130.205817 L127.635091,130.205817 M124.876019,132.398136 L127.603641,132.398136 M124.877984,134.590128 L127.545,134.590128 M124.876674,136.782119 L127.455565,136.782119 M124.877984,138.974111 L127.328127,138.974111 M124.876346,141.166103 L127.164981,141.166103 M124.877984,143.358095 L126.958919,143.358095 M124.876019,145.550086 L126.70863,145.550086 M124.877329,147.742406 L126.411822,147.742406 M124.877984,149.93407 L126.064562,149.93407 M124.876346,152.126389 L125.655059,152.126389 M88.3816985,79.2016315 C86.3833201,89.2914766 79.6222492,127.64134 86.3125578,154.821252 L98.4446801,158.056659 M83.4250649,155.064005 L83.4250649,128.454451 M98.4446801,158.056659 L98.4446801,159.836198 L83.4250649,159.836198 M88.0308356,78.8743561 L85.5413804,78.8743561 M87.9905405,81.2199936 L85.0860122,81.2199936 M87.5613805,83.5653036 L84.6532486,83.5653036 M87.1567908,85.9109411 L84.2444,85.9109411 M86.7698916,88.2565787 L83.8568457,88.2565787 M86.4042867,90.6022162 L83.4882923,90.6022162 M86.0563723,92.9475262 L83.1374295,92.9475262 M85.7274589,95.2931637 L82.8091712,95.2931637 M85.419512,97.6384737 L82.4976208,97.6384737 M85.1308938,99.9841113 L82.2096577,99.9841113 M84.867501,102.330076 L81.9390576,102.330076 M84.6185227,104.675386 L81.6887689,104.675386 M84.392149,107.021024 L81.4630505,107.021024 M84.1873971,109.366334 L81.2573158,109.366334 M84.0052498,111.711971 L81.0718925,111.711971 M83.8460348,114.057281 L80.909729,114.057281 M83.7107347,116.403247 L80.7718081,116.403247 M83.6013153,118.748556 L80.6581299,118.748556 M83.5128625,121.094194 L80.5700047,121.094194 M83.4581528,123.439504 L80.5084153,123.439504 M83.4230993,125.785142 L80.4808966,125.785142 M83.4221165,128.130779 L80.4717238,128.130779 M83.4237545,130.476417 L80.5051393,130.476417" id="Stroke-72"></path>
                    <path d="M83.4221165,132.822054 L80.5680391,132.822054 M83.4230993,135.167364 L80.6636991,135.167364 M83.4221165,137.513002 L80.799982,137.513002 M83.4234269,139.858312 L80.974922,139.858312 M83.4221165,142.203949 L81.1950712,142.203949 M83.4240821,144.549587 L81.4630505,144.549587 M83.4227717,146.895224 L81.7804978,146.895224 M83.4221165,149.240534 L82.1523272,149.240534 M83.4237545,151.586172 L82.5903324,151.586172 M67.4878336,153.970467 L67.4878336,121.264875 M80.4776206,159.836198 L67.4878336,159.836198 M98.4446801,152.730817 L110.838557,152.730817 M98.4446801,155.905618 L110.838557,155.905618 M67.4878336,156.188994 L80.4727066,156.188994 L71.0370847,153.672675 C62.8139215,120.266014 71.1238995,73.1304925 73.5802668,60.7290805 M69.0767082,156.188994 L69.0767082,159.588858 M70.6957223,156.229945 L70.6957223,159.630136 M72.3144088,156.271223 L72.3144088,159.671087 M73.9330953,156.312501 L73.9330953,159.712365 M75.5521094,156.353778 L75.5521094,159.753643 M77.1707958,156.395056 L77.1707958,159.794921 M78.7898099,156.436334 L78.7898099,159.836198 M99.7852317,155.905618 L99.7852317,159.56953 M101.403918,155.949844 L101.403918,159.613756 M103.022605,155.994398 L103.022605,159.65831 M104.641619,156.038952 L104.641619,159.702864 M106.260305,156.083506 L106.260305,159.74709 M107.879319,156.127405 L107.879319,159.791644 M109.498006,156.171959 L109.498006,159.836198 M98.4446801,159.836198 L110.838557,159.836198 M98.4446801,158.056659 L98.4446801,85.5872693 M127.546311,134.5898 C127.301591,141.789859 126.524517,148.920139 124.935642,155.376211" id="Stroke-73"></path>
                    <path d="M85.9485909,76.9333082 C85.9485909,76.9333082 80.28499,102.419512 80.4776206,128.454123 L85.9485909,76.9333082 Z M80.4776206,128.454451 L80.4776206,159.836198 L83.4250649,159.836198 L80.4776206,128.454451 Z M122.516622,82.3597245 L120.242402,84.479316 L120.242729,84.479316 C119.942973,82.9657901 119.757549,82.1326956 119.757549,82.1326956 L114.905421,86.656238 C113.768311,67.1687729 110.122745,50.7643797 110.122745,50.7643797 C110.122745,50.7643797 107.848525,52.8842988 107.848852,52.8842988 C107.549095,51.3704453 107.364,50.5373508 107.364,50.5373508 L98.4446801,58.8522429 L98.4446801,85.5872693 L88.9006216,76.6905544 C88.9006216,76.6905544 88.7027494,77.5819622 88.3816985,79.2016315 L85.9485909,76.9333082 L85.9485909,68.5777934 L74.2184375,57.6427325 C74.2184375,57.6427325 73.9747009,58.7385646 73.5802668,60.7290805 C73.5805944,60.7290805 70.5899066,57.9411789 70.5899066,57.9411789 C70.5899066,57.9411789 57.9444303,115.200943 67.4878336,153.970467 L67.4878336,159.836198 L127.629194,159.836198 L127.629194,130.508194 L127.629522,130.508194 C127.809376,106.177774 122.516622,82.3597245 122.516622,82.3597245 Z" id="Stroke-74"></path>
                </g>
                <g id="crane" transform="translate(368.000000, 32.000000)">
                    <path d="M56.1337791,29.3695933 C56.1956553,29.3699826 56.2564982,29.3827533 56.3128193,29.4068088 L56.3934735,29.4512185 L69.0077299,38.0864777 C69.0842635,38.1326615 69.1479501,38.1998673 69.1898045,38.282472 C69.1903288,38.2834384 69.1908504,38.2844059 69.1913692,38.2853746 L69.2260903,38.362034 L69.2335034,38.3903031 L69.2299235,38.3733105 C69.2339127,38.3847836 69.2375542,38.396359 69.2408458,38.4080207 L69.2490989,38.4442248 C69.2504703,38.4505112 69.2517402,38.4568099 69.2529089,38.4631188 C69.2577099,38.4848788 69.2605877,38.5072485 69.2622236,38.5297286 C69.2623809,38.5421698 69.2628914,38.5542109 69.2630451,38.5662433 L69.2606909,38.635149 L69.2565034,38.6566568 L69.2535034,38.6806568 L69.2525034,38.6846568 L69.2498495,38.7040777 C69.2358412,38.7746294 69.2082839,38.8410678 69.1693589,38.9000557 C69.1507945,38.9303651 69.1293045,38.9579202 69.105297,38.9827627 C69.0195805,39.1327415 68.8702213,39.2428102 68.6937206,39.275731 L57.902868,46.6645933 L68.5828435,46.665161 C68.9147426,46.665161 69.1838001,46.9342184 69.1838001,47.2661176 C69.1838001,47.5980167 68.9147426,47.8670742 68.5828435,47.8670742 L58.028868,47.8665933 L69.009019,55.3830461 C69.0603113,55.4141263 69.1057901,55.4546911 69.1427236,55.503033 L69.18916,55.5773108 C69.2173166,55.627561 69.2376856,55.6823186 69.2490989,55.7397925 C69.250326,55.7454172 69.2514717,55.7510518 69.2525365,55.7566946 C69.257724,55.7802602 69.2607278,55.803719 69.2623658,55.8272957 C69.262409,55.8384064 69.2628957,55.8501129 69.2630451,55.861811 L69.2606387,55.9310931 L69.2535034,55.9766568 L69.2575034,55.9436568 L69.2498495,55.9996454 C69.2358412,56.0701971 69.2082839,56.1366356 69.1693589,56.1956234 C69.1290496,56.2612052 69.0744863,56.3150735 69.0108273,56.3542973 L57.967868,63.9155933 L68.5828435,63.9165463 C68.9147426,63.9165463 69.1838001,64.1856037 69.1838001,64.5175028 C69.1838001,64.849402 68.9147426,65.1184594 68.5828435,65.1184594 L57.964868,65.1175933 L68.8102978,72.5414694 C68.8893271,72.5738087 68.9599339,72.6224954 69.0179139,72.6833251 C69.0891048,72.7292278 69.1495357,72.7942927 69.1898045,72.8736075 L69.2255736,72.9514612 L69.230245,72.9654811 L69.2403094,72.9974219 L69.2490989,73.0353603 L69.2529196,73.0542218 C69.2576393,73.0758607 69.2605322,73.0983093 69.2621759,73.1208692 C69.2624251,73.1331416 69.2629391,73.1451632 69.2630956,73.1571761 L69.2606757,73.2262593 L69.2535034,73.2716568 L69.2574933,73.2476533 L69.2505034,73.2876568 L69.2498495,73.2952131 C69.235168,73.3693681 69.2054992,73.4389796 69.1633817,73.5001634 C69.1233751,73.5625214 69.0700717,73.6138933 69.0082891,73.6514884 L58.028868,81.1675933 L68.5828435,81.1679315 C68.9147426,81.1679315 69.1838001,81.4369889 69.1838001,81.7688881 C69.1838001,82.1007872 68.9147426,82.3698447 68.5828435,82.3698447 L57.900868,82.3695933 L69.0084901,89.97431 C69.0598558,90.0053824 69.1054306,90.0459186 69.1424993,90.0942243 L69.1898045,90.1691752 C69.1903289,90.1701395 69.1908506,90.171105 69.1913695,90.1720716 L69.2260922,90.2487426 L69.2385034,90.2953031 L69.2299303,90.2598325 C69.2340612,90.2716891 69.2378195,90.2836556 69.2412024,90.2957143 L69.2490989,90.330928 C69.2503294,90.3365429 69.2514783,90.3421678 69.2525461,90.347801 C69.2577349,90.3710154 69.2607387,90.3944343 69.2623764,90.4179714 C69.2624565,90.4294209 69.2629471,90.441152 69.2630973,90.4528748 L69.2606505,90.5216513 L69.2585034,90.5366568 L69.2575111,90.5430916 L69.2535034,90.5676568 L69.2565034,90.5426568 L69.2498495,90.590032 C69.2347326,90.6668141 69.203571,90.7387504 69.1591693,90.8015408 C69.1506524,90.8151789 69.1415956,90.8274392 69.1320184,90.839205 C69.0483755,91.0315564 68.8655849,91.1711546 68.6479951,91.194612 L58.096868,98.4185933 L68.5828435,98.4193168 C68.9147426,98.4193168 69.1838001,98.6883742 69.1838001,99.0202733 C69.1838001,99.3521725 68.9147426,99.6212299 68.5828435,99.6212299 L57.833868,99.6205933 L69.008694,107.269332 C69.0600724,107.300499 69.1056277,107.341155 69.1426298,107.389594 L69.1892567,107.463956 L69.2254767,107.542512 L69.2335034,107.571657 L69.2302863,107.556425 C69.2339392,107.56697 69.2372975,107.577601 69.2403595,107.588306 L69.2490989,107.626496 C69.2504733,107.632782 69.2517461,107.639081 69.2529174,107.64539 C69.2577,107.666609 69.2605927,107.68902 69.2622343,107.711543 C69.2624164,107.724442 69.2629298,107.736484 69.2630858,107.748517 L69.2607012,107.816853 L69.2565034,107.838657 L69.2498495,107.8856 C69.235932,107.95629 69.2084148,108.022873 69.1694865,108.081992 C69.1431777,108.124991 69.1110583,108.162519 69.0743347,108.194372 C68.9937084,108.308608 68.8747711,108.393257 68.7362843,108.429722 L58.159868,115.670593 L68.5828435,115.670702 C68.9147426,115.670702 69.1838001,115.939759 69.1838001,116.271659 C69.1838001,116.603558 68.9147426,116.872615 68.5828435,116.872615 L57.771868,116.872593 L69.0239304,124.576841 C69.0289727,124.580371 69.0339476,124.583979 69.0388537,124.587664 C69.0800055,124.616914 69.1165249,124.652818 69.1468667,124.694222 L69.1855034,124.756657 L69.1607398,124.71409 C69.2039535,124.776259 69.2342951,124.847198 69.2490989,124.922812 C69.2515788,124.934128 69.2537271,124.945484 69.2555458,124.956867 C69.2553771,124.96416 69.2563891,124.971488 69.257267,124.978833 C69.2620919,125.007087 69.2635317,125.03529 69.2630114,125.063398 L69.2595034,125.098657 L69.2585034,125.106657 L69.2576235,125.121765 L69.2555034,125.133657 L69.2507409,125.1739 L69.2276615,125.254637 L69.2165034,125.279303 L69.2255034,125.259657 L69.2139675,125.2903 C69.2090015,125.302006 69.2036384,125.313524 69.1978906,125.324835 L69.189054,125.342171 C69.1718343,125.376384 69.1508679,125.407967 69.1267918,125.436519 C69.0422739,125.619261 68.8671647,125.752202 68.6588308,125.778489 L58.221868,132.921593 L68.5828435,132.922087 C68.9147426,132.922087 69.1838001,133.191145 69.1838001,133.523044 C69.1838001,133.854943 68.9147426,134.124 68.5828435,134.124 L56.465868,134.123593 L56.3934735,134.174174 C56.3433329,134.209311 56.2868089,134.233682 56.2274655,134.246155 L56.1367813,134.255799 C55.9555399,134.254076 55.7904449,134.151488 55.708961,133.989955 C55.6389215,133.861141 55.6178652,133.711422 55.6496666,133.56835 L55.6436508,133.602775 C55.6401929,133.576689 55.6384082,133.550075 55.6384082,133.523044 C55.6384082,133.191145 55.9074656,132.922087 56.2393648,132.922087 L56.315868,132.921593 L66.741868,125.782593 L56.2393648,125.783247 C55.9074656,125.783247 55.6384082,125.51419 55.6384082,125.182291 C55.6384082,124.850392 55.9074656,124.581334 56.2393648,124.581334 L67.120868,124.580593 L55.8748352,116.878606 L55.8485571,116.859035 C55.810781,116.830727 55.7772024,116.796473 55.7490998,116.757347 L55.7385034,116.740657 L55.7073528,116.692115 C55.6803917,116.64312 55.6608052,116.589912 55.6496666,116.534132 C55.6334943,116.4617 55.6309415,116.387547 55.6414993,116.315285 C55.6389369,116.300961 55.6384082,116.286372 55.6384082,116.271659 C55.6384082,115.939759 55.9074656,115.670702 56.2393648,115.670702 L56.252868,115.670593 L66.798868,108.448593 L56.2393648,108.449488 C55.9074656,108.449488 55.6384082,108.180431 55.6384082,107.848531 C55.6384082,107.516632 55.9074656,107.247575 56.2393648,107.247575 L67.064868,107.246593 L55.8740847,99.5837871 L55.8303914,99.5496388 C55.8253108,99.5454576 55.820204,99.5409318 55.8151909,99.5362962 C55.7303955,99.456998 55.6719355,99.3531858 55.6489161,99.2385647 C55.6348793,99.173935 55.6315184,99.1080059 55.6384789,99.0432667 L55.6384082,99.0202733 C55.6384082,98.7068511 55.8783426,98.4494684 56.184554,98.4217827 L66.735868,91.1975933 L56.2393648,91.1981027 C55.9074656,91.1981027 55.6384082,90.9290453 55.6384082,90.5971461 C55.6384082,90.265247 55.9074656,89.9961896 56.2393648,89.9961896 L67.130868,89.9955933 L55.8740847,82.2874706 C55.8670002,82.2825147 55.8600487,82.2774048 55.853234,82.2721466 C55.8410528,82.2633082 55.8293974,82.2536683 55.8181983,82.243486 L55.8084289,82.2335831 C55.7270419,82.1555771 55.6709914,82.0540505 55.6489161,81.9422482 C55.6367161,81.8865747 55.6325218,81.8299173 55.6361013,81.7738996 C55.6384153,81.7723081 55.6384082,81.7705989 55.6384082,81.7688881 C55.6384082,81.4855247 55.8345274,81.2479675 56.0984339,81.1845481 L67.031868,73.6985933 L56.2393648,73.6988463 C55.9074656,73.6988463 55.6384082,73.4297889 55.6384082,73.0978897 C55.6384082,72.7659906 55.9074656,72.4969331 56.2393648,72.4969331 L66.832868,72.4965933 L55.93234,65.0342198 C55.8998976,65.0149015 55.8694288,64.9926146 55.8413081,64.967734 L55.8113222,64.941544 C55.7290877,64.8632376 55.671649,64.760631 55.6489161,64.6474293 C55.6178191,64.5042495 55.6391189,64.354693 55.708961,64.2258236 C55.745914,64.1530606 55.7997889,64.0922493 55.8644531,64.0472274 C55.8920711,64.0257376 55.9215931,64.0061025 55.9527839,63.9891488 L66.967868,56.4465933 L56.2393648,56.447461 C55.9074656,56.447461 55.6384082,56.1784036 55.6384082,55.8465045 C55.6384082,55.5146053 55.9074656,55.2455479 56.2393648,55.2455479 L66.897868,55.2445933 L56.0944506,47.8494859 C55.8325564,47.7846435 55.6384082,47.5480534 55.6384082,47.2661176 L55.6357039,47.2437434 C55.6351871,47.2303483 55.6351146,47.2169553 55.6354832,47.2035862 L55.6385034,47.1676568 L55.6485034,47.1013031 L55.6415034,47.1396568 L55.6469898,47.101487 C55.6588367,47.0420897 55.6795891,46.9843352 55.708961,46.9302559 C55.7531714,46.8432026 55.821603,46.7732566 55.9037541,46.7269896 L66.772868,39.2855933 L56.2393648,39.2859385 C55.9074656,39.2859385 55.6384082,39.016881 55.6384082,38.6849819 C55.6384082,38.3530827 55.9074656,38.0840253 56.2393648,38.0840253 L67.093868,38.0835933 L55.8740847,30.4015162 C55.7808411,30.335837 55.7106192,30.2436305 55.6719083,30.1379124 L55.6489161,30.0562938 C55.6177347,29.9133619 55.6390432,29.7640103 55.708961,29.635437 C55.7904641,29.47532 55.9538211,29.373094 56.1337791,29.3695933 Z M6.44732731,64.1829113 C6.61313689,64.1829113 6.7475521,64.3170209 6.7475521,64.4824535 L6.7475521,64.4824535 L6.7475521,65.4215184 C6.75695398,65.5968209 6.62294433,65.7469047 6.44732731,65.7577545 C5.88740808,65.7577545 5.43106641,66.2677251 5.43106641,66.8937684 C5.43106641,67.5198116 5.88740808,68.0297822 6.44732731,68.0297822 C7.00724654,68.0297822 7.46283766,67.5198116 7.46283766,66.8937684 C7.46283766,66.7283358 7.59725287,66.5942261 7.76306245,66.5942261 C7.92887202,66.5942261 8.06328723,66.7283358 8.06328723,66.8937684 C8.06328723,67.8912439 7.33674325,68.7030034 6.44507563,68.7030034 C5.55265745,68.7030034 4.82986627,67.8912439 4.82986627,66.8937684 C4.82986627,66.0116165 5.39654056,65.2747427 6.14710253,65.1167341 L6.14710253,65.1167341 L6.14710253,64.4824535 C6.14710253,64.3170209 6.28151774,64.1829113 6.44732731,64.1829113 Z M5.23432961,30.9199096 C5.29981812,30.8790526 5.38293038,30.8790526 5.4484189,30.9199096 C5.51390741,30.9607666 5.55029489,31.0353202 5.54214958,31.1119526 L5.54214958,31.1119526 L5.54214958,57.1968379 C5.54855977,57.3139388 5.45906853,57.4142622 5.34174953,57.4214945 C5.22413151,57.4146564 5.13419848,57.314214 5.14059893,57.1968379 L5.14059893,57.1968379 L5.14059893,31.1119526 C5.13245362,31.0353202 5.1688411,30.9607666 5.23432961,30.9199096 Z M7.44173236,30.9199096 C7.50722087,30.8790526 7.59033313,30.8790526 7.65582165,30.9199096 C7.72131016,30.9607666 7.75769764,31.0353202 7.74955233,31.1119526 L7.74955233,31.1119526 L7.74955233,57.1968379 C7.75595277,57.314214 7.66601974,57.4146564 7.54840172,57.4214945 C7.43108272,57.4142622 7.34159149,57.3139388 7.34800168,57.1968379 L7.34800168,57.1968379 L7.34800168,31.1119526 C7.33985637,31.0353202 7.37624385,30.9607666 7.44173236,30.9199096 Z M73.6969292,20.0146595 C73.7866476,20.0157327 73.8728223,20.0454256 73.9434338,20.0981913 L74.0084124,20.1584425 L74.0500326,20.2041502 C74.1283953,20.2627077 74.1933872,20.3357725 74.2421197,20.4183597 L81.4209624,28.3913604 C81.4847399,28.4642934 81.5268129,28.5527935 81.5434879,28.6469283 L81.5515602,28.7425736 L81.5515602,29.4524887 C81.5561678,29.6451053 81.4496546,29.8232914 81.2776051,29.9107883 C81.2245822,29.9349027 81.1670002,29.9474822 81.1087286,29.9474822 C81.0119027,29.9465718 80.9191659,29.9123207 80.8455935,29.8517288 L80.7942432,29.8014554 L74.3425034,22.5326568 L74.3433311,28.7425736 C74.3433311,29.1027051 74.1037567,29.4021854 73.794033,29.4536601 L73.6991809,29.461475 C73.3771215,29.461475 73.1090282,29.1947338 73.0629457,28.8486062 L73.0559493,28.7425736 L73.0559493,22.4237305 L65.912851,29.6292186 C65.8004421,29.7468738 65.6449413,29.8139061 65.4820284,29.8149348 C65.3521224,29.8143984 65.2267639,29.7721431 65.1238773,29.6957711 L65.0512059,29.632214 L57.3515034,21.8866568 L49.6796967,29.6299675 C49.5893112,29.7233573 49.4719064,29.7846802 49.3452876,29.8062916 L49.2488742,29.8149348 C49.1192046,29.8141034 48.9941303,29.7718162 48.8913913,29.6956104 L48.8188021,29.632214 L41.1185034,21.8856568 L33.4465425,29.6299675 C33.3563416,29.7232664 33.2391505,29.7845695 33.1127345,29.8062361 L33.0164705,29.8149348 C32.8865923,29.8142636 32.7612795,29.7719984 32.6583601,29.6957004 L32.5856479,29.632214 L24.8855034,21.8856568 L17.2148893,29.6292186 C17.1245774,29.7231469 17.0069198,29.7847907 16.8799796,29.8063772 L16.7833162,29.8149348 C16.6532835,29.8141064 16.5279644,29.7712279 16.4255122,29.6941068 L16.3532442,29.6299675 L8.65550337,21.8866568 L8.6539795,21.8890477 L2.35301177,28.2468313 L0.981735055,29.6352094 C0.869848938,29.7501163 0.716721834,29.8158625 0.556166419,29.8179357 L0.480406536,29.813022 L0.406054025,29.7977111 L0.406054025,28.6519621 L0.00450337181,28.2468313 L0.406054025,28.2468313 L0.406054025,27.983983 L0.551663047,28.1292609 L7.02225778,21.5947474 L7.9422721,20.6691232 C7.96610074,20.5562019 8.01530706,20.4471929 8.09030746,20.3508984 C8.20480058,20.202662 8.38086345,20.1146928 8.56841544,20.1120134 C8.69858525,20.1130215 8.82402716,20.1559025 8.92674325,20.2329292 L8.99923801,20.2969808 L16.7825656,28.1270144 L24.176813,20.6624822 C24.2012785,20.5527507 24.2497834,20.4469367 24.3227112,20.3531449 C24.4373671,20.2047043 24.613753,20.1167118 24.8015697,20.11426 L24.8117186,20.1144101 L24.9013614,20.0922251 L24.9982169,20.0835569 C25.1850635,20.086001 25.3605697,20.1734168 25.4748238,20.3209441 C25.5631538,20.431874 25.6184267,20.5642807 25.6358364,20.7031497 L33.0157199,28.1292609 L40.4099862,20.6629058 C40.4345028,20.5527211 40.4832521,20.4464825 40.556616,20.3523961 C40.6712606,20.2044412 40.8473002,20.1167593 41.034724,20.11426 L41.0448729,20.1144101 L41.1339929,20.092098 L41.2306206,20.0835569 C41.4179644,20.0863844 41.5938692,20.1739991 41.7087286,20.321693 C41.7977441,20.4358415 41.8505308,20.5678885 41.8677606,20.7031738 L49.2481236,28.1292609 L56.6418393,20.6652934 C56.6662411,20.5545007 56.7151713,20.4476621 56.7890197,20.3531449 C56.903368,20.2047333 57.0795218,20.1167187 57.2671277,20.11426 L57.2843683,20.1146166 L57.3669861,20.0942487 L57.4637749,20.0858035 C57.650934,20.0885299 57.8266508,20.1761885 57.9411323,20.3239396 C58.0297827,20.4372364 58.0826026,20.5682824 58.1002535,20.7026419 L65.4842801,28.1285121 L73.2676077,20.2715197 C73.2946456,20.2433992 73.3241344,20.2181723 73.3555895,20.1960477 C73.3997029,20.1371701 73.4578765,20.0877468 73.5265516,20.0528539 C73.5797412,20.027497 73.6379801,20.0144422 73.6969292,20.0146595 Z M64.4897563,5.14930305 C64.604514,5.15737839 64.7099152,5.21536749 64.7780013,5.30788812 C64.9125652,5.48356047 64.917186,5.72193652 64.798747,5.90091045 L64.7404732,5.9736207 L62.9145034,7.77330305 L65.5225588,10.4270646 C65.5861216,10.4931351 65.6295452,10.5751011 65.6488263,10.6634464 L65.6599116,10.7535657 C65.6661321,10.8764297 65.6271635,10.9973305 65.5503296,11.0935461 C65.4744261,11.1873378 65.3604162,11.2422899 65.2395969,11.2433231 C65.1592115,11.2437581 65.0812534,11.2198632 65.0155871,11.1757282 L64.9543834,11.124998 L62.2765034,8.40130305 L59.5165619,11.1242492 C59.4614828,11.1806788 59.3911746,11.2188969 59.3150574,11.2348863 L59.2373528,11.2433172 C59.1132054,11.2420658 58.9964811,11.1841123 58.9206157,11.0860575 C58.8452568,10.9884501 58.8081632,10.8667723 58.8162876,10.7438305 C58.8205129,10.652458 58.8499838,10.5646651 58.9006131,10.4897939 L58.9581438,10.4195761 L61.6495034,7.76330305 L59.8903418,5.9736207 C59.8266504,5.90740792 59.7831873,5.82523847 59.7639723,5.73669039 L59.7529889,5.64637083 C59.7462054,5.52355694 59.7849427,5.40254505 59.8618204,5.30639041 C59.9372357,5.21059609 60.0519776,5.15390597 60.1740542,5.15212617 C60.2547268,5.15278678 60.3326192,5.17787346 60.3978597,5.22312421 L60.4585172,5.27493848 L62.2865034,7.13430305 L64.1820551,5.26595221 C64.2423759,5.20439977 64.3207463,5.16501846 64.4045748,5.15258162 L64.4897563,5.14930305 Z" id="Combined-Shape" fill="#0857A4" fill-rule="nonzero"></path>
                    <path d="M57.0539681,135.399463 C57.0539681,135.906011 56.6433296,136.316649 56.1367813,136.316649 C55.6302331,136.316649 55.2195946,135.906011 55.2195946,135.399463 L55.219,29.947 L0.471153847,29.9474822 L0.471153847,28.6519621 L2.87860903e-14,28.2468313 L98.822,28.246 L64.348,1.364 L67.166,20.013 L73.7494685,20.0131645 C73.908564,20.0139533 74.0511899,20.1111928 74.1097383,20.2587891 C74.1137582,20.2650833 74.1160847,20.2723048 74.1164933,20.2797571 C74.1314998,20.3194865 74.139036,20.3616103 74.139036,20.4040671 L74.139036,21.2068403 C74.1402026,21.308243 74.1001192,21.4057916 74.027927,21.4771771 C73.9555206,21.5523816 73.8554885,21.5948459 73.7509696,21.5947476 L0.401550653,21.5947476 L0.401550653,20.0131645 L10.2001372,20.0131645 L60.5628453,0.554153105 L60.564,0.553 L60.5808588,0.466537006 C60.6124162,0.237159309 60.7856901,0.0567173537 61.0069519,0.0107620749 L61.0919915,5.47026811e-14 L63.7009449,5.47026811e-14 C63.9284485,5.47026811e-14 64.1251143,0.161530915 64.1955292,0.395182064 L64.2158304,0.48600725 L64.254,0.747 L99.523,28.246 L99.545561,28.2468313 C99.6663147,28.2470297 99.7820298,28.2880099 99.8672504,28.3607566 C99.952471,28.4335034 100,28.5320576 100,28.6347384 L100,29.5588262 C100.001804,29.7346319 99.8627782,29.8889643 99.662689,29.9332539 C99.6244958,29.9433137 99.5846569,29.9481171 99.5446804,29.9474822 L69.682,29.947 L69.6821732,135.399463 C69.6821732,135.906011 69.2715347,136.316649 68.7649865,136.316649 C68.2584382,136.316649 67.8477997,135.906011 67.8477997,135.399463 L67.847,29.947 L57.053,29.947 L57.0539681,135.399463 Z M8.53013678,56.5333519 C8.80235358,56.5369917 9.05689492,56.6685527 9.21690098,56.8883094 C9.36534285,57.0888868 9.43992614,57.3329402 9.43053967,57.579667 L9.41880215,57.7030642 L8.53839296,63.7006483 C8.47234351,64.1482143 8.15276047,64.4837744 7.75886225,64.536593 L7.64972759,64.5438596 L5.34700347,64.5401154 C4.94795469,64.5401154 4.59936035,64.2494034 4.48622008,63.832947 L4.46134034,63.7163743 L3.47435135,57.719539 C3.4254389,57.4302635 3.49493067,57.1335042 3.66724578,56.8957979 C3.80416668,56.7039854 4.0125038,56.5777113 4.24262044,56.5429728 L4.35926392,56.5333519 L8.53013678,56.5333519 Z M9.22124281,30.497891 C9.83980173,30.497891 10.3412428,30.9993321 10.3412428,31.617891 L10.3412428,31.9666847 C10.3412428,32.5852436 9.83980173,33.0866847 9.22124281,33.0866847 L3.50228369,33.0866847 C2.88372477,33.0866847 2.38228369,32.5852436 2.38228369,31.9666847 L2.38228369,31.617891 C2.38228369,30.9993321 2.88372477,30.497891 3.50228369,30.497891 L9.22124281,30.497891 Z M60.5137632,0.839407348 C56.9113695,2.30507799 40.551719,8.69633038 11.4348116,20.0131645 L57.019,20.013 L60.5137632,0.839407348 Z M63.2596144,1.17046122 L61.5190612,1.17046122 L58.087,20.013 L66.106,20.013 L63.2596144,1.17046122 Z" id="Combined-Shape" fill="#0E7AAE"></path>
                </g>
                <g id="Group-10" transform="translate(368.000000, 136.999931)">
                    <path d="M9.94327809,10.6479223 C10.0532008,10.6479223 10.1525431,10.6930402 10.2245052,10.7655292 C10.2855849,10.827056 10.3270029,10.9082138 10.3391122,10.9987205 L10.3427836,11.0540641 L10.3427836,19.7604033 L28.0002419,19.7604033 L32.353847,14.597626 L35.3276799,14.597626 L32.5774063,24.217387 L27.6426438,24.217387 C29.2684595,24.578345 30.5080327,26.0367735 30.5080327,27.7887096 C30.5080327,28.7948441 30.1017687,29.7072533 29.4457208,30.3681037 C28.7910079,31.0276093 27.8872493,31.4366547 26.8902825,31.4366547 C26.0394011,31.4366547 25.2570043,31.1384165 24.6395657,30.6406367 C23.9465315,30.0819114 23.4607158,29.272223 23.3183892,28.3496373 L23.297872,28.1948514 L18.8234006,28.1948514 C18.7138968,29.1814831 18.213243,30.0508711 17.4817069,30.6406367 C16.8642683,31.1384165 16.0818715,31.4366547 15.2309901,31.4366547 C14.2341411,31.4366547 13.3303558,31.0275641 12.6755985,30.3680137 C12.0195596,29.7071724 11.6132399,28.7948025 11.6132399,27.7887096 C11.6132399,26.0804604 12.7917874,24.6512653 14.3591092,24.2464904 L14.4804259,24.217387 L5.9239704,24.217387 C7.54846829,24.5784428 8.78896071,26.0367948 8.78896071,27.7887096 C8.78896071,28.7948025 8.38264101,29.7071724 7.72660211,30.3680137 C7.07184477,31.0275641 6.16805951,31.4366547 5.1712105,31.4366547 C4.17424377,31.4366547 3.27048509,31.0276093 2.61577224,30.3681037 C1.95972432,29.7072533 1.5534603,28.7948441 1.5534603,27.7887096 C1.5534603,26.0804604 2.73200782,24.6512653 4.2993296,24.2464904 L4.42064631,24.217387 L1.21684903,24.217387 C0.881767554,24.217387 0.578294025,24.079542 0.358372378,23.8579638 C0.159143558,23.6572344 0.0282449877,23.3877314 0.00405756197,23.0883866 L0,22.9875532 L0,15.7142249 C0,15.5053914 0.0311546022,15.3001902 0.0935550962,15.1021057 L0.13474563,14.984137 L1.36260768,11.7765813 C1.49183334,11.4388156 1.72091256,11.1568152 2.00712332,10.9589806 C2.26075068,10.7836683 2.55956696,10.6742479 2.8745151,10.6520966 L2.99332009,10.6479223 L9.94327809,10.6479223 Z M26.7127367,25.0677649 C25.9439214,25.0677649 25.4931566,25.3757295 24.9881328,25.8807532 C24.4831091,26.3857769 24.1705515,27.083089 24.1705515,27.8519043 C24.1705515,28.6205529 24.4831314,29.3179197 24.988221,29.8230093 C25.4932412,30.3280295 26.1905208,30.6406367 26.9592839,30.6406367 C27.728047,30.6406367 28.4253266,30.3280295 28.9303468,29.8230093 C29.4354364,29.3179197 29.7480163,28.6205529 29.7480163,27.8519043 C29.7480163,27.083089 29.4354587,26.3857769 28.930435,25.8807532 C28.4254113,25.3757295 27.7280992,25.0631719 26.9592839,25.0631719 L26.7127367,25.0677649 Z M14.9577465,25.0631719 C14.1887646,25.0631719 13.7125723,25.3757072 13.2076145,25.880665 C12.7025872,26.3856923 12.3900792,27.0830369 12.3900792,27.8519043 C12.3900792,28.620605 12.7026095,29.3180043 13.2077026,29.8230974 C13.7126569,30.3280517 14.4098819,30.6406367 15.1788116,30.6406367 C15.9477414,30.6406367 16.6449663,30.3280517 17.1499206,29.8230974 C17.6550138,29.3180043 17.967544,28.620605 17.967544,27.8519043 C17.967544,27.0830369 17.6550361,26.3856923 17.1500088,25.880665 C16.6450509,25.3757072 15.9477935,25.0631719 15.1788116,25.0631719 L14.9577465,25.0631719 Z M5.04992676,25.0631719 C4.2809449,25.0631719 3.7049712,25.3757072 3.20001335,25.880665 C2.69498607,26.3856923 2.38247811,27.0830369 2.38247811,27.8519043 C2.38247811,28.620605 2.69500834,29.3180043 3.20010152,29.8230974 C3.70505581,30.3280517 4.40228077,30.6406367 5.1712105,30.6406367 C5.93980702,30.6406367 6.63714131,30.3280072 7.14222736,29.8229211 C7.64731342,29.3178351 7.9599429,28.6205008 7.9599429,27.8519043 C7.9599429,27.0831411 7.64733571,26.3858615 7.14231554,25.8808414 C6.63722592,25.3757517 5.93985912,25.0631719 5.1712105,25.0631719 L5.04992676,25.0631719 Z M15.1119469,24.3380632 L15.2455644,24.3509245 C17.019446,24.5486022 18.4779823,25.7882987 18.6709143,27.3803167 L23.4139317,27.3803167 L23.4306112,27.2616874 C23.8309859,25.2435383 25.30896,24.3380632 26.9592839,24.3380632 L15.1119469,24.3380632 Z M34.1346849,15.2113026 L32.5907503,15.2113026 L28.2227408,20.4609622 L10.1408451,20.4609622 L10.1408451,23.3239787 L31.8457444,23.3239787 L34.1346849,15.2113026 Z M9.63380282,11.1549646 L6.84415475,11.1549646 L6.84415475,16.8783806 L1.01408451,18.2121262 L1.01408451,23.3239787 L9.63380282,23.3239787 L9.63380282,11.1549646 Z M6.08450704,11.6620069 L3.18521959,11.6620069 L3.10150628,11.6658292 C2.93535835,11.6810391 2.77770495,11.7411626 2.6433512,11.8376075 C2.49249015,11.9459021 2.37136267,12.1000916 2.30282509,12.2848965 L1.09143314,15.575816 L1.05764696,15.6818143 C1.02865917,15.7889744 1.01408451,15.8994143 1.01408451,16.0112885 L1.01408451,17.506991 L6.08450704,16.3449177 L6.08450704,11.6620069 Z" id="Fill-2" fill="#0857A4"></path>
                    <path d="M23.0779854,0.0193865884 L33.8726248,1.25154383 C33.9624922,1.26201176 34.0447341,1.29985938 34.1111928,1.35672785 C34.166662,1.40419263 34.2111919,1.46483747 34.2406685,1.53448618 L34.2598892,1.58834569 L35.979626,7.43883238 C36.0072561,7.53304383 36.0062396,7.63109957 35.9798534,7.72140428 C35.9591968,7.7920997 35.9229338,7.85813632 35.8722698,7.91346202 L35.8315905,7.95285342 L27.6471171,14.9796219 C27.6158682,15.0065371 27.5812888,15.0289396 27.5438688,15.0463125 L27.4856693,15.0685349 L22.137807,16.7126972 L22.0942389,16.7237253 L22.0942389,16.7237253 L22.0499274,16.7303528 L13.7503132,15.0040095 C13.6683464,14.9867805 13.5945542,14.9469317 13.5350556,14.8912731 C13.4886391,14.8478524 13.4508944,14.7948581 13.4243853,14.735292 L13.4017165,14.6736465 L11.6823723,8.82278523 C11.6406368,8.68041346 11.6634125,8.5272297 11.7442034,8.40610841 L11.7823611,8.35628729 L17.5165373,1.80126907 C17.5588862,1.75304348 17.60983,1.71378175 17.6672669,1.68659481 L17.7267904,1.66354803 L23.0779854,0.0193865884 Z M23.2572274,1.00496648 L18.1034865,2.60212302 L12.6189878,8.92560588 L14.1832968,14.2934916 L21.4583181,15.8372273 L21.4583181,13.345487 L18.8219171,6.29882089 L19.6888605,5.95383031 L22.3835629,13.2516252 L22.3835629,15.8308936 L27.1626253,14.3496481 L27.7495023,13.8406625 L27.7495023,11.5234243 L25.1130849,4.47595537 L25.9800662,4.13094973 L28.674747,11.4287532 L28.674747,13.0396438 L35.0566886,7.51419989 L33.5138468,2.22120246 L23.2572274,1.00496648 Z" id="Fill-5" fill="#0E7AAE"></path>
                </g>
                <path d="M26.6758552,144 L26.6758552,144.900394 L20.9618936,144.900394 L18.3409513,150.084103 L0.949780229,150.084103 L3.31541126,161.350893 L8.20190713,161.386605 L7.03133391,154.744498 L7.92448119,154.588168 L9.12152428,161.382402 L14.7340646,161.382402 L13.5646116,154.744503 L14.4577851,154.588168 L15.6548282,161.382402 L21.0719846,161.382402 L21.0719846,162.282796 L18.768719,162.282796 C19.4755427,162.83919 19.97311,163.630762 20.1453371,164.540452 L20.1710093,164.693141 L26.9082447,164.693141 C27.0516568,163.703007 27.5830715,162.839348 28.3477738,162.253947 L28.4585873,162.172227 L23.8323785,162.172227 C23.7069605,162.172227 23.5933503,162.12174 23.5111531,162.039825 C23.4431539,161.972059 23.3966998,161.882765 23.383104,161.783033 L23.37898,161.72203 L23.37898,147.797792 C23.37898,147.673636 23.4295541,147.561317 23.5111531,147.479997 C23.5796508,147.411734 23.669963,147.365297 23.7707442,147.351714 L23.8323785,147.347595 L33.0908497,147.347595 C33.5528058,147.347595 33.9945213,147.492366 34.3624154,147.743939 C34.6964635,147.972367 34.9699818,148.28909 35.1416648,148.667194 L35.1900733,148.78244 L36.8263514,153.010266 C36.9250966,153.265155 36.9819504,153.531341 36.9961791,153.803085 L36.999738,153.939393 L36.999738,160.636444 C36.999738,161.059752 36.8267344,161.443343 36.5479419,161.721231 C36.2918425,161.9765 35.9463863,162.142738 35.5628883,162.168672 L35.4573933,162.172227 L32.8119625,162.172227 C33.7646658,162.857168 34.4015832,163.970502 34.4015832,165.232686 C34.4015832,166.26747 33.9787713,167.205622 33.2968285,167.885227 C32.614231,168.565485 31.6718775,168.986921 30.6327824,168.986921 C29.7302767,168.986921 28.9008667,168.669086 28.251352,168.139793 C27.5298565,167.551842 27.0298017,166.703166 26.8990773,165.739007 L26.8822571,165.593535 L20.1965519,165.593535 C20.0979572,166.61767 19.5842784,167.522486 18.8265657,168.13984 C18.1769733,168.669101 17.3475844,168.986921 16.4451016,168.986921 C15.5579747,168.986921 14.7421263,168.679469 14.0983672,168.165961 C13.383514,167.595743 12.8803313,166.771724 12.7279937,165.832173 L12.7068763,165.682883 L11.165521,165.682883 C11.044195,166.684293 10.5261327,167.565752 9.77358442,168.165984 C9.1297869,168.679476 8.31394898,168.986921 7.42683356,168.986921 C6.38749262,168.986921 5.44519571,168.565575 4.76269135,167.88541 C4.08073015,167.205787 3.65803273,166.267555 3.65803273,165.232686 C3.65803273,164.08486 4.18528301,163.060618 4.99607903,162.367674 L5.0988877,162.282796 L3.74122681,162.282796 C3.405933,162.282796 3.09202918,162.163663 2.8446099,161.963302 C2.62500553,161.785466 2.45746286,161.543368 2.37475029,161.262465 L2.34777348,161.155357 L0.0154488566,150.043776 C-0.0290693771,149.833261 0.0235948874,149.616367 0.160921628,149.448304 C0.282798149,149.298465 0.457350777,149.205944 0.647488092,149.187233 L0.719447674,149.183709 L17.7817225,149.183709 L20.4026648,144 L26.6758552,144 Z M30.7530078,162.259673 C29.9580029,162.259673 29.2371597,162.582802 28.7151171,163.104844 C28.1930025,163.626959 27.8699015,164.347892 27.8699015,165.142779 C27.8699015,165.937666 28.1930025,166.6586 28.7151171,167.180714 C29.2371597,167.702757 29.9580029,168.025886 30.7530078,168.025886 C31.5480126,168.025886 32.2688558,167.702757 32.7908984,167.180714 C33.313013,166.6586 33.636114,165.937666 33.636114,165.142779 C33.636114,164.347892 33.313013,163.626959 32.7908984,163.104844 C32.2688558,162.582802 31.5480126,162.259673 30.7530078,162.259673 Z M16.3374764,162.259673 C15.5428157,162.259673 14.8218612,162.582852 14.2996828,163.10503 C13.7775764,163.627136 13.4543702,164.348001 13.4543702,165.142779 C13.4543702,165.937558 13.7775764,166.658422 14.2996828,167.180529 C14.8218612,167.702707 15.5428157,168.025886 16.3374764,168.025886 C17.1324813,168.025886 17.8533245,167.702757 18.3753671,167.180714 C18.8974817,166.6586 19.2205827,165.937666 19.2205827,165.142779 C19.2205827,164.347892 18.8974817,163.626959 18.3753671,163.104844 C17.8533245,162.582802 17.1324813,162.259673 16.3374764,162.259673 Z M7.20763994,162.259673 C6.41263508,162.259673 5.69179189,162.582802 5.16974929,163.104844 C4.64763472,163.626959 4.32453367,164.347892 4.32453367,165.142779 C4.32453367,165.937666 4.64763472,166.6586 5.16974929,167.180714 C5.69179189,167.702757 6.41263508,168.025886 7.20763994,168.025886 C8.00247276,168.025886 8.72337159,167.702732 9.24548206,167.180621 C9.76759254,166.658511 10.0907462,165.937612 10.0907462,165.142779 C10.0907462,164.347946 9.76759254,163.627048 9.24548206,163.104937 C8.72337159,162.582827 8.00247276,162.259673 7.20763994,162.259673 Z M14.0772372,162.259673 L9.94839692,162.259673 L10.0546731,162.347597 C10.7170711,162.917414 11.1738076,163.73129 11.2731836,164.662262 L11.2731836,164.662262 L12.7524505,164.662262 L12.7710891,164.516258 C12.9076618,163.597964 13.3936108,162.803448 14.0772372,162.259673 L14.0772372,162.259673 Z M27.0933343,148.324659 L24.0257598,148.324659 L24.0257598,161.30539 L36.0387026,161.137748 L36.0387026,156.489706 L27.0933343,154.582213 L27.0933343,148.324659 Z M33.1036485,148.324659 L33.1036485,148.324659 L28.3504192,148.324659 L28.3504192,153.917195 L36.0387026,155.653008 L36.0387026,154.054351 L36.0343215,153.930118 C36.022643,153.765402 35.9876344,153.604571 35.9295116,153.449719 L35.9295116,153.449719 L34.3369954,149.19115 L34.2974942,149.096381 C34.1974309,148.880072 34.0431283,148.698207 33.8559542,148.565754 C33.6383607,148.411773 33.3766922,148.324659 33.1036485,148.324659 L33.1036485,148.324659 Z" id="Fill-1" fill="#0857A4"></path>
                <g id="Group-7" transform="translate(61.000000, 63.000000)" stroke="#0857A4" stroke-linecap="square">
                    <line x1="165.5" y1="96.5" x2="165.5" y2="0.548192771" id="Line-4"></line>
                    <line x1="173.5" y1="95.5" x2="173.5" y2="0.5" id="Line-4-Copy"></line>
                    <line x1="180.5" y1="95.5" x2="180.5" y2="71.5" id="Line-4-Copy"></line>
                    <line x1="151.5" y1="0.5" x2="151.5" y2="45.5" id="Line-5"></line>
                    <line x1="158.5" y1="0.5" x2="158.5" y2="91.5" id="Line-6"></line>
                    <line x1="146.5" y1="8" x2="172.5" y2="8" id="Line-Copy-7"></line>
                    <line x1="138.5" y1="20.5" x2="175.5" y2="20.5" id="Line-Copy-2"></line>
                    <line x1="134.5" y1="39.5" x2="172.5" y2="39.5" id="Line-Copy-5"></line>
                    <line x1="146.5" y1="14.5" x2="181.5" y2="14.5" id="Line-Copy"></line>
                    <line x1="126.5" y1="33.5" x2="172.5" y2="33.5" id="Line-Copy-6"></line>
                    <line x1="146.5" y1="26.5" x2="172.5" y2="26.5" id="Line-Copy-3"></line>
                    <line x1="172.5" y1="45.5" x2="151.5" y2="45.5" id="Line-7-Copy"></line>
                    <line x1="172.5" y1="71.5" x2="153.5" y2="71.5" id="Line-7-Copy-6"></line>
                    <line x1="182.5" y1="83.5" x2="153.5" y2="83.5" id="Line-7-Copy-6"></line>
                    <line x1="179.5" y1="77.5" x2="165.5" y2="77.5" id="Line-7-Copy-6"></line>
                    <line x1="181.5" y1="52.5" x2="151.5" y2="52.5" id="Line-7-Copy-2"></line>
                    <line x1="177.5" y1="58.5" x2="151.5" y2="58.5" id="Line-7-Copy-3"></line>
                    <line x1="177.5" y1="64.5" x2="152.5" y2="64.5" id="Line-7-Copy-5"></line>
                    <line x1="31.5" y1="61.5" x2="31.5" y2="15.5" id="Line-4"></line>
                    <line x1="39.5" y1="70.5" x2="39.5" y2="0.5" id="Line-4-Copy"></line>
                    <line x1="46.5" y1="32.5" x2="46.5" y2="8.5" id="Line-4-Copy"></line>
                    <line x1="24.5" y1="25.5" x2="24.5" y2="56.5" id="Line-6"></line>
                    <line x1="24.5" y1="20.5" x2="53.5" y2="20.5" id="Line-Copy-2"></line>
                    <line x1="0.5" y1="39.5" x2="50.5" y2="39.5" id="Line-Copy-5"></line>
                    <line x1="31.5" y1="14.5" x2="47.5" y2="14.5" id="Line-Copy"></line>
                    <line x1="24.5" y1="33.5" x2="50.5" y2="33.5" id="Line-Copy-6"></line>
                    <line x1="12.5" y1="26.5" x2="51.5" y2="26.5" id="Line-Copy-3"></line>
                    <line x1="49.5" y1="45.5" x2="17.5" y2="45.5" id="Line-7-Copy"></line>
                    <line x1="47.5" y1="52.5" x2="17.5" y2="52.5" id="Line-7-Copy-2"></line>
                    <line x1="49.5" y1="58.5" x2="27.5" y2="58.5" id="Line-7-Copy-3"></line>
                    <line x1="43.5" y1="64.5" x2="34.5" y2="64.5" id="Line-7-Copy-5"></line>
                </g>
                <g id="Group-7-Copy" transform="translate(300.000000, 0.000000)" stroke="#0857A4" stroke-linecap="square">
                    <line x1="31.5" y1="133.451807" x2="31.5" y2="31.5" id="Line-4"></line>
                    <line x1="39" y1="97.5" x2="38.5" y2="43.5481928" id="Line-4-Copy"></line>
                    <line x1="16.5" y1="31.5" x2="16.5" y2="92.5" id="Line-5"></line>
                    <line x1="47" y1="26.5" x2="47" y2="92.5" id="Line-5-Copy"></line>
                    <line x1="55" y1="44.5" x2="55" y2="97.5" id="Line-5-Copy-2"></line>
                    <line x1="24.5" y1="22.5" x2="24.5" y2="93.5" id="Line-6"></line>
                    <line x1="8.5" y1="0.5" x2="8.5" y2="167.5" id="Line-6"></line>
                    <line x1="9.5" y1="47.5" x2="37.5" y2="47.5" id="Line"></line>
                    <line x1="0.5" y1="41.5" x2="26.5" y2="41.5" id="Line-Copy-7"></line>
                    <line x1="6.5" y1="35" x2="32.5" y2="35" id="Line-Copy-7"></line>
                    <line x1="3.76" y1="72.5" x2="40.24" y2="72.5" id="Line-Copy-4"></line>
                    <line x1="10.85" y1="59.5" x2="60.15" y2="59.5" id="Line-Copy-2"></line>
                    <line x1="3.5" y1="53.5" x2="39.5" y2="53.5" id="Line-Copy"></line>
                    <line x1="10.7592593" y1="78.5" x2="50.2407407" y2="78.5" id="Line-Copy-6"></line>
                    <line x1="10.5" y1="65.5" x2="45.5" y2="65.5" id="Line-Copy-3"></line>
                    <line x1="62.1578947" y1="84.5" x2="4.5" y2="84.5" id="Line-7"></line>
                </g>
                <g id="dark" transform="translate(46.181820, 31.665149)" stroke="#0857A4" stroke-linecap="round" stroke-linejoin="round">
                    <path d="M36.3701586,133.121721 L28.2649326,133.121721 L36.3701586,133.121721 Z M0.636860253,107.930032 L12.948509,136.147135 L0.636860253,107.930032 Z M5.02903382,98.3178323 L20.2052433,133.10141 L5.02903382,98.3178323 Z M10.9321125,92.1693789 L27.4482182,130.022924 L10.9321125,92.1693789 Z M17.8147241,88.2646787 L38.7164514,136.17105 L17.8147241,88.2646787 Z M25.5907092,86.4081524 L47.2069386,135.951883 L25.5907092,86.4081524 Z M34.4120754,86.9480422 L52.8105881,129.116446 L34.4120754,86.9480422 Z M45.1210903,91.8132745 L56.5305203,117.964185 L45.1210903,91.8132745 Z M55.8933325,107.93036 L43.5826665,136.145824 L55.8933325,107.93036 Z M51.5014865,98.3175046 L36.3246218,133.102065 L51.5014865,98.3175046 Z M45.5980802,92.1693789 L29.0944234,129.994423 L45.5980802,92.1693789 Z M38.7157962,88.2636959 L17.8137413,136.170722 L38.7157962,88.2636959 Z M30.9398111,86.4081524 L9.32325408,135.952211 L30.9398111,86.4081524 Z M22.1174621,86.9493526 L3.71960458,129.116446 L22.1174621,86.9493526 Z M11.4094301,91.8129469 L0,117.962547 L11.4094301,91.8129469 Z M28.2655878,136.145497 L29.4934438,136.145497 L29.4934438,134.043268 L28.2655878,134.043268 L28.2655878,136.145497 Z M27.0367489,136.145497 L28.2649326,136.145497 L28.2649326,134.043268 L27.0367489,134.043268 L27.0367489,136.145497 Z" id="Stroke-26"></path>
                    <path d="M148.638162,38.1361764 L152.071442,38.1361764 M148.638162,38.1361764 L145.204883,38.1361764 M145.208159,38.1361764 L152.071442,38.1361764 M162.56129,136.17105 C162.56129,136.17105 165.165734,116.970565 162.381109,104.149821 C160.107544,93.696009 154.207414,76.8749048 154.207414,76.8749048 L157.548964,76.8749048 M154.901932,78.7311034 L165.899565,78.7311034 M155.475237,80.5876297 L165.988018,80.5876297 M156.094407,82.444156 L166.066643,82.444156 M156.703749,84.3003546 L166.171476,84.3003546 M157.303262,86.1568809 L166.23372,86.1568809 M157.892948,88.0134072 L166.413902,88.0134072 M158.472805,89.8696058 L166.554771,89.8696058 M159.039558,91.7261321 L166.708745,91.7261321 M159.629243,93.5826583 L166.875822,93.5826583 M160.133752,95.438857 L167.056004,95.438857 M160.657917,97.2953833 L167.252566,97.2953833 M161.15915,99.1519095 L167.462231,99.1519095 M161.640726,101.008108 L167.691554,101.008108 M162.089542,102.864634 L167.940532,102.864634 M162.499046,104.721161 L168.212442,104.721161 M162.869237,106.577359 L168.504009,106.577359 M163.095283,108.433886 L168.821784,108.433886 M163.298397,110.290412 L169.169043,110.290412 M163.452371,112.146611 L169.552339,112.146611 M163.557204,114.003137 L169.974947,114.003137 M163.626,115.859663 L170.446695,115.859663 M163.665313,117.715862 L170.974136,117.715862 M163.665313,119.572388 L171.580201,119.572388 M163.639104,121.428914 L172.287824,121.428914 M163.57686,123.285113 L173.146144,123.285113 M163.508063,125.141639 L174.253442,125.141639 M163.406506,126.998165 L175.956978,126.998165 M163.282017,128.854364 L198.473132,128.854364 M163.134596,130.71089 L199.416629,130.71089 M162.987174,132.329904 L199.416629,132.329904 M142.823209,38.1361764 L144.788827,36.1705583 M146.754445,38.1361764 L148.720063,36.1705583 M146.754445,38.1361764 L144.788827,36.1705583 M150.685681,38.1361764 L152.651299,36.1705583 M150.685681,38.1361764 L148.720063,36.1705583 M154.616917,38.1361764 L152.651299,36.1705583 M147.288438,39.5330756 L153.408062,45.651717 M137.041016,39.5337308 L153.650489,56.1461519 M128.919737,41.6641332 L155.196775,67.9408431 M130.030311,53.0240952 L154.384319,77.378103 M132.438194,65.6839859 L159.278708,92.5254834 M138.498849,81.9966503 L162.78406,106.281861 M142.112311,95.8591717 L163.658761,117.405294 M143.720841,107.718728 L163.383574,127.379823 M144.500536,118.748794 L161.922465,136.170395 M144.821587,129.320543 L151.671766,136.170395 M137.044292,39.5281616 L129.352173,47.2186422 M147.291714,39.5314376 L130.51844,56.3043841 M153.427718,43.6441658 L132.228528,64.8436842 M153.545656,53.7769269 L134.600373,72.722209 M154.289314,63.2839663 L137.686394,79.8855765 M156.117339,71.7072949 L140.258077,87.5665566 M155.979746,82.095914 L142.128691,95.9469693 M158.462977,89.8614157 L143.422723,104.901015 M160.792234,97.7844945 L144.251558,114.322877 M162.7513,106.075472 L144.706926,124.120501 M163.616172,115.461298 L144.867452,134.209363 M163.472027,125.857124 L153.155808,136.17105 M152.071442,39.5281616 L145.204883,39.5281616" id="Stroke-33"></path>
                    <path d="M310.511577,64.3820916 L307.338742,64.3820916 M307.338742,68.3929352 L306.373951,66.3873496 M307.338742,64.3820916 L306.373951,66.3873496 M307.338742,72.4037789 L306.373951,70.3981933 M307.338742,68.3929352 L306.373951,70.3981933 M307.338742,76.4146226 L306.373951,74.4090369 M307.338742,72.4037789 L306.373951,74.4090369 M307.338742,80.4257938 L306.373951,78.4202082 M307.338742,76.4146226 L306.373951,78.4202082 M307.338742,84.4366375 L306.373951,82.4310519 M307.338742,80.4257938 L306.373951,82.4310519 M307.338742,88.4474811 L306.373951,86.4422231 M307.338742,84.4366375 L306.373951,86.4422231 M307.338742,92.4583248 L306.373951,90.4530668 M307.338742,88.4474811 L306.373951,90.4530668 M307.338742,96.4691685 L306.373951,94.4639104 M307.338742,92.4583248 L306.373951,94.4639104 M307.338742,100.480012 L306.373951,98.4747541 M307.338742,96.4691685 L306.373951,98.4747541 M307.338742,104.491183 L306.373951,102.485925 M307.338742,100.480012 L306.373951,102.485925 M307.338742,108.502027 L306.373951,106.496769 M307.338742,104.491183 L306.373951,106.496769 M307.338742,112.512871 L306.373951,110.507613 M307.338742,108.502027 L306.373951,110.507613 M307.338742,116.523714 L306.373951,114.518456 M307.338742,112.512871 L306.373951,114.518456 M307.338742,120.534558 L306.373951,118.5293 M307.338742,116.523714 L306.373951,118.5293 M307.338742,124.545729 L306.373951,122.540144 M307.338742,120.534558 L306.373951,122.540144 M307.338742,128.556901 L306.373951,126.550987 M307.338742,124.545729 L306.373951,126.550987 M306.373951,130.562159 L307.338742,132.567744 L310.838524,132.567744 M307.338742,128.556901 L306.373951,130.562159 M308.131541,128.556901 L309.096332,130.562159 M308.131541,132.567744 L309.096332,130.562159 M308.131541,124.545729 L309.096332,126.550987 M308.131541,128.556901 L309.096332,126.550987 M308.131541,120.534558 L309.096332,122.540144 M308.131541,124.545729 L309.096332,122.540144 M308.131541,116.523714 L309.096332,118.5293 M308.131541,120.534558 L309.096332,118.5293 M308.131541,112.512871 L309.096332,114.518456 M308.131541,116.523714 L309.096332,114.518456 M308.131541,108.502027 L309.096332,110.507613 M308.131541,112.512871 L309.096332,110.507613 M308.131541,104.491183 L309.096332,106.496769 M308.131541,108.502027 L309.096332,106.496769 M308.131541,100.480012 L309.096332,102.485925 M308.131541,104.491183 L309.096332,102.485925 M308.131541,96.4691685 L309.096332,98.4747541 M308.131541,100.480012 L309.096332,98.4747541 M308.131541,92.4583248 L309.096332,94.4639104 M308.131541,96.4691685 L309.096332,94.4639104 M308.131541,88.4474811 L309.096332,90.4530668 M308.131541,92.4583248 L309.096332,90.4530668 M308.131541,84.4366375 L309.096332,86.4422231 M308.131541,88.4474811 L309.096332,86.4422231 M308.131541,80.4257938 L309.096332,82.4310519 M308.131541,84.4366375 L309.096332,82.4310519 M308.131541,76.4146226 L309.096332,78.4202082 M308.131541,80.4257938 L309.096332,78.4202082 M308.131541,72.4037789 L309.096332,74.4090369" id="Stroke-40"></path>
                    <path d="M270.643928,76.4146226 L269.679137,74.4090369 M270.643928,68.3929352 L269.679137,70.3981933 M270.643928,72.4037789 L269.679137,70.3981933 M269.679137,66.3873496 L270.643928,64.3820916 M270.643928,68.3929352 L269.679137,66.3873496 M268.544321,61.1021302 L277.087224,61.1021302 M270.913873,61.1021302 L270.913873,59.6498661 M272.148609,61.1021302 L272.148609,59.6498661 M273.383017,61.1021302 L273.383017,59.6498661 M274.61808,61.1021302 L274.61808,59.6498661 M275.852489,61.1021302 L275.852489,59.6498661 M277.087224,61.1021302 L277.087224,59.6498661 M279.016806,65.4458186 L277.087224,69.2804118 L277.087224,73.8206619 M279.016806,82.1961605 L277.087224,78.3612396 L277.087224,73.8206619 M280.946715,73.8206619 L280.946715,78.3612396 L279.016806,82.1961605 M279.016806,65.4458186 L280.946715,69.2804118 L280.946715,73.8206619 M279.016806,82.1961605 L279.016806,86.5395212 M279.016806,61.1021302 L279.016806,65.4458186 M279.016806,90.261419 L277.087224,94.0960123 L277.087224,98.63659 M279.016806,107.011761 L277.087224,103.177168 L277.087224,98.63659 M280.946715,98.63659 L280.946715,103.177168 L279.016806,107.011761 M279.016806,90.261419 L280.946715,94.0960123 L280.946715,98.63659 M279.016806,107.011761 L279.016806,111.355449 M279.016806,85.9180583 L279.016806,90.261419 M279.016806,115.077019 L277.087224,118.91194 L277.087224,123.452518 M279.016806,131.827361 L277.087224,127.992768 L277.087224,123.452518 M280.946715,123.452518 L280.946715,127.992768 L279.016806,131.827361 M279.016806,115.077019 L280.946715,118.91194 L280.946715,123.452518 M279.016806,131.827361 L279.016806,136.17105 M279.016806,110.733659 L279.016806,115.077019 M275.157315,65.4458186 L273.227733,69.2804118 L273.227733,73.8206619 M275.157315,82.1961605 L273.227733,78.3612396 L273.227733,73.8206619 M277.087224,73.8206619 L277.087224,78.3612396 L275.157315,82.1961605 M275.157315,65.4458186 L277.087224,69.2804118 L277.087224,73.8206619 M275.157315,82.1961605 L275.157315,86.5395212 M275.157315,61.1021302 L275.157315,65.4458186 M275.157315,90.261419 L273.227733,94.0960123 L273.227733,98.63659 M275.157315,107.011761 L273.227733,103.177168 L273.227733,98.63659 M277.087224,98.63659 L277.087224,103.177168 L275.157315,107.011761 M275.157315,90.261419 L277.087224,94.0960123 L277.087224,98.63659 M275.157315,107.011761 L275.157315,111.355449 M275.157315,85.9180583 L275.157315,90.261419 M275.157315,115.077019 L273.227733,118.91194 L273.227733,123.452518 M275.157315,131.827361 L273.227733,127.992768 L273.227733,123.452518 M277.087224,123.452518 L277.087224,127.992768 L275.157315,131.827361 M275.157315,115.077019 L277.087224,118.91194 L277.087224,123.452518 M275.157315,131.827361 L275.157315,136.17105 M275.157315,110.733659 L275.157315,115.077019" id="Stroke-44"></path>
                    <path d="M285.910556,64.3820916 L282.737721,64.3820916 M282.737721,68.3929352 L281.772603,66.3873496 M282.737721,64.3820916 L281.772603,66.3873496 M282.737721,72.4037789 L281.772603,70.3981933 M282.737721,68.3929352 L281.772603,70.3981933 M282.737721,76.4146226 L281.772603,74.4090369 M282.737721,72.4037789 L281.772603,74.4090369 M282.737721,80.4257938 L281.772603,78.4202082 M282.737721,76.4146226 L281.772603,78.4202082 M282.737721,84.4366375 L281.772603,82.4310519 M282.737721,80.4257938 L281.772603,82.4310519 M282.737721,88.4474811 L281.772603,86.4422231 M282.737721,84.4366375 L281.772603,86.4422231 M282.737721,92.4583248 L281.772603,90.4530668 M282.737721,88.4474811 L281.772603,90.4530668 M282.737721,96.4691685 L281.772603,94.4639104 M282.737721,92.4583248 L281.772603,94.4639104 M282.737721,100.480012 L281.772603,98.4747541 M282.737721,96.4691685 L281.772603,98.4747541 M282.737721,104.491183 L281.772603,102.485925 M282.737721,100.480012 L281.772603,102.485925 M282.737721,108.502027 L281.772603,106.496769 M282.737721,104.491183 L281.772603,106.496769 M282.737721,112.512871 L281.772603,110.507613 M282.737721,108.502027 L281.772603,110.507613 M282.737721,116.523714 L281.772603,114.518456 M282.737721,112.512871 L281.772603,114.518456 M282.737721,120.534558 L281.772603,118.5293 M282.737721,116.523714 L281.772603,118.5293 M282.737721,124.545729 L281.772603,122.540144 M282.737721,120.534558 L281.772603,122.540144 M282.737721,128.556901 L281.772603,126.550987 M282.737721,124.545729 L281.772603,126.550987 M281.772603,130.562159 L282.737721,132.567744 L286.237504,132.567744 M282.737721,128.556901 L281.772603,130.562159 M283.53052,128.556901 L284.495311,130.562159 M283.53052,132.567744 L284.495311,130.562159 M283.53052,124.545729 L284.495311,126.550987 M283.53052,128.556901 L284.495311,126.550987 M283.53052,120.534558 L284.495311,122.540144 M283.53052,124.545729 L284.495311,122.540144 M283.53052,116.523714 L284.495311,118.5293 M283.53052,120.534558 L284.495311,118.5293 M283.53052,112.512871 L284.495311,114.518456 M283.53052,116.523714 L284.495311,114.518456 M283.53052,108.502027 L284.495311,110.507613 M283.53052,112.512871 L284.495311,110.507613 M283.53052,104.491183 L284.495311,106.496769 M283.53052,108.502027 L284.495311,106.496769 M283.53052,100.480012 L284.495311,102.485925 M283.53052,104.491183 L284.495311,102.485925 M283.53052,96.4691685 L284.495311,98.4747541 M283.53052,100.480012 L284.495311,98.4747541 M283.53052,92.4583248 L284.495311,94.4639104 M283.53052,96.4691685 L284.495311,94.4639104 M283.53052,88.4474811 L284.495311,90.4530668 M283.53052,92.4583248 L284.495311,90.4530668 M283.53052,84.4366375 L284.495311,86.4422231 M283.53052,88.4474811 L284.495311,86.4422231 M283.53052,80.4257938 L284.495311,82.4310519 M283.53052,84.4366375 L284.495311,82.4310519 M283.53052,76.4146226 L284.495311,78.4202082 M283.53052,80.4257938 L284.495311,78.4202082 M283.53052,72.4037789 L284.495311,74.4090369" id="Stroke-46"></path>
                    <path d="M83.2432452,136.17105 L83.2432452,131.398857 M80.3226644,106.811268 C80.4867935,115.305686 81.3054734,123.790277 83.1787074,131.398857 M108.011343,31 L98.2628605,40.0873799 M108.768761,35.1943013 L98.2628605,44.9879933 M109.453124,39.4564165 L98.2628605,49.8882792 M110.080484,43.7722586 L98.2628605,54.7888926 M110.644289,48.1470692 L98.2628605,59.6891785 M111.139297,52.58609 L98.2628605,64.5897919 M111.560267,57.094235 L98.2628605,69.4900777 M111.898681,61.6790391 L98.2628605,74.3906912 M110.65641,67.7374016 L98.2628605,79.290977 M110.65641,72.6380151 L98.2628605,84.1915904 M110.656738,77.5383009 L98.2628605,89.0918763 M110.667221,82.4287586 L98.2628605,93.9924897 M110.656738,87.3392002 L98.2628605,98.8927755 M110.65641,92.2398136 L98.2628605,103.793389 M110.65641,97.1400994 L98.2628605,108.693675 M110.65641,102.040713 L98.2628605,113.594288 M110.656738,106.940999 L98.2628605,118.494574 M110.656738,111.841285 L98.2628605,123.395188 M110.656738,116.74157 L98.2628605,128.295473 M110.656738,121.642184 L102.693364,129.065668 M110.656738,126.542797 L107.950409,129.065668 M73.1835396,38.1581258 L85.7667712,49.8882792 M72.4094137,42.3367022 L85.3605435,54.4101835 M71.682135,46.5598326 L84.6912505,58.6867132 M71.0030139,50.8268618 L83.9525058,62.8983775 M70.3720505,55.1391002 L83.24259,67.1369053 M69.7885896,59.4955651 L82.6479906,71.4832144 M69.2909606,63.9322926 L82.0586327,75.83411 M68.7527089,68.3306907 L81.583936,80.2918042 M68.3530332,72.8588195 L81.1564141,84.79438 M67.9903767,77.4213466 L80.7953955,89.3578899 M67.7299323,82.0788786 L80.5906437,94.0675108 M67.4783332,86.7446007 L80.3518211,98.7453542 M67.3456539,91.5217078 L80.2961286,103.593879 M67.3069968,96.3856297 L80.3226644,108.519062 M67.3810351,101.35504 L80.2987494,113.397071 M67.5887354,106.449267 L80.2905593,118.29015 M67.9556507,111.69157 L80.3102155,123.208454 M68.5276456,117.125193 L80.2892489,128.089739 M69.3633609,122.805174 L80.2892489,132.990352" id="Stroke-75"></path>
                    <path d="M292.865241,64.3820916 L296.038076,64.3820916 M296.038076,68.3929352 L297.002867,66.3873496 M296.038076,64.3820916 L297.002867,66.3873496 M296.038076,72.4037789 L297.002867,70.3981933 M296.038076,68.3929352 L297.002867,70.3981933 M296.038076,76.4146226 L297.002867,74.4090369 M296.038076,72.4037789 L297.002867,74.4090369 M296.038076,80.4257938 L297.002867,78.4202082 M296.038076,76.4146226 L297.002867,78.4202082 M296.038076,84.4366375 L297.002867,82.4310519 M296.038076,80.4257938 L297.002867,82.4310519 M296.038076,88.4474811 L297.002867,86.4422231 M296.038076,84.4366375 L297.002867,86.4422231 M296.038076,92.4583248 L297.002867,90.4530668 M296.038076,88.4474811 L297.002867,90.4530668 M296.038076,96.4691685 L297.002867,94.4639104 M296.038076,92.4583248 L297.002867,94.4639104 M296.038076,100.480012 L297.002867,98.4747541 M296.038076,96.4691685 L297.002867,98.4747541 M296.038076,104.491183 L297.002867,102.485925 M296.038076,100.480012 L297.002867,102.485925 M296.038076,108.502027 L297.002867,106.496769 M296.038076,104.491183 L297.002867,106.496769 M296.038076,112.512871 L297.002867,110.507613 M296.038076,108.502027 L297.002867,110.507613 M296.038076,116.523714 L297.002867,114.518456 M296.038076,112.512871 L297.002867,114.518456 M296.038076,120.534558 L297.002867,118.5293 M296.038076,116.523714 L297.002867,118.5293 M296.038076,124.545729 L297.002867,122.540144 M296.038076,120.534558 L297.002867,122.540144 M296.038076,128.556901 L297.002867,126.550987 M296.038076,124.545729 L297.002867,126.550987 M297.002867,130.562159 L296.038076,132.567744 L292.538293,132.567744 M296.038076,128.556901 L297.002867,130.562159 M295.245276,128.556901 L294.280486,130.562159 M295.245276,132.567744 L294.280486,130.562159 M295.245276,124.545729 L294.280486,126.550987 M295.245276,128.556901 L294.280486,126.550987 M295.245276,120.534558 L294.280486,122.540144 M295.245276,124.545729 L294.280486,122.540144 M295.245276,116.523714 L294.280486,118.5293 M295.245276,120.534558 L294.280486,118.5293 M295.245276,112.512871 L294.280486,114.518456 M295.245276,116.523714 L294.280486,114.518456 M295.245276,108.502027 L294.280486,110.507613 M295.245276,112.512871 L294.280486,110.507613 M295.245276,104.491183 L294.280486,106.496769 M295.245276,108.502027 L294.280486,106.496769 M295.245276,100.480012 L294.280486,102.485925 M295.245276,104.491183 L294.280486,102.485925 M295.245276,96.4691685 L294.280486,98.4747541 M295.245276,100.480012 L294.280486,98.4747541 M295.245276,92.4583248 L294.280486,94.4639104 M295.245276,96.4691685 L294.280486,94.4639104 M295.245276,88.4474811 L294.280486,90.4530668 M295.245276,92.4583248 L294.280486,90.4530668 M295.245276,84.4366375 L294.280486,86.4422231 M295.245276,88.4474811 L294.280486,86.4422231 M295.245276,80.4257938 L294.280486,82.4310519 M295.245276,84.4366375 L294.280486,82.4310519 M295.245276,76.4146226 L294.280486,78.4202082 M295.245276,80.4257938 L294.280486,78.4202082 M295.245276,72.4037789 L294.280486,74.4090369" id="Stroke-37"></path>
                    <path d="M295.245276,76.4146226 L294.280486,74.4090369 M295.245276,68.3929352 L294.280486,70.3981933 M295.245276,72.4037789 L294.280486,70.3981933 M294.280486,66.3873496 L295.245276,64.3820916 M295.245276,68.3929352 L294.280486,66.3873496 M293.145669,61.1021302 L301.688245,61.1021302 M295.515221,61.1021302 L295.515221,59.6498661 M296.749629,61.1021302 L296.749629,59.6498661 M297.984365,61.1021302 L297.984365,59.6498661 M299.219101,61.1021302 L299.219101,59.6498661 M300.453837,61.1021302 L300.453837,59.6498661 M301.688245,61.1021302 L301.688245,59.6498661 M303.618154,65.4458186 L301.688245,69.2804118 L301.688245,73.8206619 M303.618154,82.1961605 L301.688245,78.3612396 L301.688245,73.8206619 M305.548063,73.8206619 L305.548063,78.3612396 L303.618154,82.1961605 M303.618154,65.4458186 L305.548063,69.2804118 L305.548063,73.8206619 M303.618154,82.1961605 L303.618154,86.5395212 M303.618154,61.1021302 L303.618154,65.4458186 M303.618154,90.261419 L301.688245,94.0960123 L301.688245,98.63659 M303.618154,107.011761 L301.688245,103.177168 L301.688245,98.63659 M305.548063,98.63659 L305.548063,103.177168 L303.618154,107.011761 M303.618154,90.261419 L305.548063,94.0960123 L305.548063,98.63659 M303.618154,107.011761 L303.618154,111.355449 M303.618154,85.9180583 L303.618154,90.261419 M303.618154,115.077019 L301.688245,118.91194 L301.688245,123.452518 M303.618154,131.827361 L301.688245,127.992768 L301.688245,123.452518 M305.548063,123.452518 L305.548063,127.992768 L303.618154,131.827361 M303.618154,115.077019 L305.548063,118.91194 L305.548063,123.452518 M303.618154,131.827361 L303.618154,136.17105 M303.618154,110.733659 L303.618154,115.077019 M299.758663,65.4458186 L297.829081,69.2804118 L297.829081,73.8206619 M299.758663,82.1961605 L297.829081,78.3612396 L297.829081,73.8206619 M301.688245,73.8206619 L301.688245,78.3612396 L299.758663,82.1961605 M299.758663,65.4458186 L301.688245,69.2804118 L301.688245,73.8206619 M299.758663,82.1961605 L299.758663,86.5395212 M299.758663,61.1021302 L299.758663,65.4458186 M299.758663,90.261419 L297.829081,94.0960123 L297.829081,98.63659 M299.758663,107.011761 L297.829081,103.177168 L297.829081,98.63659 M301.688245,98.63659 L301.688245,103.177168 L299.758663,107.011761 M299.758663,90.261419 L301.688245,94.0960123 L301.688245,98.63659 M299.758663,107.011761 L299.758663,111.355449 M299.758663,85.9180583 L299.758663,90.261419 M299.758663,115.077019 L297.829081,118.91194 L297.829081,123.452518 M299.758663,131.827361 L297.829081,127.992768 L297.829081,123.452518 M301.688245,123.452518 L301.688245,127.992768 L299.758663,131.827361 M299.758663,115.077019 L301.688245,118.91194 L301.688245,123.452518 M299.758663,131.827361 L299.758663,136.17105 M299.758663,110.733659 L299.758663,115.077019" id="Stroke-38"></path>
                    <path d="M268.263892,64.3820916 L271.437055,64.3820916 M271.437055,68.3929352 L272.401518,66.3873496 M271.437055,64.3820916 L272.401518,66.3873496 M271.437055,72.4037789 L272.401518,70.3981933 M271.437055,68.3929352 L272.401518,70.3981933 M271.437055,76.4146226 L272.401518,74.4090369 M271.437055,72.4037789 L272.401518,74.4090369 M271.437055,80.4257938 L272.401518,78.4202082 M271.437055,76.4146226 L272.401518,78.4202082 M271.437055,84.4366375 L272.401518,82.4310519 M271.437055,80.4257938 L272.401518,82.4310519 M271.437055,88.4474811 L272.401518,86.4422231 M271.437055,84.4366375 L272.401518,86.4422231 M271.437055,92.4583248 L272.401518,90.4530668 M271.437055,88.4474811 L272.401518,90.4530668 M271.437055,96.4691685 L272.401518,94.4639104 M271.437055,92.4583248 L272.401518,94.4639104 M271.437055,100.480012 L272.401518,98.4747541 M271.437055,96.4691685 L272.401518,98.4747541 M271.437055,104.491183 L272.401518,102.485925 M271.437055,100.480012 L272.401518,102.485925 M271.437055,108.502027 L272.401518,106.496769 M271.437055,104.491183 L272.401518,106.496769 M271.437055,112.512871 L272.401518,110.507613 M271.437055,108.502027 L272.401518,110.507613 M271.437055,116.523714 L272.401518,114.518456 M271.437055,112.512871 L272.401518,114.518456 M271.437055,120.534558 L272.401518,118.5293 M271.437055,116.523714 L272.401518,118.5293 M271.437055,124.545729 L272.401518,122.540144 M271.437055,120.534558 L272.401518,122.540144 M271.437055,128.556901 L272.401518,126.550987 M271.437055,124.545729 L272.401518,126.550987 M272.401518,130.562159 L271.437055,132.567744 L267.936945,132.567744 M271.437055,128.556901 L272.401518,130.562159 M270.643928,128.556901 L269.679137,130.562159 M270.643928,132.567744 L269.679137,130.562159 M270.643928,124.545729 L269.679137,126.550987 M270.643928,128.556901 L269.679137,126.550987 M270.643928,120.534558 L269.679137,122.540144 M270.643928,124.545729 L269.679137,122.540144 M270.643928,116.523714 L269.679137,118.5293 M270.643928,120.534558 L269.679137,118.5293 M270.643928,112.512871 L269.679137,114.518456 M270.643928,116.523714 L269.679137,114.518456 M270.643928,108.502027 L269.679137,110.507613 M270.643928,112.512871 L269.679137,110.507613 M270.643928,104.491183 L269.679137,106.496769 M270.643928,108.502027 L269.679137,106.496769 M270.643928,100.480012 L269.679137,102.485925 M270.643928,104.491183 L269.679137,102.485925 M270.643928,96.4691685 L269.679137,98.4747541 M270.643928,100.480012 L269.679137,98.4747541 M270.643928,92.4583248 L269.679137,94.4639104 M270.643928,96.4691685 L269.679137,94.4639104 M270.643928,88.4474811 L269.679137,90.4530668 M270.643928,92.4583248 L269.679137,90.4530668 M270.643928,84.4366375 L269.679137,86.4422231 M270.643928,88.4474811 L269.679137,86.4422231 M270.643928,80.4257938 L269.679137,82.4310519 M270.643928,84.4366375 L269.679137,82.4310519 M270.643928,76.4146226 L269.679137,78.4202082 M270.643928,80.4257938 L269.679137,78.4202082 M270.643928,72.4037789 L269.679137,74.4090369" id="Stroke-43"></path>
                    <path d="M245.713896,20.0108846 L249.687721,18.6546081 M245.713896,23.0248323 L249.687721,21.6685558 M245.713896,26.0384524 L249.687721,24.6825035 M245.713896,29.0527277 L249.687721,27.6964512 M245.713896,32.0666754 L249.687721,30.7103989 M245.713896,35.0806231 L249.687721,33.7243466 M245.713896,38.0945708 L249.687721,36.7382943 M245.713896,41.1081909 L249.687721,39.752242 M245.713896,44.1224662 L249.687721,42.7661897 M245.713896,47.1360863 L249.687721,45.7801374 M245.713896,50.1503616 L249.687721,48.7940851 M245.713896,53.1643093 L249.687721,51.8080328 M245.713896,56.178257 L249.687721,54.8216529 M245.713896,59.1922047 L249.687721,57.8359282 M245.713896,62.2058248 L249.687721,60.8498759 M245.713896,65.2201001 L249.687721,63.8638236 M245.713896,68.2340478 L249.687721,66.8777713 M245.713896,71.2479955 L249.687721,69.8913914 M245.713896,74.2619432 L249.687721,72.9056667 M245.713896,77.2755633 L249.687721,75.9196144 M245.713896,80.2898386 L249.687721,78.9335621 M245.713896,83.3037863 L249.687721,81.9475098 M245.713896,86.317734 L249.687721,84.9611299 M245.713896,89.3316817 L249.687721,87.9754052 M245.713896,92.3453018 L249.687721,90.9893529 M245.713896,95.3595771 L249.687721,94.0033006 M245.713896,98.3735248 L249.687721,97.0172483 M245.713896,101.387472 L249.687721,100.030868 M245.713896,104.40142 L249.687721,103.045144 M245.713896,107.41504 L249.687721,106.059091 M245.713896,110.429316 L249.687721,109.073039 M245.713896,113.443263 L249.687721,112.086987 M245.713896,116.457211 L249.687721,115.100607 M245.713896,119.471159 L249.687721,118.114882 M245.713896,122.484779 L249.687721,121.12883 M245.713896,125.499054 L249.687721,124.142778 M237.762971,1.62580365 L241.736796,0.269527187 M237.762971,4.63975135 L241.736796,3.28347489 M237.762971,7.65369905 L241.736796,6.29742258 M237.762971,10.6676467 L241.736796,9.31137028 M237.762971,13.6815944 L241.736796,12.325318 M237.762971,16.6955421 L241.736796,15.3392657 M237.762971,19.7094898 L241.736796,18.3532134 M237.762971,22.7234375 L241.736796,21.3671611 M237.762971,25.7373852 L241.736796,24.3811088 M237.762971,28.7513329 L241.736796,27.3950565 M237.762971,31.7652806 L241.736796,30.4090042 M237.762971,34.7792283 L241.736796,33.4229519 M237.762971,37.793176 L241.736796,36.4368996 M237.762971,40.8071237 L241.736796,39.4508473 M237.762971,43.8210714 L241.736796,42.464795 M237.762971,46.8346915 L241.736796,45.4787427 M237.762971,49.8489668 L241.736796,48.4926904 M237.762971,52.8629145 L241.736796,51.5063105 M237.762971,55.8768622 L241.736796,54.5202582 M237.762971,58.8904823 L241.736796,57.5345335 M237.762971,61.90443 L241.736796,60.5484812 M237.762971,64.9187053 L241.736796,63.5624288 M237.762971,67.932653 L241.736796,66.5760489 M237.762971,70.9466007 L241.736796,69.5899966 M237.762971,73.9602208 L241.736796,72.6042719 M237.762971,76.9741685 L241.736796,75.6182196 M237.762971,79.9884438 L241.736796,78.6321673 M237.762971,83.0023915 L241.736796,81.6457874 M227.655575,120.725551 L229.090476,120.725551 M221.05765,120.725551 L222.492551,120.725551 M214.459725,120.725551 L215.89135,120.725551 M207.859835,120.725551 L209.293426,120.725551 M227.655575,118.759933 L229.090476,118.759933 M221.05765,118.759933 L222.492551,118.759933 M214.459725,118.759933 L215.89135,118.759933 M207.859835,118.759933 L209.293426,118.759933 M227.655575,116.794314 L229.090476,116.794314 M221.05765,116.794314 L222.492551,116.794314 M214.459725,116.794314 L215.89135,116.794314 M207.859835,116.794314 L209.293426,116.794314 M227.655575,114.828696 L229.090476,114.828696 M221.05765,114.828696 L222.492551,114.828696 M214.459725,114.828696 L215.89135,114.828696 M207.859835,114.828696 L209.293426,114.828696 M227.655575,112.863078 L229.090476,112.863078 M221.05765,112.863078 L222.492551,112.863078 M214.459725,112.863078 L215.89135,112.863078 M207.859835,112.863078 L209.293426,112.863078 M227.655575,110.89746 L229.090476,110.89746 M221.05765,110.89746 L222.492551,110.89746 M214.459725,110.89746 L215.89135,110.89746 M207.859835,110.89746 L209.293426,110.89746 M227.655575,108.931842 L229.090476,108.931842 M221.05765,108.931842 L222.492551,108.931842 M214.459725,108.931842 L215.89135,108.931842 M207.859835,108.931842 L209.293426,108.931842 M227.655575,106.966224 L229.090476,106.966224 M221.05765,106.966224 L222.492551,106.966224 M214.459725,106.966224 L215.89135,106.966224 M207.859835,106.966224 L209.293426,106.966224 M227.655575,105.000606 L229.090476,105.000606 M221.05765,105.000606 L222.492551,105.000606 M214.459725,105.000606 L215.89135,105.000606 M207.859835,105.000606 L209.293426,105.000606 M227.655575,103.034988 L229.090476,103.034988 M221.05765,103.034988 L222.492551,103.034988 M214.459725,103.034988 L215.89135,103.034988 M207.859835,103.034988 L209.293426,103.034988 M227.655575,101.06937 L229.090476,101.06937 M221.05765,101.06937 L222.492551,101.06937 M214.459725,101.06937 L215.89135,101.06937 M207.859835,101.06937 L209.293426,101.06937 M227.655575,99.1037519 L229.090476,99.1037519 M221.05765,99.1037519 L222.492551,99.1037519 M214.459725,99.1037519 L215.89135,99.1037519 M207.859835,99.1037519 L209.293426,99.1037519 M227.655575,97.1381338 L229.090476,97.1381338 M221.05765,97.1381338 L222.492551,97.1381338 M214.459725,97.1381338 L215.89135,97.1381338 M207.859835,97.1381338 L209.293426,97.1381338 M227.655575,95.1725157 L229.090476,95.1725157 M221.05765,95.1725157 L222.492551,95.1725157 M214.459725,95.1725157 L215.89135,95.1725157 M207.859835,95.1725157 L209.293426,95.1725157 M227.655575,93.2068977 L229.090476,93.2068977 M221.05765,93.2068977 L222.492551,93.2068977 M214.459725,93.2068977 L215.89135,93.2068977 M207.859835,93.2068977 L209.293426,93.2068977 M227.655575,91.2412796 L229.090476,91.2412796 M221.05765,91.2412796 L222.492551,91.2412796 M214.459725,91.2412796 L215.89135,91.2412796 M207.859835,91.2412796 L209.293426,91.2412796 M227.655575,89.2756616 L229.090476,89.2756616 M221.05765,89.2756616 L222.492551,89.2756616 M214.459725,89.2756616 L215.89135,89.2756616 M207.859835,89.2756616 L209.293426,89.2756616 M227.655575,87.3100435 L229.090476,87.3100435 M221.05765,87.3100435 L222.492551,87.3100435 M214.459725,87.3100435 L215.89135,87.3100435 M207.859835,87.3100435 L209.293426,87.3100435 M227.655575,85.3444254 L229.090476,85.3444254 M221.05765,85.3444254 L222.492551,85.3444254 M214.459725,85.3444254 L215.89135,85.3444254 M207.859835,85.3444254 L209.293426,85.3444254 M227.655575,83.3788074 L229.090476,83.3788074 M221.05765,83.3788074 L222.492551,83.3788074 M214.459725,83.3788074 L215.89135,83.3788074 M207.859835,83.3788074 L209.293426,83.3788074 M227.655575,81.4131893 L229.090476,81.4131893 M221.05765,81.4131893 L222.492551,81.4131893 M214.459725,81.4131893 L215.89135,81.4131893 M207.859835,81.4131893 L209.293426,81.4131893 M227.655575,79.4475712 L229.090476,79.4475712 M221.05765,79.4475712 L222.492551,79.4475712 M214.459725,79.4475712 L215.89135,79.4475712 M207.859835,79.4475712 L209.293426,79.4475712 M227.655575,77.4819532 L229.090476,77.4819532 M221.05765,77.4819532 L222.492551,77.4819532 M214.459725,77.4819532 L215.89135,77.4819532 M207.859835,77.4819532 L209.293426,77.4819532 M227.655575,75.5163351 L229.090476,75.5163351 M221.05765,75.5163351 L222.492551,75.5163351 M214.459725,75.5163351 L215.89135,75.5163351 M207.859835,75.5163351 L209.293426,75.5163351 M227.655575,73.550717 L229.090476,73.550717 M221.05765,73.550717 L222.492551,73.550717 M214.459725,73.550717 L215.89135,73.550717 M207.859835,73.550717 L209.293426,73.550717 M227.655575,71.585099 L229.090476,71.585099 M221.05765,71.585099 L222.492551,71.585099 M214.459725,71.585099 L215.89135,71.585099 M207.859835,71.585099 L209.293426,71.585099 M227.655575,69.6194809 L229.090476,69.6194809 M221.05765,69.6194809 L222.492551,69.6194809 M214.459725,69.6194809 L215.89135,69.6194809 M207.859835,69.6194809 L209.293426,69.6194809 M227.655575,67.6538628 L229.090476,67.6538628 M221.05765,67.6538628 L222.492551,67.6538628 M214.459725,67.6538628 L215.89135,67.6538628 M207.859835,67.6538628 L209.293426,67.6538628 M227.655575,65.6882448 L229.090476,65.6882448 M221.05765,65.6882448 L222.492551,65.6882448 M214.459725,65.6882448 L215.89135,65.6882448 M207.859835,65.6882448 L209.293426,65.6882448 M227.655575,63.7226267 L229.090476,63.7226267 M221.05765,63.7226267 L222.492551,63.7226267 M214.459725,63.7226267 L215.89135,63.7226267 M207.859835,63.7226267 L209.293426,63.7226267 M227.655575,61.7570087 L229.090476,61.7570087 M221.05765,61.7570087 L222.492551,61.7570087 M214.459725,61.7570087 L215.89135,61.7570087 M207.859835,61.7570087 L209.293426,61.7570087 M227.655575,59.7913906 L229.090476,59.7913906 M221.05765,59.7913906 L222.492551,59.7913906 M214.459725,59.7913906 L215.89135,59.7913906 M207.859835,59.7913906 L209.293426,59.7913906 M227.655575,57.8257725 L229.090476,57.8257725 M221.05765,57.8257725 L222.492551,57.8257725 M214.459725,57.8257725 L215.89135,57.8257725 M207.859835,57.8257725 L209.293426,57.8257725 M227.655575,55.8601545 L229.090476,55.8601545 M221.05765,55.8601545 L222.492551,55.8601545 M214.459725,55.8601545 L215.89135,55.8601545 M207.859835,55.8601545 L209.293426,55.8601545 M227.655575,53.8945364 L229.090476,53.8945364 M221.05765,53.8945364 L222.492551,53.8945364 M214.459725,53.8945364 L215.89135,53.8945364 M207.859835,53.8945364 L209.293426,53.8945364 M227.655575,51.9289183 L229.090476,51.9289183 M221.05765,51.9289183 L222.492551,51.9289183 M214.459725,51.9289183 L215.89135,51.9289183 M207.859835,51.9289183 L209.293426,51.9289183 M227.655575,49.9633003 L229.090476,49.9633003 M221.05765,49.9633003 L222.492551,49.9633003 M214.459725,49.9633003 L215.89135,49.9633003 M207.859835,49.9633003 L209.293426,49.9633003 M227.655575,47.9976822 L229.090476,47.9976822 M221.05765,47.9976822 L222.492551,47.9976822 M214.459725,47.9976822 L215.89135,47.9976822 M207.859835,47.9976822 L209.293426,47.9976822 M227.655575,46.0320641 L229.090476,46.0320641 M221.05765,46.0320641 L222.492551,46.0320641 M214.459725,46.0320641 L215.89135,46.0320641 M207.859835,46.0320641 L209.293426,46.0320641 M227.655575,44.0667737 L229.090476,44.0667737 M221.05765,44.0667737 L222.492551,44.0667737 M214.459725,44.0667737 L215.89135,44.0667737 M207.859835,44.0667737 L209.293426,44.0667737 M227.655575,42.1011556 L229.090476,42.1011556 M221.05765,42.1011556 L222.492551,42.1011556 M214.459725,42.1011556 L215.89135,42.1011556 M207.859835,42.1011556 L209.293426,42.1011556 M227.655575,40.1355376 L229.090476,40.1355376 M221.05765,40.1355376 L222.492551,40.1355376 M214.459725,40.1355376 L215.89135,40.1355376 M207.859835,40.1355376 L209.293426,40.1355376 M227.655575,38.1699195 L229.090476,38.1699195 M221.05765,38.1699195 L222.492551,38.1699195 M214.459725,38.1699195 L215.89135,38.1699195 M207.859835,38.1699195 L209.293426,38.1699195 M227.655575,36.2043014 L229.090476,36.2043014 M221.05765,36.2043014 L222.492551,36.2043014 M214.459725,36.2043014 L215.89135,36.2043014 M227.655575,34.2386834 L229.090476,34.2386834 M221.05765,34.2386834 L222.492551,34.2386834 M214.459725,34.2386834 L215.89135,34.2386834 M227.655575,32.2730653 L229.090476,32.2730653 M221.05765,32.2730653 L222.492551,32.2730653 M227.655575,30.3074472 L229.090476,30.3074472 M221.05765,30.3074472 L222.492551,30.3074472 M227.655575,28.3418292 L229.090476,28.3418292 M221.05765,28.3418292 L222.492551,28.3418292 M227.655575,26.3762111 L229.090476,26.3762111 M227.655575,24.410593 L229.090476,24.410593" id="Combined-Shape"></path>
                </g>
            </g>
        </g>
    </g>
</svg>