<?xml version="1.0" encoding="UTF-8"?>
<svg width="32px" height="32px" viewBox="0 0 32 32" version="1.1" xmlns="http://www.w3.org/2000/svg" xmlns:xlink="http://www.w3.org/1999/xlink">
    <!-- Generator: Sketch 64 (93537) - https://sketch.com -->
    <title>login-icon</title>
    <desc>Created with Sketch.</desc>
    <g id="I.--Modules" stroke="none" stroke-width="1" fill="none" fill-rule="evenodd">
        <g id="page-/-hero-forms" transform="translate(-934.000000, -32.000000)" fill="#AE9859" fill-rule="nonzero">
            <g id="Page-/-Login-Panel" transform="translate(877.000000, 1.000000)">
                <path d="M73,31 C77.6869375,31 81.5,34.813125 81.5,39.5 C81.5,42.2793125 80.1590625,44.7513125 78.09025,46.3031875 C78.299625,46.3721875 78.508,46.4449375 78.7149375,46.5226875 C79.36125,46.765375 79.6884375,47.4860625 79.44575,48.1323125 C79.2030625,48.778625 78.482375,49.1059375 77.836125,48.863125 C76.3919375,48.3208125 74.8746875,48.02875 73.321375,47.9933125 C73.214625,47.9973125 73.107625,48 73,48 C72.8933125,48 72.78725,47.997375 72.6814375,47.9934375 C66.3291875,48.1411875 60.8266875,52.694625 59.528625,58.9296875 C59.4475625,59.319 59.544125,59.718 59.793375,60.024625 C59.93775,60.2021875 60.2596875,60.5 60.7933125,60.5 L60.7933125,60.5 L65.21875,60.5 C65.909125,60.5 66.46875,61.059625 66.46875,61.75 C66.46875,62.440375 65.909125,63 65.21875,63 L65.21875,63 L60.7933125,63 C59.64775,63 58.5763125,62.4904375 57.8538125,61.6019375 C57.127625,60.7090625 56.846,59.5493125 57.081125,58.4201875 C57.8313125,54.816625 59.818625,51.5373125 62.676875,49.18625 C64.23575,47.904 66.017,46.93225 67.9151875,46.307375 C65.84325,44.75575 64.5,42.2818125 64.5,39.5 C64.5,34.813125 68.3130625,31 73,31 Z M84.9695625,50.5625 C86.30275,50.5655625 87.508,51.3410625 88.0430625,52.5379375 C88.477375,53.5095625 88.9959375,55.027125 88.9999614,56.7389375 C89.004,58.4554375 88.4899375,59.9966875 88.0579375,60.987375 C87.524625,62.2105625 86.318625,62.9999375 84.9841875,62.9999375 L84.9841875,62.9999375 L81.031,62.9999375 C79.663,62.99675 78.44175,62.1723125 77.9168125,60.8995625 C77.720375,60.4233125 77.5543125,59.897125 77.40925,59.2909375 C77.2485625,58.6195625 77.6625625,57.945 78.334,57.7843125 C79.005125,57.6236875 79.679875,58.0376875 79.8405625,58.7090625 C79.955,59.18725 80.0816875,59.5919375 80.227875,59.946375 C80.364125,60.2766875 80.6880625,60.4991875 81.033875,60.5 L81.033875,60.5 L84.98125,60.5 C85.3238125,60.5 85.630625,60.299375 85.76625,59.98825 C86.1026875,59.2168125 86.5029375,58.0279375 86.4999375,56.744875 C86.4969375,55.47125 86.09625,54.309 85.7606875,53.55825 C85.624375,53.2533125 85.320125,53.0633125 84.966625,53.0625 L84.966625,53.0625 L81.066,53.0625 C80.6945625,53.0625 80.3906875,53.25775 80.2696875,53.5725 C80.0861875,54.0498125 79.9593125,54.4468125 79.8581875,54.85975 C79.72125,55.4190625 79.2199375,55.8125 78.6440625,55.8125 L78.6440625,55.8125 L70.050875,55.8125 L69.1223125,56.7688125 L70.0865625,57.7499375 L73.6249375,57.7499375 C74.3153125,57.7499375 74.8749375,58.3095625 74.8749375,58.9999375 C74.8749375,59.6903125 74.3153125,60.2499375 73.6249375,60.2499375 L73.6249375,60.2499375 L69.5624375,60.2499375 C69.2271875,60.2499375 68.9059375,60.11525 68.6709375,59.876125 L68.6709375,59.876125 L66.4834375,57.650375 C66.0075625,57.1661875 66.0051875,56.390625 66.478125,55.9035 L66.478125,55.9035 L68.625375,53.69175 C68.8608125,53.4493125 69.1843125,53.3125 69.52225,53.3125 L69.52225,53.3125 L77.706375,53.3125 C77.7901875,53.0615625 77.8705,52.8463125 77.9361875,52.6754375 C78.429875,51.39125 79.65675,50.5625 81.063,50.5625 L81.063,50.5625 Z M83.9375,55.5 C84.6278559,55.5 85.1875,56.0596441 85.1875,56.75 C85.1875,57.4403559 84.6278559,58 83.9375,58 C83.2471441,58 82.6875,57.4403559 82.6875,56.75 C82.6875,56.0596441 83.2471441,55.5 83.9375,55.5 Z M73,33.5 C69.6915625,33.5 67,36.1915625 67,39.5 C67,42.710125 69.534125,45.339375 72.7069375,45.4928125 C72.8045625,45.491 72.90225,45.4895625 73,45.4895625 C73.0975,45.4895625 73.1948125,45.4910625 73.292125,45.4928125 C76.465375,45.339875 79,42.7104375 79,39.5 C79,36.1915625 76.3084375,33.5 73,33.5 Z" id="login-icon"></path>
            </g>
        </g>
    </g>
</svg>