<?xml version="1.0" encoding="UTF-8"?>
<svg width="48px" height="55px" viewBox="0 0 48 55" version="1.1" xmlns="http://www.w3.org/2000/svg" xmlns:xlink="http://www.w3.org/1999/xlink">
    <!-- Generator: Sketch 64 (93537) - https://sketch.com -->
    <title>Group 42 Copy</title>
    <desc>Created with Sketch.</desc>
    <defs>
        <polygon id="path-1" points="0 0.0172811366 47.9812605 0.0172811366 47.9812605 54.4123294 0 54.4123294"></polygon>
    </defs>
    <g id="I.--Modules" stroke="none" stroke-width="1" fill="none" fill-rule="evenodd">
        <g id="Testimonials" transform="translate(-696.000000, -309.000000)">
            <g id="Group-42-Copy" transform="translate(696.000000, 309.000000)">
                <g id="Group-3" transform="translate(0.000000, 0.071661)">
                    <mask id="mask-2" fill="white">
                        <use xlink:href="#path-1"></use>
                    </mask>
                    <g id="Clip-2"></g>
                    <path d="M30.3614245,29.3055243 C31.2293094,29.3107699 31.4283022,29.1335741 31.4415108,28.3446839 C31.4566187,27.4470579 31.2495971,27.2072701 30.4522446,27.198646 C29.6111223,27.1894883 29.3498849,27.4591496 29.3538561,28.3327701 C29.357223,29.0666256 29.5999856,29.3009899 30.3614245,29.3055243 M4.49253237,35.4145557 C3.69759712,35.4042422 3.46294964,35.6323829 3.4438705,36.434076 C3.42271942,37.3212997 3.64320863,37.5750461 4.44056115,37.5806474 C5.24930935,37.5863376 5.48464748,37.3582858 5.49008633,36.5636165 C5.49621583,35.6579887 5.29385612,35.424958 4.49253237,35.4145557 M34.3601007,27.2013132 C33.5753525,27.2044251 33.3452806,27.4464356 33.352964,28.2603981 C33.3610791,29.1111691 33.5757842,29.3161045 34.4478129,29.3053465 C35.2620863,29.2952997 35.4602158,29.0876971 35.4513237,28.2540856 C35.4423453,27.4022477 35.2304029,27.1977569 34.3601007,27.2013132 M27.4402446,40.6205376 C27.4368777,39.7727895 27.2274388,39.5451823 26.4465755,39.5401145 C25.5866331,39.5346021 25.3919568,39.7328694 25.3882446,40.6179592 C25.3846187,41.4872232 25.5975108,41.7027388 26.4546043,41.697671 C27.2468633,41.6929588 27.4436978,41.4777988 27.4402446,40.6205376 M10.4294245,49.9202489 C11.2430935,49.9365192 11.5018273,49.6758378 11.5080432,48.8336022 C11.5139137,48.0479127 11.2591511,47.7803853 10.4860576,47.7603807 C9.69690647,47.7400205 9.4416259,47.9829201 9.42591367,48.7694098 C9.4081295,49.6574336 9.62326619,49.9042452 10.4294245,49.9202489 M16.3793525,16.9771254 C17.2066619,16.9934847 17.4732518,16.7368931 17.4803309,15.9180405 C17.4874101,15.103011 17.2354964,14.8173462 16.5004748,14.8066771 C15.6841295,14.7948522 15.4188345,15.0542889 15.402777,15.8797207 C15.3868058,16.7002625 15.6200719,16.9622776 16.3793525,16.9771254 M13.5030647,24.1973424 C13.5143741,23.3427483 13.278518,23.09078 12.4620863,23.0852677 C11.6343453,23.0796664 11.4168777,23.2861133 11.4042734,24.0892289 C11.3909784,24.9399999 11.6423741,25.2164182 12.4402446,25.2286876 C13.2053094,25.2405125 13.4928777,24.9615159 13.5030647,24.1973424 M7.51307914,48.8300458 C7.51644604,48.0447119 7.25615827,47.7714055 6.48902158,47.755224 C5.67966906,47.7380645 5.42110791,48.0037249 5.42308219,48.850406 C5.42499281,49.6806389 5.64522302,49.9134918 6.43100719,49.9163369 C7.25961151,49.9194487 7.50953957,49.6684584 7.51307914,48.8300458 M28.4145755,12.774838 C27.5847626,12.7780388 27.3720432,13.0047569 27.3704844,13.887624 C27.3691942,14.6712686 27.6282734,14.9293716 28.4137986,14.9269876 C29.2042446,14.9245705 29.4824892,14.6280588 29.4713525,13.7999596 C29.4607338,13.0108916 29.214259,12.7717262 28.4145755,12.774838 M9.49221583,36.5085818 C9.49515108,35.6604782 9.25368345,35.4075318 8.4442446,35.4105547 C7.65155396,35.4134887 7.42061871,35.6441189 7.40896403,36.4445673 C7.39644604,37.3004949 7.63972662,37.5723789 8.42456115,37.5795805 C9.25808633,37.5873156 9.48919424,37.3554407 9.49221583,36.5085818 M43.4134532,27.27004 C43.4134532,26.1955738 43.4083597,25.1211966 43.4152662,24.0468193 C43.4195827,23.3852469 43.1490216,23.0768213 42.4717554,23.0732915 C41.8078705,23.0699753 41.3316691,23.2017386 41.332359,24.0068991 C41.3341727,26.1555647 41.3330504,28.3042303 41.3412518,30.4529848 C41.3439281,31.1713701 41.7408777,31.4263613 42.403295,31.4165813 C43.0685612,31.4068902 43.4305468,31.1482538 43.4189784,30.4164432 C43.4025755,29.3679385 43.4148345,28.3188114 43.4134532,27.27004 M21.4669209,14.8064104 C21.4669209,13.1153598 21.473223,11.4242203 21.4644173,9.73325861 C21.4597554,8.84283424 21.2523885,8.64296664 20.404705,8.64647669 C19.590259,8.64999046 19.372705,8.87999823 19.3735658,9.86555531 C19.3764173,13.221695 19.3942878,16.5778347 19.4111223,19.9339745 C19.4158705,20.8841457 19.6026043,21.1017062 20.3846763,21.115665 C21.2247626,21.1306906 21.4581151,20.8918808 21.462518,19.9563795 C21.4707194,18.2397232 21.4648489,16.5230668 21.4669209,14.8064104 M17.4761871,32.3475482 L17.4508921,32.3475482 C17.4508921,30.9911514 17.4608201,29.6346657 17.4475252,28.2784467 C17.4383741,27.3402781 17.2823741,27.1932225 16.4099137,27.1961141 C15.5769065,27.1990905 15.4117554,27.3773532 15.4094245,28.3213008 C15.4045036,30.3435377 15.4074388,32.3657746 15.4062302,34.3879226 C15.4055396,35.4086877 15.4045899,35.4088655 14.4483885,35.4116217 C13.7523885,35.4135777 13.0563885,35.4221129 12.3605612,35.4138444 C11.6623165,35.4055758 11.3797554,35.7645907 11.3965036,36.4643051 C11.4161007,37.2845802 11.6280432,37.566422 12.3855108,37.5753129 C13.7523022,37.5913165 15.1196978,37.5629545 16.4864892,37.5826923 C17.1813669,37.5926501 17.4864604,37.279868 17.4799856,36.5706403 C17.467036,35.1630319 17.4761871,33.7552456 17.4761871,32.3475482 M11.4144604,45.7792198 L11.4144604,45.7740631 C13.7780288,45.7740631 16.1416835,45.7628606 18.5050791,45.7809091 C19.206259,45.7862437 19.5053957,45.4764844 19.4895971,44.7661009 C19.4713813,43.9465371 19.4629209,43.125284 19.5000432,42.3071427 C19.5090216,42.1096756 19.6764173,41.8014279 19.8350072,41.7487048 C20.8424892,41.4139621 21.3429496,41.7704875 21.3846475,42.8381966 C21.4101151,43.4904336 21.7154676,43.740268 22.3248777,43.7480031 C22.9323022,43.7557382 23.4489065,43.6775872 23.4674676,42.8957208 C23.4862878,42.1019405 23.4714388,41.3073602 23.4815349,40.5133132 C23.4898273,39.8383155 23.178777,39.5373583 22.5220576,39.5436709 C21.1290216,39.5573629 19.7354676,39.5578074 18.3424317,39.5383363 C17.6769065,39.5290009 17.3826043,39.8543192 17.3800144,40.5110905 C17.3769928,41.3054042 17.3439281,42.101496 17.3855396,42.8934091 C17.4173957,43.501725 17.2068345,43.688523 16.6202158,43.6843442 C13.2117842,43.6593608 9.80317986,43.6726972 6.39466187,43.6654066 C5.52997122,43.6635395 5.54542446,43.6237083 5.50441727,42.3407503 C5.47938129,41.5595952 5.97526619,41.7056728 6.40070504,41.7046059 C9.11253237,41.6982934 11.824446,41.7093181 14.5361871,41.6934923 C15.3124748,41.6889579 15.4774532,41.4368118 15.4841007,40.5676367 C15.4895396,39.8664997 15.2162158,39.5396699 14.5070935,39.5426929 C11.1483022,39.5568294 7.78951079,39.5426039 4.43080576,39.5488276 C3.6121295,39.550339 3.44844604,39.734203 3.44266187,40.6169812 C3.43368345,41.9748895 3.43394245,43.3328867 3.44283453,44.6908839 C3.44905036,45.645056 3.58536691,45.7762858 4.54761151,45.7778862 C6.83658993,45.7818871 9.12548201,45.7792198 11.4144604,45.7792198 M8.43664748,16.9773032 C9.78090647,16.9773032 11.1251655,16.9838825 12.4694245,16.9749916 C13.2948345,16.9693903 13.4906331,16.7693449 13.5009928,15.9378672 C13.5110935,15.117681 13.5196403,14.2967835 13.4994388,13.476953 C13.4879568,13.0114251 13.6713237,12.8351184 14.1161871,12.8446316 C14.9123309,12.8616133 15.7101151,12.820804 16.5055683,12.8504996 C17.1728201,12.8753942 17.479554,12.5704361 17.4798129,11.9027289 C17.4803309,10.4416861 17.4808489,8.98055439 17.4773957,7.51951158 C17.4755827,6.76867446 17.0458273,6.59147867 16.3954964,6.60028067 C15.7557842,6.60881594 15.3985468,6.83633426 15.4049353,7.53391485 C15.4116691,8.25167781 15.3640144,8.97290821 15.4184892,9.68631462 C15.4763309,10.4428419 15.2514388,10.7275288 14.4699712,10.7141924 C13.746259,10.7017452 13.4485899,10.5419755 13.4864892,9.72819079 C13.5508058,8.34698833 13.494259,6.9601846 13.505741,5.57587032 C13.5114388,4.88762518 13.2436403,4.51358471 12.5394388,4.51807833 C11.1205036,4.52727671 9.70148201,4.52496507 8.28254676,4.52078635 C7.68505036,4.51900816 7.41302158,4.85232828 7.41094964,5.42872581 C7.40343885,7.6077983 7.40611511,9.78678187 7.41155396,11.9658544 C7.41302158,12.5624342 7.71500719,12.8552118 8.29955396,12.8495216 C9.0961295,12.8418755 9.89503597,12.8837516 10.6887626,12.8340515 C11.4901727,12.7838178 11.4011655,13.3115821 11.4041871,13.8334784 C11.407295,14.3671995 11.4613381,14.8453525 10.6712374,14.8170794 C9.20430216,14.7645342 7.73382734,14.7786707 6.26576978,14.8097 C5.68467626,14.8220584 5.49707914,14.6439735 5.51011511,14.0213432 C5.55405755,11.9200662 5.54257554,9.81727769 5.53420144,7.71520046 C5.53057554,6.80788336 5.32571223,6.61450612 4.48433094,6.61166103 C3.63768345,6.60890485 3.45776978,6.77863227 3.45241727,7.71653409 C3.4368777,10.4595568 3.43558273,13.2026685 3.43696403,15.9457801 C3.43730935,16.7560085 3.65736691,16.9693014 4.47846043,16.9738358 C5.79785612,16.9811263 7.1172518,16.9757918 8.43664748,16.9773032 M39.4079568,27.251369 L39.4016547,27.251369 C39.4016547,25.4819896 39.3954388,23.7126101 39.4050216,21.9433195 C39.4084748,21.3113538 39.1501727,20.999283 38.5174532,20.9848797 C37.6157266,20.9641639 37.3632086,21.185014 37.3606187,22.1411422 C37.3531079,24.8848762 37.3402446,27.628877 37.3689907,30.3722554 C37.3760719,31.0516985 37.2197266,31.3594128 36.496705,31.2938868 C35.7802446,31.2290721 35.0537698,31.2876632 34.3316978,31.2802837 C33.6449353,31.2732599 33.3328489,31.608536 33.3476978,32.3185639 C33.365482,33.164267 33.3415683,34.0109481 33.3521871,34.8569179 C33.3568489,35.2390491 33.2234676,35.4350047 32.8308345,35.411266 C32.5827194,35.3961515 32.3313237,35.3901946 32.0844173,35.4140222 C31.5934532,35.4613218 31.4241583,35.2407384 31.4396115,34.7457816 C31.4654245,33.9262178 31.4320144,33.1046979 31.4480719,32.2845117 C31.4611079,31.6112033 31.1597266,31.2774386 30.5119856,31.2767274 C28.4453957,31.2745046 26.3786331,31.2608126 24.3123022,31.2836623 C23.5603597,31.2919308 23.3497122,31.6008898 23.3589496,32.4297891 C23.3666331,33.1178565 23.6418561,33.4655798 24.3544317,33.452688 C25.7732806,33.4269933 27.1944604,33.4886073 28.6114101,33.429216 C29.479295,33.3928522 29.3290791,33.9532461 29.3538561,34.4791433 C29.380705,35.049495 29.3439281,35.4471853 28.5887914,35.4305593 C26.4484748,35.3832597 24.3063453,35.4006858 22.1652518,35.4227353 C21.6621151,35.4278031 21.4469784,35.2886604 21.4558705,34.735646 C21.4811655,33.1718243 21.4834964,31.6070246 21.4554388,30.0433807 C21.4449065,29.4579144 21.6744604,29.2888094 22.2074676,29.2977003 C23.6264029,29.321439 25.0462014,29.2896096 26.464964,29.3133483 C27.1642446,29.3249954 27.4589784,29.0280391 27.4462878,28.3050305 C27.4306619,27.4042927 27.3229209,27.2002463 26.5084748,27.1930447 C24.4176259,27.1744627 22.3264317,27.1990016 20.2354101,27.202558 C19.5853381,27.203536 19.3682158,27.5934912 19.3689907,28.1933607 C19.3728777,30.9370947 19.363036,33.6808287 19.386259,36.424296 C19.3947194,37.4210556 19.5823165,37.5789581 20.5470647,37.5807363 C23.1615108,37.5855374 25.7763022,37.6085649 28.3900576,37.5672221 C29.1277554,37.5555751 29.4124748,37.7483299 29.37,38.5487783 C29.323554,39.4248883 29.5891079,39.6291125 30.4386906,39.6170208 C31.2568489,39.6051959 31.4793237,39.40764 31.4358993,38.4733834 C31.4024029,37.7525976 31.6476691,37.524368 32.3240719,37.5714009 C33.0428633,37.62119 33.7675252,37.5721121 34.4894245,37.5812698 C35.1445899,37.5897161 35.4516691,37.2605748 35.4507194,36.5966907 C35.4495971,35.7760599 35.4748921,34.9548068 35.4471799,34.135243 C35.4288777,33.5928976 35.6390935,33.413657 36.1511223,33.4362399 C36.8967626,33.4690473 37.6448201,33.4509099 38.3917554,33.4405075 C39.2417698,33.4285937 39.4013094,33.2709579 39.4055396,32.405517 C39.4138273,30.6875269 39.4079568,28.969448 39.4079568,27.251369 M5.53955396,31.2766385 C5.53955396,30.8901507 5.53955396,30.6138213 5.53955396,30.3374919 C5.53964029,27.1327643 5.54058993,23.9279479 5.53869065,20.7232203 C5.53851799,20.4159506 5.52341007,20.1085919 5.51054676,19.8014999 C5.478,19.0277243 4.98574101,18.9265457 4.37097842,18.9381039 C3.75941007,18.9494843 3.43938129,19.2097211 3.43972634,19.8577794 C3.44188489,24.0879842 3.44179856,28.3182779 3.44033094,32.5486606 C3.44007194,33.148619 3.71365468,33.4456642 4.30571223,33.4448679 C7.06890647,33.4404186 9.83227338,33.4390849 12.595554,33.4448679 C13.2198129,33.4461088 13.5050504,33.1452405 13.5023741,32.5062509 C13.4963309,31.0705472 13.4964173,29.6346657 13.5091942,28.1990509 C13.5156691,27.4776426 13.1782014,27.1835314 12.4954101,27.2019356 C11.7242158,27.2226514 10.951554,27.1864654 10.1805324,27.2106487 C9.72056115,27.2252298 9.48997122,27.0928442 9.49601439,26.5689919 C9.51466187,24.9540475 9.50741007,23.3386585 9.49903597,21.7235363 C9.4968777,21.3196224 9.62128058,21.1062406 10.0544892,21.1101526 C11.647554,21.1246448 13.240964,21.1267786 14.8341151,21.1155761 C15.2550647,21.1126421 15.4122734,21.2966838 15.4058849,21.713045 C15.3945755,22.4563249 15.400446,23.2000493 15.4058849,23.9434181 C15.4141727,25.075764 15.5605899,25.2264649 16.6647626,25.2269983 C21.7930791,25.2293989 26.9213957,25.2294878 32.0497122,25.2303769 C32.8462878,25.2304658 33.6434676,25.2485143 34.4393525,25.2252202 C35.2304029,25.2021038 35.4489928,24.9608046 35.4514101,24.1363507 C35.4576259,22.0853962 35.4571942,20.0344417 35.4481295,17.9834872 C35.4440719,17.0777705 35.2803022,16.916934 34.386,16.9115105 C33.1910935,16.90422 31.9961871,16.910977 30.8011942,16.9121329 C29.4344029,16.9135554 29.4159281,16.912933 29.3591223,18.288801 C29.3386619,18.7822463 29.1704029,18.9690443 28.6902302,18.9527739 C27.894518,18.9256567 27.0947482,18.9066301 26.3013669,18.9583752 C25.638259,19.0016739 25.4400432,18.7530841 25.4516115,18.0816428 C25.4874388,16.0056159 25.4699137,13.9284333 25.4643885,11.851784 C25.4618849,10.8884542 25.1571367,10.6281284 24.2339137,10.7017452 C23.5057122,10.7598028 23.3542878,11.2189292 23.3556691,11.8626309 C23.3631799,15.2980775 23.3358129,18.7338798 23.3722446,22.1688818 C23.3803597,22.9278986 23.1459712,23.1297222 22.4386619,23.103494 C21.0214532,23.0508599 19.601223,23.0896242 18.1822014,23.084912 C17.9688777,23.0842008 17.7556403,23.0521046 17.4817122,23.0295217 C17.4817122,21.9397632 17.4871511,20.9164197 17.4796403,19.8931652 C17.4751511,19.2844048 17.2121007,18.9413047 16.5718705,18.9432607 C13.8085899,18.9519737 11.0453094,18.9461057 8.28202878,18.9463725 C7.69964029,18.9463725 7.40835971,19.2523086 7.40844604,19.8485328 C7.4088777,22.7199403 7.41233094,25.5913477 7.41181295,28.4627552 C7.41181295,29.0409309 7.69661871,29.3030348 8.24456115,29.3017012 C9.04113669,29.2998341 9.83961151,29.338065 10.6337698,29.2934327 C11.2242734,29.2601807 11.4683309,29.4734735 11.404964,30.0785887 C11.3810504,30.307085 11.4597842,30.5691 11.3757842,30.7623884 C11.2869496,30.9669681 11.0629209,31.2510326 10.8931942,31.254589 C9.1536259,31.2905972 7.41310791,31.2766385 5.53955396,31.2766385 M-4.31654676e-05,28.1330803 C0.147496403,22.3130924 0.205251799,17.3140908 0.427726619,12.3230021 C0.552647482,9.51729847 0.81923741,6.70074792 1.75497842,4.01773881 C2.91889209,0.680358905 5.39719424,-0.629182842 8.72248921,0.317165339 C12.1485324,1.29223115 15.3141151,2.90735338 18.4418849,4.58942415 C27.184446,9.29102488 35.6184604,14.5126548 43.4864892,20.6594725 C44.5904892,21.5219794 45.667036,22.4659271 46.5824029,23.5307021 C48.3784317,25.6202432 48.4882446,28.7400626 46.6603597,30.7801702 C45.2074964,32.4016939 43.4881295,33.8058349 41.7514101,35.1157323 C33.7281583,41.1668838 25.2074676,46.3928703 16.312964,50.9576399 C13.9438705,52.1734715 11.4629784,53.2379799 8.93063309,54.0185126 C5.02277698,55.2230527 2.48490647,53.6432274 1.49054676,49.570036 C1.03238849,47.6934322 0.677309353,45.7547698 0.57742446,43.8276657 C0.292532374,38.3280171 0.162604317,32.8199222 -4.31654676e-05,28.1330803" id="Fill-1" fill="#9B8441" mask="url(#mask-2)"></path>
                </g>
                <path d="M10.4861094,47.8320681 C11.2592029,47.8520727 11.5138791,48.1195111 11.508095,48.9052006 C11.5017928,49.7475252 11.243059,50.0082066 10.4293899,49.9919362 C9.62331799,49.9758437 9.40809496,49.729121 9.42587914,48.8410972 C9.44159137,48.0546075 9.69695827,47.8117079 10.4861094,47.8320681 Z M6.48896115,47.8268492 C7.25609784,47.8431195 7.51647194,48.1163371 7.51310504,48.9016709 C7.50947914,49.7401724 7.25963741,49.9910738 6.43103309,49.9880509 C5.64524892,49.9852058 5.42501871,49.7522641 5.42310809,48.9220311 C5.42113381,48.07535 5.67969496,47.8097786 6.48896115,47.8268492 Z M18.3424058,39.6100059 C19.7354417,39.6293881 21.1289957,39.6290325 22.522118,39.6153405 C23.1787511,39.6090279 23.4898878,39.9099851 23.4815123,40.5848939 C23.4714129,41.3790298 23.4862619,42.1736102 23.4674417,42.9673904 C23.4488806,43.7492568 22.9322763,43.8274078 22.3248518,43.8196727 C21.7154417,43.8119377 21.4100892,43.5621032 21.3846216,42.9098662 C21.3429237,41.8421571 20.8424633,41.4856317 19.8350676,41.8203744 C19.6763914,41.8730975 19.5089957,42.1813452 19.5001036,42.3788123 C19.4629813,43.1968647 19.4714417,44.0182067 19.4896576,44.8376816 C19.5054561,45.548154 19.2062331,45.8579133 18.5050532,45.8525787 C16.1416576,45.8344413 13.7780029,45.8456438 11.4144345,45.8456438 L11.4144345,45.8508894 C9.12545612,45.8508894 6.83656403,45.8535567 4.54758561,45.8495558 C3.58534101,45.8479554 3.44902446,45.7167256 3.44280863,44.7625535 C3.43400288,43.4045563 3.43374388,42.0465591 3.44263597,40.6885619 C3.44842014,39.8058726 3.6121036,39.6219197 4.43077986,39.6204972 C7.78957122,39.6142736 11.1482763,39.628499 14.5070676,39.6142736 C15.2161899,39.6113396 15.4896,39.9381693 15.4841612,40.6393063 C15.4774273,41.5084814 15.3124489,41.7606275 14.5361612,41.7651619 C11.8244201,41.7809877 9.11250647,41.769963 6.40067914,41.7762755 C5.97532662,41.7773424 5.4793554,41.6312648 5.50439137,42.4124199 C5.54548489,43.6953779 5.52994532,43.7352091 6.3947223,43.7370762 C9.80315396,43.7443668 13.2117583,43.7310304 16.6201899,43.7560138 C17.206895,43.7601926 17.4173698,43.5733946 17.3855137,42.9650787 C17.3439885,42.1731656 17.3769669,41.3770738 17.3800748,40.5827601 C17.3825784,39.9259888 17.6768806,39.6006705 18.3424058,39.6100059 Z M26.4465755,39.6118374 C27.2274388,39.6168164 27.4368777,39.8445125 27.4402446,40.6921716 C27.4436978,41.5495218 27.2468633,41.7646818 26.4546043,41.769305 C25.5975108,41.7744618 25.3845324,41.5588573 25.3881583,40.6896821 C25.3918705,39.8045923 25.5866331,39.6062362 26.4465755,39.6118374 Z M38.5174532,21.056496 C39.1501727,21.0709882 39.4084748,21.383059 39.4050216,22.0150247 C39.3953525,23.7843153 39.4016547,25.5536947 39.4016547,27.3229853 L39.4079568,27.3229853 C39.4079568,29.0410642 39.4138273,30.7591432 39.4055396,32.4772221 C39.4013094,33.3425741 39.2417698,33.5002988 38.3917554,33.5121237 C37.6448201,33.5225261 36.8967626,33.5407525 36.1511223,33.5078561 C35.6390935,33.4853621 35.4288777,33.6645139 35.4471799,34.2069482 C35.4748921,35.026512 35.4495108,35.8477651 35.4507194,36.668307 C35.4516691,37.332191 35.1445899,37.6613324 34.4894245,37.652975 C33.7675252,37.6437284 33.0428633,37.6928951 32.3240719,37.6430171 C31.6476691,37.5960731 31.4024029,37.8242138 31.4358993,38.5450886 C31.4793237,39.4793451 31.2568489,39.6768122 30.4386043,39.6886371 C29.5891079,39.7008176 29.3234676,39.4965935 29.37,38.6203946 C29.4124748,37.8199462 29.1277554,37.6271913 28.3900576,37.6388384 C25.7763022,37.6801811 23.1615108,37.6571537 20.5470647,37.6524415 C19.5823165,37.6505744 19.3947194,37.4927608 19.386259,36.4960012 C19.3629496,33.752445 19.3728777,31.008711 19.3689907,28.2650659 C19.3682158,27.6651963 19.5853381,27.2752411 20.2354101,27.2741742 L24.41753,27.2581047 C25.1145372,27.2571037 25.8115252,27.2585262 26.5084748,27.2647499 C27.3229209,27.2719515 27.4306619,27.4759978 27.4462878,28.3767356 C27.4589784,29.0996553 27.1642446,29.3966116 26.464964,29.3849645 C25.0462014,29.3613147 23.6264029,29.3930553 22.2074676,29.3694055 C21.6744604,29.3604256 21.4449065,29.5295307 21.4554388,30.114997 C21.4834101,31.6786408 21.4811655,33.2435294 21.4558705,34.8073511 C21.4469784,35.3602767 21.6621151,35.4995083 22.1651655,35.4943515 C24.3063453,35.4723021 26.4484748,35.4549648 28.5887914,35.5021755 C29.3439281,35.5188905 29.380705,35.1212002 29.3538561,34.5508485 C29.3290791,34.0249513 29.479295,33.4644685 28.6113237,33.5008323 C27.1944604,33.5602236 25.7731942,33.4986985 24.3544317,33.5243043 C23.6417698,33.537285 23.3666331,33.1894727 23.3589496,32.5014054 C23.3497122,31.672595 23.5603597,31.3635471 24.3123022,31.3553674 C26.3786331,31.3325178 28.4453957,31.3462098 30.5119856,31.3483436 C31.1597266,31.3490549 31.4611079,31.6828196 31.4480719,32.356128 C31.4320144,33.1764031 31.4654245,33.997834 31.4396115,34.8174868 C31.4241583,35.3123547 31.5934532,35.533027 32.0844173,35.4857274 C32.3313237,35.4618997 32.5827194,35.4677677 32.8308345,35.4828823 C33.2234676,35.5067099 33.3568489,35.3107543 33.3521871,34.9286231 C33.341482,34.0825644 33.365482,33.2359722 33.3476978,32.3901801 C33.3328489,31.6802412 33.6449353,31.3448762 34.3316978,31.3519 C35.0536835,31.3592794 35.7802446,31.3006884 36.496705,31.365592 C37.2197266,31.4310291 37.3760719,31.1233148 37.3689907,30.4439605 C37.3402446,27.7004932 37.3531079,24.9564925 37.3606187,22.2127585 C37.3632086,21.2566303 37.6157266,21.0358691 38.5174532,21.056496 Z M16.4098791,27.2678522 C17.2823396,27.2648743 17.4383396,27.4120189 17.4474906,28.3500985 C17.4607856,29.7063175 17.4509439,31.0628032 17.4509439,32.4192001 L17.4761525,32.4192001 C17.4761525,33.8268974 17.4670878,35.2346837 17.4799511,36.6422922 C17.4864259,37.3516088 17.1813324,37.664302 16.4864547,37.6543442 C15.1197496,37.6346063 13.752354,37.6629683 12.3854763,37.6469647 C11.6280086,37.6380738 11.4160662,37.356232 11.3964691,36.5359569 C11.3798072,35.8363314 11.6623683,35.4773166 12.3605266,35.4854962 C13.056354,35.4937647 13.7524403,35.4852295 14.448354,35.4832735 C15.4046417,35.4806062 15.4055914,35.4803395 15.4061957,34.4595744 C15.4074043,32.4374264 15.4044691,30.4151895 15.4094763,28.3929527 C15.4117209,27.449005 15.5768719,27.2707423 16.4098791,27.2678522 Z M4.49248921,35.4862164 C5.29389928,35.4966187 5.49617266,35.7296494 5.49004317,36.6352772 C5.48460432,37.4299465 5.24926619,37.6579983 4.44060432,37.6523081 C3.6432518,37.6467069 3.42267626,37.3929604 3.44382734,36.5057367 C3.46290647,35.7040436 3.69755396,35.4759029 4.49248921,35.4862164 Z M8.44421007,35.4821799 C9.25373525,35.479157 9.49511655,35.7321033 9.49218129,36.580207 C9.48924604,37.4270659 9.2580518,37.6590297 8.42461295,37.6512946 C7.63969209,37.6440929 7.39641151,37.3721201 7.4089295,36.5161924 C7.42058417,35.715744 7.65151942,35.4852028 8.44421007,35.4821799 Z M25.4644144,11.9234447 C25.4698532,14.000094 25.4874647,16.0772767 25.4516374,18.1533035 C25.4400691,18.8248338 25.6382849,19.0733346 26.3013065,19.0300359 C27.0947741,18.9782908 27.8944576,18.9973174 28.6901698,19.0244346 C29.1704288,19.040705 29.3386878,18.853907 29.3590619,18.3604617 C29.415954,16.9845938 29.4343424,16.9852161 30.8011338,16.9837936 C31.9961266,16.9826378 33.1911194,16.9758807 34.3860259,16.9831712 C35.2802417,16.9885947 35.4440978,17.1494312 35.4481554,18.0551479 C35.4572201,20.1061024 35.4576518,22.1570569 35.451436,24.2080115 C35.4489324,25.0324653 35.2304288,25.2737645 34.4393784,25.2968809 C33.6434072,25.3201751 32.8463137,25.3021265 32.0496518,25.3020376 C26.9214216,25.3011485 21.793105,25.3010596 16.6647885,25.2986591 C15.5605295,25.2981256 15.4141986,25.1474247 15.4059108,24.0150788 C15.4004719,23.27171 15.3945151,22.5279856 15.4059108,21.7847057 C15.4122993,21.3683445 15.2550043,21.1843028 14.834141,21.1872368 C13.2409899,21.1984393 11.6475799,21.1963055 10.0544288,21.1818133 C9.62130647,21.1779013 9.4969036,21.3912831 9.49897554,21.795197 C9.50743597,23.4103192 9.51468777,25.0257082 9.49604029,26.6406526 C9.48999712,27.1645049 9.72058705,27.2968905 10.1805583,27.2823094 C10.9515799,27.2581261 11.7242417,27.2943121 12.495436,27.2735963 C13.1782273,27.2551921 13.5156086,27.5493034 13.5092201,28.2707116 C13.4964432,29.7063264 13.4963568,31.1422079 13.5023137,32.5779117 C13.5050763,33.2169012 13.2198388,33.5177695 12.5955799,33.5165286 C9.83229928,33.5107457 7.06893237,33.5120793 4.3056518,33.5165286 C3.71359424,33.5173249 3.44009784,33.2202797 3.4402705,32.6203213 C3.44173813,28.3899386 3.44191079,24.1596449 3.43966603,19.9294401 C3.43966603,19.2813819 3.75943597,19.021145 4.37100432,19.0097646 C4.98576691,18.9982065 5.47793957,19.099385 5.51057266,19.8731607 C5.52343597,20.1802526 5.53845755,20.4876113 5.53863022,20.794881 L5.53988201,25.6020168 L5.53988201,25.6020168 L5.53957986,31.3482992 L5.53957986,31.3482992 C7.41313381,31.3482992 9.1536518,31.3622579 10.8932201,31.3262497 C11.0629468,31.3226934 11.2869755,31.0386289 11.3758101,30.8340491 C11.4598101,30.6407608 11.3810763,30.3787457 11.4049899,30.1502494 C11.4682705,29.5451342 11.2242993,29.3318414 10.6337957,29.3650934 C9.83963741,29.4097257 9.04116259,29.3714948 8.24458705,29.3733619 C7.6966446,29.3746955 7.41175252,29.1125916 7.41183885,28.5344159 C7.41235683,25.6630084 7.4089036,22.791601 7.40847194,19.9201936 C7.40838561,19.3239693 7.69966619,19.0180332 8.28196835,19.0180332 C11.0453353,19.0177665 13.8086158,19.0236345 16.5718964,19.0149214 C17.2121266,19.0129654 17.475177,19.3560655 17.4796662,19.9648259 C17.487177,20.9880804 17.4817381,22.0114239 17.4817381,23.1011824 C17.7556662,23.1237653 17.9689036,23.1558615 18.1822273,23.1565727 C19.6011626,23.1612849 21.0214791,23.1225206 22.4386878,23.1751547 C23.1459971,23.2013829 23.3803856,22.9995593 23.3722705,22.2405426 C23.3357525,18.8055405 23.3631194,15.3697383 23.355695,11.9342916 C23.3543137,11.2905899 23.5057381,10.8314635 24.2339396,10.7734059 C25.1570763,10.6997892 25.4619108,10.9601149 25.4644144,11.9234447 Z M42.4717813,23.1449967 C43.1490475,23.1485265 43.4195223,23.4569521 43.4152921,24.1185245 C43.4083856,25.1929017 43.4133928,26.267279 43.4140835,27.3417451 C43.4148604,28.3905166 43.4025151,29.4396436 43.4190043,30.4881483 C43.4304863,31.21987 43.0685871,31.4785065 42.4033209,31.4882865 C41.7409036,31.4979776 41.343954,31.2430753 41.3411914,30.52469 C41.3330763,28.3759355 41.3341122,26.2272699 41.3323849,24.0785154 C41.331695,23.2734437 41.8078964,23.1416805 42.4717813,23.1449967 Z M30.4522446,27.2703067 C31.2495971,27.2789309 31.4566187,27.5187186 31.4415108,28.4163446 C31.4283022,29.2052349 31.2293094,29.3824306 30.3614245,29.377185 C29.5999856,29.3726506 29.357223,29.1382863 29.3538561,28.4044308 C29.3498849,27.5308103 29.6111223,27.261149 30.4522446,27.2703067 Z M34.3601266,27.272974 C35.2304288,27.2694176 35.4422849,27.4739085 35.4513496,28.3257463 C35.4601554,29.1593578 35.2620259,29.3669605 34.4478388,29.3770072 C33.5758101,29.3877652 33.361105,29.1828298 33.3529899,28.3320588 C33.3452201,27.5180963 33.5752921,27.2760858 34.3601266,27.272974 Z M12.4620518,23.1569195 C13.2784835,23.1624319 13.5143396,23.4144002 13.5030302,24.2689942 C13.4928432,25.0331677 13.2053612,25.3121644 12.4402101,25.3004284 C11.6423396,25.28807 11.3910302,25.0116517 11.4042388,24.1608808 C11.4168432,23.3577651 11.6343108,23.1513182 12.4620518,23.1569195 Z M31.6634935,19.2002079 C31.5208748,19.238261 31.5126734,19.819015 31.4488748,20.1526019 C31.4347165,20.2265742 31.4377381,20.306948 31.4474072,20.3824318 C31.5312345,21.0398255 31.2221698,21.2134649 30.6254504,21.1979948 C29.2835223,21.1631424 27.9402129,21.1856364 26.5974216,21.1867033 L26.3377612,21.1875721 C25.4259991,21.1957636 25.4481013,21.2878107 25.453105,22.4280518 C25.455695,22.9981368 25.647695,23.1879577 26.1958964,23.1699091 C27.2640691,23.1346122 28.3340547,23.1595067 29.4033496,23.157284 C30.5222849,23.157284 31.6413928,23.1482153 32.7602417,23.162174 C33.1549468,23.167064 33.3623137,23.0472146 33.3544576,22.5987572 C33.3370187,21.6259141 33.3580835,20.6523598 33.3366734,19.6796945 C33.3327022,19.502232 33.2154647,19.184471 33.1276662,19.175669 C32.6396374,19.1269468 32.1251914,19.0768021 31.6634935,19.2002079 Z M20.4047396,8.71812852 C21.252423,8.71461846 21.4597036,8.91448606 21.4643655,9.80491043 C21.4731712,11.4958721 21.4669554,13.1870116 21.4659194,14.8780622 C21.4648835,16.5947186 21.470754,18.311375 21.4625525,20.0280314 C21.4580633,20.9635326 21.2247971,21.2023424 20.3846245,21.1873168 C19.6026388,21.1733581 19.415905,20.9557976 19.4111568,20.0056263 C19.3943223,16.6494866 19.3763655,13.2933469 19.373514,9.93720714 C19.3726532,8.95165005 19.5902935,8.72164228 20.4047396,8.71812852 Z M12.5394216,4.58971393 C13.243623,4.58530766 13.5114216,4.95925922 13.5057237,5.64750436 C13.4942417,7.03181864 13.5507885,8.41862238 13.4864719,9.79982484 C13.4485727,10.6136096 13.7462417,10.7733792 14.469954,10.7858265 C15.2514216,10.7992517 15.4763137,10.5145649 15.4184719,9.75794866 C15.3639971,9.04454225 15.4116518,8.32331185 15.4050043,7.6055489 C15.3985295,6.90805721 15.7557669,6.68053889 16.3954791,6.67191471 C17.0458101,6.66320162 17.4755655,6.8403085 17.4773784,7.59123453 C17.4808317,9.05227734 17.4804,10.5133202 17.4797957,11.9744519 C17.4795367,12.6420701 17.1728892,12.9470282 16.5055511,12.9221337 C15.7100978,12.892527 14.9123137,12.9333362 14.1161698,12.9163546 C13.6713065,12.9068413 13.4879396,13.0830591 13.4994216,13.548587 C13.519623,14.3684176 13.5110763,15.1893151 13.5009755,16.0095902 C13.4906158,16.8409789 13.2949036,17.0411133 12.4694072,17.0466256 C11.1251482,17.0555165 9.78088921,17.0490262 8.43663022,17.048226 C7.11723453,17.0475147 5.79783885,17.0527603 4.4785295,17.0455587 C3.65734964,17.0409354 3.43729209,16.8276426 3.43694676,16.0174142 C3.43556547,13.2743025 3.43686043,10.5311909 3.4524,7.78816813 C3.45775252,6.85026631 3.63766619,6.68053889 4.48431367,6.68338398 C5.32578129,6.68614016 5.5306446,6.8795174 5.5342705,7.7868345 C5.54255827,9.88891173 5.55412662,11.9917002 5.51009784,14.0929773 C5.49706187,14.7156075 5.68465899,14.8936924 6.26575252,14.8814229 C7.7338964,14.8503048 9.20428489,14.8361682 10.6712201,14.8887135 C11.4148444,14.9154071 11.4107148,14.4934231 11.4050648,13.9987188 L11.4041698,13.9052013 C11.4011482,13.3832161 11.4901554,12.8554519 10.6887453,12.9056855 C9.89501871,12.9554746 9.09611223,12.9135095 8.29953669,12.9211557 C7.71498993,12.9268459 7.41300432,12.6340683 7.41153669,12.0374884 C7.40609784,9.85850482 7.40342158,7.67943234 7.41093237,5.50044876 C7.41300432,4.92396232 7.68503309,4.5906422 8.28261583,4.59242039 C9.70155108,4.59668802 11.1204863,4.59891075 12.5394216,4.58971393 Z M16.5004748,14.8783734 C17.2354964,14.8890425 17.4874101,15.1746184 17.4803309,15.9897368 C17.4732518,16.8085894 17.2066619,17.065092 16.3793525,17.0488217 C15.6200719,17.0339739 15.3868058,16.7718699 15.402777,15.9513281 C15.4188345,15.1259851 15.6841295,14.8665485 16.5004748,14.8783734 Z M28.4145928,12.846481 C29.2142763,12.8433691 29.4607511,13.0825345 29.4713698,13.8716026 C29.4825065,14.6997017 29.2041755,14.9963024 28.4138158,14.9987183 C27.6282906,15.0010145 27.3692115,14.7430004 27.3705016,13.9593558 C27.3720604,13.0763998 27.5847799,12.8496817 28.4145928,12.846481 Z M9.49530647,7.38256494 C9.51309065,8.20123969 9.54088921,9.02418208 9.48218417,9.83903374 C9.42675971,10.6067636 9.72736403,10.8132105 10.4266446,10.7719566 C11.3954504,10.7146992 11.3978676,10.7532857 11.4012345,9.72389649 L11.4014072,8.72544759 L11.4014072,8.72544759 L11.3960547,8.72544759 L11.3911562,7.80365807 C11.3917573,7.65009234 11.3941842,7.49660564 11.4001122,7.34326713 C11.4161698,6.92735048 11.2690619,6.71636925 10.8425871,6.74588706 C10.5950763,6.7629576 10.3442849,6.76749197 10.0974647,6.74686506 C9.63568058,6.70836743 9.48555108,6.93108466 9.49530647,7.38256494 Z" id="Combined-Shape" fill="#CBC592"></path>
                <path d="M11.4014072,8.72544759 C11.4014072,9.05823425 11.4023568,9.39102091 11.4012345,9.72389649 C11.3978676,10.7532857 11.3954504,10.7146992 10.4266446,10.7719566 C9.72736403,10.8132105 9.42675971,10.6067636 9.48218417,9.83903374 C9.54088921,9.02418208 9.51309065,8.20123969 9.49530647,7.38256494 C9.48555108,6.93108466 9.63568058,6.70836743 10.0974647,6.74686506 C10.3442849,6.76749197 10.5950763,6.7629576 10.8425871,6.74588706 C11.2690619,6.71636925 11.4161698,6.92735048 11.4001122,7.34326713 C11.3823281,7.80328268 11.3960547,8.26463186 11.3960547,8.72544759 L11.4014072,8.72544759 Z" id="Fill-40" fill="#9B8441"></path>
                <path d="M29.4033496,23.1584132 C28.3340547,23.159569 27.2640691,23.1345855 26.1958964,23.1698824 C25.647695,23.187931 25.455695,22.998199 25.453105,22.4280251 C25.4476662,21.1886326 25.4220259,21.1876546 26.5974216,21.1866766 C27.9402129,21.1856986 29.2835223,21.1631157 30.6254504,21.1979681 C31.2221698,21.2134383 31.5312345,21.0397988 31.4474072,20.3824052 C31.4377381,20.3070103 31.4347165,20.2265476 31.4488748,20.1525752 C31.5126734,19.8189884 31.5208748,19.2382343 31.6634935,19.2001812 C32.1251914,19.0767754 32.6396374,19.1269201 33.1276662,19.1757312 C33.2154647,19.1844443 33.3327022,19.5022053 33.3366734,19.6797567 C33.3580835,20.6523331 33.3370187,21.6259764 33.3544576,22.5987305 C33.3623137,23.0471879 33.1549468,23.1671263 32.7602417,23.1621473 C31.6413928,23.1482775 30.5222849,23.1572573 29.4033496,23.1584132" id="Fill-38" fill="#9B853E"></path>
            </g>
        </g>
    </g>
</svg>