<?xml version="1.0" encoding="UTF-8"?>
<svg width="400px" height="162px" viewBox="0 0 400 162" version="1.1" xmlns="http://www.w3.org/2000/svg" xmlns:xlink="http://www.w3.org/1999/xlink">
    <!-- Generator: Sketch 64 (93537) - https://sketch.com -->
    <title>Group 12</title>
    <desc>Created with Sketch.</desc>
    <g id="I.--Modules" stroke="none" stroke-width="1" fill="none" fill-rule="evenodd" stroke-linecap="round" stroke-linejoin="round">
        <g id="Headers-and-Footers-/-Page-Footer---Homepage" transform="translate(-945.000000, -235.000000)">
            <g id="Group-12" transform="translate(946.000000, 236.000000)">
                <path d="M28.4467522,109.947829 C12.7362222,109.947829 0,122.683724 0,138.394581 C0,146.935192 3.76383099,154.596516 9.72292975,159.810973 L47.1712299,159.810973 C53.1303287,154.596516 56.8938321,146.934864 56.8938321,138.394581 C56.8938321,122.683724 44.1579374,109.947829 28.4467522,109.947829 Z M28.4467522,153.659571 C25.3269888,153.659571 22.4837222,154.843529 20.3418537,156.78687 L20.3418537,159.810645 L28.4467522,153.659571 Z" id="Stroke-23" stroke="#AE9859"></path>
                <line x1="20.3418537" y1="156.78687" x2="28.4467522" y2="156.78687" id="Stroke-24" stroke="#AE9859"></line>
                <path d="M28.4467522,153.659571 C31.5668433,153.659571 34.4101098,154.843529 36.5519783,156.78687 L36.5519783,159.810645" id="Stroke-25" stroke="#AE9859"></path>
                <path d="M36.5519783,156.78687 L28.4467522,156.78687 L36.5519783,156.78687 Z M0.818679924,131.595181 L13.1303287,159.812283 L0.818679924,131.595181 Z M5.21085349,121.982981 L20.387063,156.766558 L5.21085349,121.982981 Z M11.1139321,115.834528 L27.6300379,153.688073 L11.1139321,115.834528 Z M17.9965438,111.929827 L38.8982711,159.836198 L17.9965438,111.929827 Z M25.7725288,110.073301 L47.3887583,159.617032 L25.7725288,110.073301 Z M34.5938951,110.613191 L52.9924078,152.781595 L34.5938951,110.613191 Z M45.3029099,115.478423 L56.71234,141.629334 L45.3029099,115.478423 Z M56.0751521,131.595509 L43.7644862,159.810973 L56.0751521,131.595509 Z M51.6833062,121.982653 L36.5064415,156.767213 L51.6833062,121.982653 Z M45.7798999,115.834528 L29.276243,153.659571 L45.7798999,115.834528 Z M38.8976159,111.928845 L17.995561,159.835871 L38.8976159,111.928845 Z M31.1216308,110.073301 L9.50507375,159.61736 L31.1216308,110.073301 Z M22.2992817,110.614501 L3.90142425,152.781595 L22.2992817,110.614501 Z M11.5912497,115.478096 L0.181819671,141.627696 L11.5912497,115.478096 Z M28.4474074,159.810645 L29.6752635,159.810645 L29.6752635,157.708417 L28.4474074,157.708417 L28.4474074,159.810645 Z M27.2185685,159.810645 L28.4467522,159.810645 L28.4467522,157.708417 L27.2185685,157.708417 L27.2185685,159.810645 Z" id="Stroke-26" stroke="#CAC5A1"></path>
                <path d="M208.819982,61.8013252 L212.253262,61.8013252 M208.819982,61.8013252 L205.386703,61.8013252 M205.389979,61.8013252 L212.253262,61.8013252 M222.74311,159.836198 C222.74311,159.836198 225.347554,140.635714 222.562928,127.81497 C220.289364,117.361158 214.389233,100.540054 214.389233,100.540054 L217.730784,100.540054 M215.083752,102.396252 L226.081385,102.396252 M215.657057,104.252778 L226.169838,104.252778 M216.276227,106.109305 L226.248462,106.109305 M216.885568,107.965503 L226.353295,107.965503 M217.485082,109.82203 L226.41554,109.82203 M218.074767,111.678556 L226.595722,111.678556 M218.654625,113.534755 L226.736591,113.534755 M219.221378,115.391281 L226.890564,115.391281 M219.811063,117.247807 L227.057642,117.247807 M220.315572,119.104006 L227.237823,119.104006 M220.839737,120.960532 L227.434385,120.960532 M221.340969,122.817058 L227.644051,122.817058 M221.822546,124.673257 L227.873373,124.673257 M222.271362,126.529783 L228.122352,126.529783 M222.680866,128.386309 L228.394262,128.386309 M223.051057,130.242508 L228.685829,130.242508 M223.277103,132.099034 L229.003604,132.099034 M223.480217,133.955561 L229.350863,133.955561 M223.63419,135.811759 L229.734158,135.811759 M223.739023,137.668286 L230.156766,137.668286 M223.80782,139.524812 L230.628515,139.524812 M223.847132,141.38101 L231.155955,141.38101 M223.847132,143.237537 L231.762021,143.237537 M223.820924,145.094063 L232.469643,145.094063 M223.758679,146.950262 L233.327963,146.950262 M223.689883,148.806788 L234.435262,148.806788 M223.588326,150.663314 L236.138797,150.663314 M223.463837,152.519513 L258.654952,152.519513 M223.316415,154.376039 L259.598449,154.376039 M223.168994,155.995053 L259.598449,155.995053 M203.005029,61.8013252 L204.970647,59.8357071 M206.936265,61.8013252 L208.901883,59.8357071 M206.936265,61.8013252 L204.970647,59.8357071 M210.867501,61.8013252 L212.833119,59.8357071 M210.867501,61.8013252 L208.901883,59.8357071 M214.798737,61.8013252 L212.833119,59.8357071 M207.470258,63.1982244 L213.589882,69.3168658 M197.222836,63.1988796 L213.832308,79.8113007 M189.101557,65.329282 L215.378594,91.6059919 M190.212131,76.689244 L214.566139,101.043252 M192.620013,89.3491347 L219.460528,116.190632 M198.680669,105.661799 L222.96588,129.94701 M202.29413,119.52432 L223.84058,141.070443 M203.902661,131.383877 L223.565394,151.044972 M204.682356,142.413943 L222.104284,159.835543 M205.003407,152.985692 L211.853586,159.835543 M197.226112,63.1933103 L189.533993,70.883791 M207.473534,63.1965864 L190.70026,79.9695329 M213.609538,67.3093146 L192.410347,88.508833 M213.727475,77.4420757 L194.782193,96.3873578 M214.471134,86.9491151 L197.868213,103.550725 M216.299159,95.3724437 L200.439897,111.231705 M216.161566,105.761063 L202.31051,119.612118 M218.644796,113.526565 L203.604542,128.566164 M220.974054,121.449643 L204.433378,137.988026 M222.93312,129.74062 L204.888746,147.785649 M223.797992,139.126447 L205.049271,157.874512 M223.653846,149.522273 L213.337628,159.836198 M212.253262,63.1933103 L205.386703,63.1933103" id="Stroke-33" stroke="#CAC5A1"></path>
                <path d="M259.598449,155.995053 C259.598449,154.930343 259.598449,153.973087 259.598449,152.795355 C252.820343,150.827116 250.877657,149.885257 239.411551,151.605173 C227.250928,153.428939 226.01914,100.540054 226.01914,100.540054 L217.730784,100.540054 C215.896207,94.2428685 214.402337,88.1904029 214.06163,83.504697 C213.242623,72.2023931 213.734027,63.1933103 213.734027,63.1933103 L212.253262,63.1933103 L212.253262,61.8013252 L214.798737,61.8013252 L216.764355,59.8357071 L201.039411,59.8357071 L203.005029,61.8013252 C203.005029,61.8013252 205.386703,61.8013252 205.389979,61.8013252 C205.389979,61.8013252 205.389979,63.1933103 205.386703,63.1933103 L189,63.1933103 C189,63.1933103 189.655206,86.2893226 196.534869,100.540054 C203.414532,114.790785 205.052548,136.08498 205.052548,159.836198 C208.449791,159.836198 217.278692,159.836198 222.74311,159.836198 L263.120181,159.836198 L263.120181,155.995053 L259.598449,155.995053 Z" id="Stroke-34" stroke="#AE9859"></path>
                <path d="M222.946224,158.155595 L226.274671,155.995053 M223.988002,159.836198 L229.907788,155.995053 M227.621119,159.836198 L233.540905,155.995053 M231.254236,159.836198 L237.174023,155.995053 M234.887354,159.836198 L240.80714,155.995053 M238.520471,159.836198 L244.440257,155.995053 M242.153588,159.836198 L248.070099,155.995053 M245.786706,159.836198 L251.703216,155.995053 M249.419823,159.836198 L255.336334,155.995053 M253.052941,159.836198 L258.969451,155.995053 M256.686058,159.836198 L262.602568,155.995053 M260.315899,159.836198 L263.120181,158.016691" id="Stroke-35" stroke="#AE9859"></path>
                <path d="M99.1688466,88.0472404 L102.341682,88.0472404 M102.341682,92.058084 L103.306473,90.0524984 M102.341682,88.0472404 L103.306473,90.0524984 M102.341682,96.0689277 L103.306473,94.063342 M102.341682,92.058084 L103.306473,94.063342 M102.341682,100.079771 L103.306473,98.0741857 M102.341682,96.0689277 L103.306473,98.0741857 M102.341682,104.090943 L103.306473,102.085357 M102.341682,100.079771 L103.306473,102.085357 M102.341682,108.101786 L103.306473,106.096201 M102.341682,104.090943 L103.306473,106.096201 M102.341682,112.11263 L103.306473,110.107372 M102.341682,108.101786 L103.306473,110.107372 M102.341682,116.123474 L103.306473,114.118216 M102.341682,112.11263 L103.306473,114.118216 M102.341682,120.134317 L103.306473,118.129059 M102.341682,116.123474 L103.306473,118.129059 M102.341682,124.145161 L103.306473,122.139903 M102.341682,120.134317 L103.306473,122.139903 M102.341682,128.156332 L103.306473,126.151074 M102.341682,124.145161 L103.306473,126.151074 M102.341682,132.167176 L103.306473,130.161918 M102.341682,128.156332 L103.306473,130.161918 M102.341682,136.178019 L103.306473,134.172761 M102.341682,132.167176 L103.306473,134.172761 M102.341682,140.188863 L103.306473,138.183605 M102.341682,136.178019 L103.306473,138.183605 M102.341682,144.199707 L103.306473,142.194449 M102.341682,140.188863 L103.306473,142.194449 M102.341682,148.210878 L103.306473,146.205292 M102.341682,144.199707 L103.306473,146.205292 M102.341682,152.222049 L103.306473,150.216136 M102.341682,148.210878 L103.306473,150.216136 M103.306473,154.227307 L102.341682,156.232893 L98.8418988,156.232893 M102.341682,152.222049 L103.306473,154.227307 M101.548882,152.222049 L100.584092,154.227307 M101.548882,156.232893 L100.584092,154.227307 M101.548882,148.210878 L100.584092,150.216136 M101.548882,152.222049 L100.584092,150.216136 M101.548882,144.199707 L100.584092,146.205292 M101.548882,148.210878 L100.584092,146.205292 M101.548882,140.188863 L100.584092,142.194449 M101.548882,144.199707 L100.584092,142.194449 M101.548882,136.178019 L100.584092,138.183605 M101.548882,140.188863 L100.584092,138.183605 M101.548882,132.167176 L100.584092,134.172761 M101.548882,136.178019 L100.584092,134.172761 M101.548882,128.156332 L100.584092,130.161918 M101.548882,132.167176 L100.584092,130.161918 M101.548882,124.145161 L100.584092,126.151074 M101.548882,128.156332 L100.584092,126.151074 M101.548882,120.134317 L100.584092,122.139903 M101.548882,124.145161 L100.584092,122.139903 M101.548882,116.123474 L100.584092,118.129059 M101.548882,120.134317 L100.584092,118.129059 M101.548882,112.11263 L100.584092,114.118216 M101.548882,116.123474 L100.584092,114.118216 M101.548882,108.101786 L100.584092,110.107372 M101.548882,112.11263 L100.584092,110.107372 M101.548882,104.090943 L100.584092,106.096201 M101.548882,108.101786 L100.584092,106.096201 M101.548882,100.079771 L100.584092,102.085357 M101.548882,104.090943 L100.584092,102.085357 M101.548882,96.0689277 L100.584092,98.0741857" id="Stroke-37" stroke="#CAC5A1"></path>
                <path d="M101.548882,100.079771 L100.584092,98.0741857 M101.548882,92.058084 L100.584092,94.063342 M101.548882,96.0689277 L100.584092,94.063342 M100.584092,90.0524984 L101.548882,88.0472404 M101.548882,92.058084 L100.584092,90.0524984 M99.4492748,84.767279 L107.991851,84.767279 M101.818827,84.767279 L101.818827,83.3150149 M103.053235,84.767279 L103.053235,83.3150149 M104.287971,84.767279 L104.287971,83.3150149 M105.522707,84.767279 L105.522707,83.3150149 M106.757443,84.767279 L106.757443,83.3150149 M107.991851,84.767279 L107.991851,83.3150149 M109.92176,89.1109673 L107.991851,92.9455606 L107.991851,97.4858107 M109.92176,105.861309 L107.991851,102.026388 L107.991851,97.4858107 M111.85167,97.4858107 L111.85167,102.026388 L109.92176,105.861309 M109.92176,89.1109673 L111.85167,92.9455606 L111.85167,97.4858107 M109.92176,105.861309 L109.92176,110.20467 M109.92176,84.767279 L109.92176,89.1109673 M109.92176,113.926568 L107.991851,117.761161 L107.991851,122.301739 M109.92176,130.67691 L107.991851,126.842316 L107.991851,122.301739 M111.85167,122.301739 L111.85167,126.842316 L109.92176,130.67691 M109.92176,113.926568 L111.85167,117.761161 L111.85167,122.301739 M109.92176,130.67691 L109.92176,135.020598 M109.92176,109.583207 L109.92176,113.926568 M109.92176,138.742168 L107.991851,142.577089 L107.991851,147.117667 M109.92176,155.49251 L107.991851,151.657917 L107.991851,147.117667 M111.85167,147.117667 L111.85167,151.657917 L109.92176,155.49251 M109.92176,138.742168 L111.85167,142.577089 L111.85167,147.117667 M109.92176,155.49251 L109.92176,159.836198 M109.92176,134.398808 L109.92176,138.742168 M106.062269,89.1109673 L104.132687,92.9455606 L104.132687,97.4858107 M106.062269,105.861309 L104.132687,102.026388 L104.132687,97.4858107 M107.991851,97.4858107 L107.991851,102.026388 L106.062269,105.861309 M106.062269,89.1109673 L107.991851,92.9455606 L107.991851,97.4858107 M106.062269,105.861309 L106.062269,110.20467 M106.062269,84.767279 L106.062269,89.1109673 M106.062269,113.926568 L104.132687,117.761161 L104.132687,122.301739 M106.062269,130.67691 L104.132687,126.842316 L104.132687,122.301739 M107.991851,122.301739 L107.991851,126.842316 L106.062269,130.67691 M106.062269,113.926568 L107.991851,117.761161 L107.991851,122.301739 M106.062269,130.67691 L106.062269,135.020598 M106.062269,109.583207 L106.062269,113.926568 M106.062269,138.742168 L104.132687,142.577089 L104.132687,147.117667 M106.062269,155.49251 L104.132687,151.657917 L104.132687,147.117667 M107.991851,147.117667 L107.991851,151.657917 L106.062269,155.49251 M106.062269,138.742168 L107.991851,142.577089 L107.991851,147.117667 M106.062269,155.49251 L106.062269,159.836198 M106.062269,134.398808 L106.062269,138.742168" id="Stroke-38" stroke="#CAC5A1"></path>
                <path d="M116.40011,83.3150149 L99.5839196,83.3150149 C99.5839196,83.3150149 97.7231345,102.324835 97.7231345,119.489922 C97.7231345,136.655009 99.0319085,159.836198 99.0319085,159.836198 L116.952121,159.836198 C116.952121,159.836198 118.260895,136.655009 118.260895,119.489922 C118.260895,102.324835 116.40011,83.3150149 116.40011,83.3150149 Z" id="Stroke-39" stroke="#AE9859"></path>
                <path d="M116.815183,88.0472404 L113.642348,88.0472404 M113.642348,92.058084 L112.677557,90.0524984 M113.642348,88.0472404 L112.677557,90.0524984 M113.642348,96.0689277 L112.677557,94.063342 M113.642348,92.058084 L112.677557,94.063342 M113.642348,100.079771 L112.677557,98.0741857 M113.642348,96.0689277 L112.677557,98.0741857 M113.642348,104.090943 L112.677557,102.085357 M113.642348,100.079771 L112.677557,102.085357 M113.642348,108.101786 L112.677557,106.096201 M113.642348,104.090943 L112.677557,106.096201 M113.642348,112.11263 L112.677557,110.107372 M113.642348,108.101786 L112.677557,110.107372 M113.642348,116.123474 L112.677557,114.118216 M113.642348,112.11263 L112.677557,114.118216 M113.642348,120.134317 L112.677557,118.129059 M113.642348,116.123474 L112.677557,118.129059 M113.642348,124.145161 L112.677557,122.139903 M113.642348,120.134317 L112.677557,122.139903 M113.642348,128.156332 L112.677557,126.151074 M113.642348,124.145161 L112.677557,126.151074 M113.642348,132.167176 L112.677557,130.161918 M113.642348,128.156332 L112.677557,130.161918 M113.642348,136.178019 L112.677557,134.172761 M113.642348,132.167176 L112.677557,134.172761 M113.642348,140.188863 L112.677557,138.183605 M113.642348,136.178019 L112.677557,138.183605 M113.642348,144.199707 L112.677557,142.194449 M113.642348,140.188863 L112.677557,142.194449 M113.642348,148.210878 L112.677557,146.205292 M113.642348,144.199707 L112.677557,146.205292 M113.642348,152.222049 L112.677557,150.216136 M113.642348,148.210878 L112.677557,150.216136 M112.677557,154.227307 L113.642348,156.232893 L117.142131,156.232893 M113.642348,152.222049 L112.677557,154.227307 M114.435147,152.222049 L115.399938,154.227307 M114.435147,156.232893 L115.399938,154.227307 M114.435147,148.210878 L115.399938,150.216136 M114.435147,152.222049 L115.399938,150.216136 M114.435147,144.199707 L115.399938,146.205292 M114.435147,148.210878 L115.399938,146.205292 M114.435147,140.188863 L115.399938,142.194449 M114.435147,144.199707 L115.399938,142.194449 M114.435147,136.178019 L115.399938,138.183605 M114.435147,140.188863 L115.399938,138.183605 M114.435147,132.167176 L115.399938,134.172761 M114.435147,136.178019 L115.399938,134.172761 M114.435147,128.156332 L115.399938,130.161918 M114.435147,132.167176 L115.399938,130.161918 M114.435147,124.145161 L115.399938,126.151074 M114.435147,128.156332 L115.399938,126.151074 M114.435147,120.134317 L115.399938,122.139903 M114.435147,124.145161 L115.399938,122.139903 M114.435147,116.123474 L115.399938,118.129059 M114.435147,120.134317 L115.399938,118.129059 M114.435147,112.11263 L115.399938,114.118216 M114.435147,116.123474 L115.399938,114.118216 M114.435147,108.101786 L115.399938,110.107372 M114.435147,112.11263 L115.399938,110.107372 M114.435147,104.090943 L115.399938,106.096201 M114.435147,108.101786 L115.399938,106.096201 M114.435147,100.079771 L115.399938,102.085357 M114.435147,104.090943 L115.399938,102.085357 M114.435147,96.0689277 L115.399938,98.0741857" id="Stroke-40" stroke="#CAC5A1"></path>
                <path d="M114.435147,100.079771 L115.399938,98.0741857 M114.435147,92.058084 L115.399938,94.063342 M114.435147,96.0689277 L115.399938,94.063342 M115.399938,90.0524984 L114.435147,88.0472404 M114.435147,92.058084 L115.399938,90.0524984 M116.534755,84.767279 L107.991851,84.767279 M114.16553,84.767279 L114.16553,83.3150149 M112.930794,84.767279 L112.930794,83.3150149 M111.696058,84.767279 L111.696058,83.3150149 M110.461322,84.767279 L110.461322,83.3150149 M109.226587,84.767279 L109.226587,83.3150149 M107.991851,84.767279 L107.991851,83.3150149" id="Stroke-41" stroke="#AE9859"></path>
                <path d="M74.5674985,88.0472404 L77.7406613,88.0472404 M77.7406613,92.058084 L78.7051245,90.0524984 M77.7406613,88.0472404 L78.7051245,90.0524984 M77.7406613,96.0689277 L78.7051245,94.063342 M77.7406613,92.058084 L78.7051245,94.063342 M77.7406613,100.079771 L78.7051245,98.0741857 M77.7406613,96.0689277 L78.7051245,98.0741857 M77.7406613,104.090943 L78.7051245,102.085357 M77.7406613,100.079771 L78.7051245,102.085357 M77.7406613,108.101786 L78.7051245,106.096201 M77.7406613,104.090943 L78.7051245,106.096201 M77.7406613,112.11263 L78.7051245,110.107372 M77.7406613,108.101786 L78.7051245,110.107372 M77.7406613,116.123474 L78.7051245,114.118216 M77.7406613,112.11263 L78.7051245,114.118216 M77.7406613,120.134317 L78.7051245,118.129059 M77.7406613,116.123474 L78.7051245,118.129059 M77.7406613,124.145161 L78.7051245,122.139903 M77.7406613,120.134317 L78.7051245,122.139903 M77.7406613,128.156332 L78.7051245,126.151074 M77.7406613,124.145161 L78.7051245,126.151074 M77.7406613,132.167176 L78.7051245,130.161918 M77.7406613,128.156332 L78.7051245,130.161918 M77.7406613,136.178019 L78.7051245,134.172761 M77.7406613,132.167176 L78.7051245,134.172761 M77.7406613,140.188863 L78.7051245,138.183605 M77.7406613,136.178019 L78.7051245,138.183605 M77.7406613,144.199707 L78.7051245,142.194449 M77.7406613,140.188863 L78.7051245,142.194449 M77.7406613,148.210878 L78.7051245,146.205292 M77.7406613,144.199707 L78.7051245,146.205292 M77.7406613,152.222049 L78.7051245,150.216136 M77.7406613,148.210878 L78.7051245,150.216136 M78.7051245,154.227307 L77.7406613,156.232893 L74.2405507,156.232893 M77.7406613,152.222049 L78.7051245,154.227307 M76.9475344,152.222049 L75.9827435,154.227307 M76.9475344,156.232893 L75.9827435,154.227307 M76.9475344,148.210878 L75.9827435,150.216136 M76.9475344,152.222049 L75.9827435,150.216136 M76.9475344,144.199707 L75.9827435,146.205292 M76.9475344,148.210878 L75.9827435,146.205292 M76.9475344,140.188863 L75.9827435,142.194449 M76.9475344,144.199707 L75.9827435,142.194449 M76.9475344,136.178019 L75.9827435,138.183605 M76.9475344,140.188863 L75.9827435,138.183605 M76.9475344,132.167176 L75.9827435,134.172761 M76.9475344,136.178019 L75.9827435,134.172761 M76.9475344,128.156332 L75.9827435,130.161918 M76.9475344,132.167176 L75.9827435,130.161918 M76.9475344,124.145161 L75.9827435,126.151074 M76.9475344,128.156332 L75.9827435,126.151074 M76.9475344,120.134317 L75.9827435,122.139903 M76.9475344,124.145161 L75.9827435,122.139903 M76.9475344,116.123474 L75.9827435,118.129059 M76.9475344,120.134317 L75.9827435,118.129059 M76.9475344,112.11263 L75.9827435,114.118216 M76.9475344,116.123474 L75.9827435,114.118216 M76.9475344,108.101786 L75.9827435,110.107372 M76.9475344,112.11263 L75.9827435,110.107372 M76.9475344,104.090943 L75.9827435,106.096201 M76.9475344,108.101786 L75.9827435,106.096201 M76.9475344,100.079771 L75.9827435,102.085357 M76.9475344,104.090943 L75.9827435,102.085357 M76.9475344,96.0689277 L75.9827435,98.0741857" id="Stroke-43" stroke="#CAC5A1"></path>
                <path d="M76.9475344,100.079771 L75.9827435,98.0741857 M76.9475344,92.058084 L75.9827435,94.063342 M76.9475344,96.0689277 L75.9827435,94.063342 M75.9827435,90.0524984 L76.9475344,88.0472404 M76.9475344,92.058084 L75.9827435,90.0524984 M74.8479267,84.767279 L83.3908304,84.767279 M77.2174793,84.767279 L77.2174793,83.3150149 M78.452215,84.767279 L78.452215,83.3150149 M79.6866232,84.767279 L79.6866232,83.3150149 M80.9216865,84.767279 L80.9216865,83.3150149 M82.1560946,84.767279 L82.1560946,83.3150149 M83.3908304,84.767279 L83.3908304,83.3150149 M85.3204121,89.1109673 L83.3908304,92.9455606 L83.3908304,97.4858107 M85.3204121,105.861309 L83.3908304,102.026388 L83.3908304,97.4858107 M87.2503215,97.4858107 L87.2503215,102.026388 L85.3204121,105.861309 M85.3204121,89.1109673 L87.2503215,92.9455606 L87.2503215,97.4858107 M85.3204121,105.861309 L85.3204121,110.20467 M85.3204121,84.767279 L85.3204121,89.1109673 M85.3204121,113.926568 L83.3908304,117.761161 L83.3908304,122.301739 M85.3204121,130.67691 L83.3908304,126.842316 L83.3908304,122.301739 M87.2503215,122.301739 L87.2503215,126.842316 L85.3204121,130.67691 M85.3204121,113.926568 L87.2503215,117.761161 L87.2503215,122.301739 M85.3204121,130.67691 L85.3204121,135.020598 M85.3204121,109.583207 L85.3204121,113.926568 M85.3204121,138.742168 L83.3908304,142.577089 L83.3908304,147.117667 M85.3204121,155.49251 L83.3908304,151.657917 L83.3908304,147.117667 M87.2503215,147.117667 L87.2503215,151.657917 L85.3204121,155.49251 M85.3204121,138.742168 L87.2503215,142.577089 L87.2503215,147.117667 M85.3204121,155.49251 L85.3204121,159.836198 M85.3204121,134.398808 L85.3204121,138.742168 M81.4609211,89.1109673 L79.5313393,92.9455606 L79.5313393,97.4858107 M81.4609211,105.861309 L79.5313393,102.026388 L79.5313393,97.4858107 M83.3908304,97.4858107 L83.3908304,102.026388 L81.4609211,105.861309 M81.4609211,89.1109673 L83.3908304,92.9455606 L83.3908304,97.4858107 M81.4609211,105.861309 L81.4609211,110.20467 M81.4609211,84.767279 L81.4609211,89.1109673 M81.4609211,113.926568 L79.5313393,117.761161 L79.5313393,122.301739 M81.4609211,130.67691 L79.5313393,126.842316 L79.5313393,122.301739 M83.3908304,122.301739 L83.3908304,126.842316 L81.4609211,130.67691 M81.4609211,113.926568 L83.3908304,117.761161 L83.3908304,122.301739 M81.4609211,130.67691 L81.4609211,135.020598 M81.4609211,109.583207 L81.4609211,113.926568 M81.4609211,138.742168 L79.5313393,142.577089 L79.5313393,147.117667 M81.4609211,155.49251 L79.5313393,151.657917 L79.5313393,147.117667 M83.3908304,147.117667 L83.3908304,151.657917 L81.4609211,155.49251 M81.4609211,138.742168 L83.3908304,142.577089 L83.3908304,147.117667 M81.4609211,155.49251 L81.4609211,159.836198 M81.4609211,134.398808 L81.4609211,138.742168" id="Stroke-44" stroke="#CAC5A1"></path>
                <path d="M91.7990893,83.3150149 L74.9825715,83.3150149 C74.9825715,83.3150149 73.1217864,102.324835 73.1217864,119.489922 C73.1217864,136.655009 74.430888,159.836198 74.430888,159.836198 L92.3507727,159.836198 C92.3507727,159.836198 93.6598744,136.655009 93.6598744,119.489922 C93.6598744,102.324835 91.7990893,83.3150149 91.7990893,83.3150149 Z" id="Stroke-45" stroke="#AE9859"></path>
                <path d="M92.2141623,88.0472404 L89.0413271,88.0472404 M89.0413271,92.058084 L88.0762087,90.0524984 M89.0413271,88.0472404 L88.0762087,90.0524984 M89.0413271,96.0689277 L88.0762087,94.063342 M89.0413271,92.058084 L88.0762087,94.063342 M89.0413271,100.079771 L88.0762087,98.0741857 M89.0413271,96.0689277 L88.0762087,98.0741857 M89.0413271,104.090943 L88.0762087,102.085357 M89.0413271,100.079771 L88.0762087,102.085357 M89.0413271,108.101786 L88.0762087,106.096201 M89.0413271,104.090943 L88.0762087,106.096201 M89.0413271,112.11263 L88.0762087,110.107372 M89.0413271,108.101786 L88.0762087,110.107372 M89.0413271,116.123474 L88.0762087,114.118216 M89.0413271,112.11263 L88.0762087,114.118216 M89.0413271,120.134317 L88.0762087,118.129059 M89.0413271,116.123474 L88.0762087,118.129059 M89.0413271,124.145161 L88.0762087,122.139903 M89.0413271,120.134317 L88.0762087,122.139903 M89.0413271,128.156332 L88.0762087,126.151074 M89.0413271,124.145161 L88.0762087,126.151074 M89.0413271,132.167176 L88.0762087,130.161918 M89.0413271,128.156332 L88.0762087,130.161918 M89.0413271,136.178019 L88.0762087,134.172761 M89.0413271,132.167176 L88.0762087,134.172761 M89.0413271,140.188863 L88.0762087,138.183605 M89.0413271,136.178019 L88.0762087,138.183605 M89.0413271,144.199707 L88.0762087,142.194449 M89.0413271,140.188863 L88.0762087,142.194449 M89.0413271,148.210878 L88.0762087,146.205292 M89.0413271,144.199707 L88.0762087,146.205292 M89.0413271,152.222049 L88.0762087,150.216136 M89.0413271,148.210878 L88.0762087,150.216136 M88.0762087,154.227307 L89.0413271,156.232893 L92.5411101,156.232893 M89.0413271,152.222049 L88.0762087,154.227307 M89.8341264,152.222049 L90.7989173,154.227307 M89.8341264,156.232893 L90.7989173,154.227307 M89.8341264,148.210878 L90.7989173,150.216136 M89.8341264,152.222049 L90.7989173,150.216136 M89.8341264,144.199707 L90.7989173,146.205292 M89.8341264,148.210878 L90.7989173,146.205292 M89.8341264,140.188863 L90.7989173,142.194449 M89.8341264,144.199707 L90.7989173,142.194449 M89.8341264,136.178019 L90.7989173,138.183605 M89.8341264,140.188863 L90.7989173,138.183605 M89.8341264,132.167176 L90.7989173,134.172761 M89.8341264,136.178019 L90.7989173,134.172761 M89.8341264,128.156332 L90.7989173,130.161918 M89.8341264,132.167176 L90.7989173,130.161918 M89.8341264,124.145161 L90.7989173,126.151074 M89.8341264,128.156332 L90.7989173,126.151074 M89.8341264,120.134317 L90.7989173,122.139903 M89.8341264,124.145161 L90.7989173,122.139903 M89.8341264,116.123474 L90.7989173,118.129059 M89.8341264,120.134317 L90.7989173,118.129059 M89.8341264,112.11263 L90.7989173,114.118216 M89.8341264,116.123474 L90.7989173,114.118216 M89.8341264,108.101786 L90.7989173,110.107372 M89.8341264,112.11263 L90.7989173,110.107372 M89.8341264,104.090943 L90.7989173,106.096201 M89.8341264,108.101786 L90.7989173,106.096201 M89.8341264,100.079771 L90.7989173,102.085357 M89.8341264,104.090943 L90.7989173,102.085357 M89.8341264,96.0689277 L90.7989173,98.0741857" id="Stroke-46" stroke="#CAC5A1"></path>
                <path d="M89.8341264,100.079771 L90.7989173,98.0741857 M89.8341264,92.058084 L90.7989173,94.063342 M89.8341264,96.0689277 L90.7989173,94.063342 M90.7989173,90.0524984 L89.8341264,88.0472404 M89.8341264,92.058084 L90.7989173,90.0524984 M91.9334065,84.767279 L83.3908304,84.767279 M89.5641815,84.767279 L89.5641815,83.3150149 M88.3294458,84.767279 L88.3294458,83.3150149 M87.09471,84.767279 L87.09471,83.3150149 M85.8603019,84.767279 L85.8603019,83.3150149 M84.6255661,84.767279 L84.6255661,83.3150149 M83.3908304,84.767279 L83.3908304,83.3150149" id="Stroke-47" stroke="#AE9859"></path>
                <path d="M256.754855,127.644289 L256.754855,127.644616 C256.754855,127.644616 256.754855,127.644616 256.754855,127.644944 C256.754855,127.644616 256.754855,127.644616 256.754855,127.644289" id="Fill-48" stroke="#AE9859"></path>
                <polyline id="Fill-51" stroke="#AE9859" points="286.710874 124.731898 286.707598 124.732225 286.710874 124.732225 286.710874 124.731898"></polyline>
                <path d="M316.5293,127.644289 L316.5293,127.644616 C316.5293,127.644616 316.5293,127.644616 316.5293,127.644944 C316.5293,127.644616 316.5293,127.644616 316.5293,127.644289" id="Fill-53" stroke="#AE9859"></path>
                <path d="M276.257062,145.148445 L276.257062,159.836198 L276.257062,145.148445 Z M287.667475,145.148445 L278.278372,145.148445 L287.667475,145.148445 Z M287.631438,150.772406 C287.631438,150.772406 284.391445,151.646123 285.102343,155.085955 C284.732152,155.52265 284.77474,156.068764 284.77474,156.996863 C284.77474,157.924963 284.77474,159.836198 284.77474,159.836198 L287.631438,150.772406 Z M287.667475,152.363246 C287.667475,152.363246 285.731341,152.901826 286.196537,155.534443 C285.980319,155.788991 286.003251,155.881703 286.003251,156.42323 C286.003251,156.964431 286.003251,159.836198 286.003251,159.836198 L287.667475,152.363246 Z M280.705911,153.202238 C280.705911,153.202238 278.740293,154.048436 279.614993,155.549841 C279.261182,155.932153 279.231697,155.904962 279.231697,156.423558 C279.231697,156.942153 279.231697,159.836198 279.231697,159.836198 L280.705911,153.202238 Z M280.705911,153.202238 C280.705911,153.202238 282.671529,154.048436 281.800105,155.549841 C282.153916,155.932153 282.180124,155.904962 282.180124,156.423558 C282.180124,156.942153 282.180124,159.836198 282.180124,159.836198 L280.705911,153.202238 Z M269.773798,154.881203 C269.773798,154.881203 268.306137,155.513149 268.958067,156.634534 C268.692708,156.919876 268.673052,156.899893 268.673052,157.287119 C268.673052,157.674674 268.673052,159.836198 268.673052,159.836198 L269.773798,154.881203 Z M269.773798,154.881203 C269.773798,154.881203 271.24146,155.513149 270.58953,156.634534 C270.854888,156.919876 270.874544,156.899893 270.874544,157.287119 C270.874544,157.674674 270.874544,159.836198 270.874544,159.836198 L269.773798,154.881203 Z M266.327415,154.881203 C266.327415,154.881203 264.859753,155.513149 265.511683,156.634534 C265.246325,156.919876 265.226669,156.899893 265.226669,157.287119 C265.226669,157.674674 265.226669,159.836198 265.226669,159.836198 L266.327415,154.881203 Z M266.327415,154.881203 C266.327415,154.881203 267.795076,155.513149 267.143146,156.634534 C267.408505,156.919876 267.428161,156.899893 267.428161,157.287119 C267.428161,157.674674 267.428161,159.836198 267.428161,159.836198 L266.327415,154.881203 Z M262.881031,154.881203 C262.881031,154.881203 261.413369,155.513149 262.065299,156.634534 C261.799941,156.919876 261.780285,156.899893 261.780285,157.287119 C261.780285,157.674674 261.780285,159.836198 261.780285,159.836198 L262.881031,154.881203 Z M262.881031,154.881203 C262.881031,154.881203 264.351968,155.513149 263.696762,156.634534 C263.962121,156.919876 263.981777,156.899893 263.981777,157.287119 C263.981777,157.674674 263.981777,159.836198 263.981777,159.836198 L262.881031,154.881203 Z M259.437923,154.881203 C259.437923,154.881203 257.966986,155.513149 258.622192,156.634534 C258.356833,156.919876 258.333901,156.899893 258.333901,157.287119 C258.333901,157.674674 258.333901,159.836198 258.333901,159.836198 L259.437923,154.881203 Z M259.437923,154.881203 C259.437923,154.881203 260.905585,155.513149 260.253655,156.634534 C260.515737,156.919876 260.538669,156.899893 260.538669,157.287119 C260.538669,157.674674 260.538669,159.836198 260.538669,159.836198 L259.437923,154.881203 Z M255.99154,154.881203 C255.99154,154.881203 254.523878,155.513149 255.175808,156.634534 C254.91045,156.919876 254.890794,156.899893 254.890794,157.287119 C254.890794,157.674674 254.890794,159.836198 254.890794,159.836198 L255.99154,154.881203 Z M255.99154,154.881203 C255.99154,154.881203 257.459201,155.513149 256.807271,156.634534 C257.07263,156.919876 257.092286,156.899893 257.092286,157.287119 C257.092286,157.674674 257.092286,159.836198 257.092286,159.836198 L255.99154,154.881203 Z M252.545156,154.881203 C252.545156,154.881203 251.077494,155.513149 251.729424,156.634534 C251.464066,156.919876 251.44441,156.899893 251.44441,157.287119 C251.44441,157.674674 251.44441,159.836198 251.44441,159.836198 L252.545156,154.881203 Z M252.545156,154.881203 C252.545156,154.881203 254.012817,155.513149 253.360887,156.634534 C253.626246,156.919876 253.645902,156.899893 253.645902,157.287119 C253.645902,157.674674 253.645902,159.836198 253.645902,159.836198 L252.545156,154.881203 Z M249.098772,154.881203 C249.098772,154.881203 247.631111,155.513149 248.283041,156.634534 C248.017682,156.919876 247.998026,156.899893 247.998026,157.287119 C247.998026,157.674674 247.998026,159.836198 247.998026,159.836198 L249.098772,154.881203 Z M249.098772,154.881203 C249.098772,154.881203 250.566434,155.513149 249.914504,156.634534 C250.179862,156.919876 250.199518,156.899893 250.199518,157.287119 C250.199518,157.674674 250.199518,159.836198 250.199518,159.836198 L249.098772,154.881203 Z M245.652389,154.881203 C245.652389,154.881203 244.184727,155.513149 244.836657,156.634534 C244.571299,156.919876 244.551643,156.899893 244.551643,157.287119 C244.551643,157.674674 244.551643,159.836198 244.551643,159.836198 L245.652389,154.881203 Z M245.652389,154.881203 C245.652389,154.881203 247.123326,155.513149 246.46812,156.634534 C246.733479,156.919876 246.753135,156.899893 246.753135,157.287119 C246.753135,157.674674 246.753135,159.836198 246.753135,159.836198 L245.652389,154.881203 Z M271.614927,145.148445 L271.614927,159.836198 L271.614927,145.148445 Z M243.81126,145.148445 L243.81126,159.836198 L243.81126,145.148445 Z M238.051999,134.366375 L243.81126,134.366375 L238.051999,134.366375 Z M271.614927,151.891825 L243.81126,151.891825 L271.614927,151.891825 Z M283.670718,145.148445 L283.670718,143.374147 L287.631438,143.374147 L283.670718,145.148445 Z M283.670718,143.374147 C282.606008,141.777083 282.497899,137.968698 287.631438,135.593576 L283.670718,143.374147 Z M278.278372,145.148445 L281.279216,145.148445 L281.279216,143.374147 L278.278372,143.374147 L278.278372,145.148445 Z M281.279216,143.374147 C281.606819,142.722545 281.701824,141.856362 281.05317,141.142843 L281.279216,143.374147 Z M281.05317,138.132499 L284.221091,138.132499 L281.05317,138.132499 Z M251.097151,141.04489 L257.714731,141.04489 L251.097151,141.04489 Z M287.185898,144.538448 C287.185898,144.272435 287.402116,144.056544 287.667475,144.056544 C287.936109,144.056544 288.152327,144.272435 288.152327,144.538448 L288.152327,145.148445 L287.185898,145.148445 L287.185898,144.538448 Z M284.840261,144.538448 C284.840261,144.272435 285.056479,144.056544 285.321837,144.056544 C285.587196,144.056544 285.803414,144.272435 285.803414,144.538448 L285.803414,145.148445 L284.840261,145.148445 L284.840261,144.538448 Z M279.297218,144.538448 C279.297218,144.272435 279.513436,144.056544 279.778794,144.056544 C280.044153,144.056544 280.260371,144.272435 280.260371,144.538448 L280.260371,145.148445 L279.297218,145.148445 L279.297218,144.538448 Z" id="Stroke-55" stroke="#AE9859"></path>
                <path d="M269.71483,143.374147 L266.713986,143.374147 L269.71483,143.374147 Z M266.713986,145.148445 L269.71483,145.148445 L266.713986,145.148445 Z M267.732832,144.538448 C267.732832,144.272435 267.94905,144.056544 268.214408,144.056544 C268.479766,144.056544 268.695984,144.272435 268.695984,144.538448 L268.695984,145.148445 L267.732832,145.148445 L267.732832,144.538448 Z M248.715477,143.374147 L245.711357,143.374147 L248.715477,143.374147 Z M245.711357,145.148445 L248.715477,145.148445 L245.711357,145.148445 Z M246.730203,144.538448 C246.730203,144.272435 246.946421,144.056544 247.211779,144.056544 C247.480413,144.056544 247.693355,144.272435 247.693355,144.538448 L247.693355,145.148445 L246.730203,145.148445 L246.730203,144.538448 Z M265.557548,151.90624 L269.30205,151.90624 L269.30205,149.692626 L265.557548,149.692626 L265.557548,151.90624 Z M265.557548,149.692626 C264.97769,148.534877 264.97769,146.832325 267.428161,145.913071 L265.557548,149.692626 Z M269.30205,149.692626 C269.881907,148.534877 269.881907,146.832325 267.428161,145.913071 L269.30205,149.692626 Z M266.828647,151.144891 C266.828647,150.813356 267.097282,150.543739 267.428161,150.543739 C267.762316,150.543739 268.03095,150.813356 268.03095,151.144891 L268.03095,151.90624 L266.828647,151.90624 L266.828647,151.144891 Z M255.840842,151.90624 L259.585345,151.90624 L259.585345,149.692626 L255.840842,149.692626 L255.840842,151.90624 Z M255.840842,149.692626 C255.260985,148.534877 255.260985,146.832325 257.714731,145.913071 L255.840842,149.692626 Z M259.585345,149.692626 C260.165202,148.534877 260.165202,146.832325 257.714731,145.913071 L259.585345,149.692626 Z M257.111942,151.144891 C257.111942,150.813356 257.380576,150.543739 257.714731,150.543739 C258.045611,150.543739 258.314245,150.813356 258.314245,151.144891 L258.314245,151.90624 L257.111942,151.90624 L257.111942,151.144891 Z M246.124137,151.90624 L249.871915,151.90624 L249.871915,149.692626 L246.124137,149.692626 L246.124137,151.90624 Z M246.124137,149.692626 C245.547556,148.534877 245.547556,146.832325 247.998026,145.913071 L246.124137,149.692626 Z M249.871915,149.692626 C250.448497,148.534877 250.448497,146.832325 247.998026,145.913071 L249.871915,149.692626 Z M247.398513,151.144891 C247.398513,150.813356 247.667147,150.543739 247.998026,150.543739 C248.328905,150.543739 248.600816,150.813356 248.600816,151.144891 L248.600816,151.90624 L247.398513,151.90624 L247.398513,151.144891 Z M248.715477,145.148445 L245.711357,145.148445 L248.715477,145.148445 Z M264.329036,145.148445 L251.097151,145.148445 L264.329036,145.148445 Z M269.71483,145.148445 L266.713986,145.148445 L269.71483,145.148445 Z M264.329036,141.04489 L257.714731,141.04489 L264.329036,141.04489 Z M238.992219,132.80895 L240.931629,132.80895 L238.992219,132.80895 Z M239.273958,119.991482 L240.931629,119.991482 L239.273958,119.991482 Z M239.604837,107.78827 L240.931629,107.78827 L239.604837,107.78827 Z M240.181418,98.6563363 L240.931629,98.6563363 L240.181418,98.6563363 Z M242.871039,132.80895 L240.931629,132.80895 L242.871039,132.80895 Z M242.586024,119.991482 L240.931629,119.991482 L242.586024,119.991482 Z M242.258421,107.78827 L240.931629,107.78827 L242.258421,107.78827 Z M241.68184,101.359061 L241.68184,98.6563363 L240.931629,98.6563363 L241.68184,101.359061 Z M241.68184,98.6563363 C242.615509,98.1649317 242.615509,96.9364204 240.931629,95.912661 C239.244474,96.9364204 239.244474,98.1649317 240.181418,98.6563363 L241.68184,98.6563363 Z M240.931629,137.941179 L239.837435,137.941179 L240.931629,139.638162 L240.931629,137.941179 Z M240.931629,145.064579 L239.837435,145.064579 L240.931629,146.761562 L240.931629,145.064579 Z M240.931629,137.941179 L242.022547,137.941179 L240.931629,139.638162 L240.931629,137.941179 Z M240.931629,145.064579 L242.022547,145.064579 L240.931629,146.761562 L240.931629,145.064579 Z M256.754855,127.644616 C256.84986,127.678687 256.951416,127.696705 257.056249,127.696705 C257.560758,127.696705 257.966986,127.290477 257.966986,126.788917 C257.966986,126.473435 257.80646,126.195628 257.560758,126.032809 L257.560758,126.032482 C257.609899,126.025602 257.662315,126.021999 257.714731,126.021999 C258.317521,126.021999 258.808926,126.512093 258.808926,127.116848 C258.808926,127.721275 258.317521,128.211697 257.714731,128.211697 C257.298676,128.211697 256.941588,127.982375 256.754855,127.644289 L256.754855,127.644616 Z M257.714731,128.211697 L257.714731,129.059534 L257.714731,128.211697 Z M286.707598,124.732225 C286.802603,124.765969 286.907436,124.784642 287.012269,124.784642 C287.513501,124.784642 287.919729,124.377759 287.919729,123.876526 C287.919729,123.561045 287.759204,123.283565 287.516777,123.120746 L287.516777,123.120419 C287.565918,123.113211 287.618334,123.109608 287.667475,123.109608 C288.27354,123.109608 288.764945,123.599702 288.764945,124.204457 C288.764945,124.809212 288.27354,125.299306 287.667475,125.299306 C287.254695,125.299306 286.894332,125.070312 286.710874,124.731898 L286.707598,124.732225 Z" id="Stroke-56" stroke="#CAC5A1"></path>
                <path d="M287.667475,125.299306 L287.667475,126.14747 L287.667475,125.299306 Z M240.181418,101.359061 L240.181418,98.6563363 L240.931629,98.6563363 L240.181418,101.359061 Z M299.081164,145.148445 L299.081164,159.836198 L299.081164,145.148445 Z M287.667475,145.148445 L297.059853,145.148445 L287.667475,145.148445 Z M287.706787,150.772406 C287.706787,150.772406 290.943505,151.646123 290.235882,155.085955 C290.606074,155.52265 290.563485,156.068764 290.563485,156.996863 C290.563485,157.924963 290.563485,159.836198 290.563485,159.836198 L287.706787,150.772406 Z M287.667475,152.363246 C287.667475,152.363246 289.606885,152.901826 289.141688,155.534443 C289.357906,155.788991 289.334974,155.881703 289.334974,156.42323 C289.334974,156.964431 289.334974,159.836198 289.334974,159.836198 L287.667475,152.363246 Z M294.629039,153.202238 C294.629039,153.202238 296.594657,154.048436 295.723233,155.549841 C296.077044,155.932153 296.103252,155.904962 296.103252,156.423558 C296.103252,156.942153 296.103252,159.836198 296.103252,159.836198 L294.629039,153.202238 Z M294.629039,153.202238 C294.629039,153.202238 292.663421,154.048436 293.538121,155.549841 C293.184309,155.932153 293.154825,155.904962 293.154825,156.423558 C293.154825,156.942153 293.154825,159.836198 293.154825,159.836198 L294.629039,153.202238 Z M305.564427,154.881203 C305.564427,154.881203 307.032089,155.513149 306.380159,156.634534 C306.645517,156.919876 306.665173,156.899893 306.665173,157.287119 C306.665173,157.674674 306.665173,159.836198 306.665173,159.836198 L305.564427,154.881203 Z M305.564427,154.881203 C305.564427,154.881203 304.096766,155.513149 304.748696,156.634534 C304.483337,156.919876 304.463681,156.899893 304.463681,157.287119 C304.463681,157.674674 304.463681,159.836198 304.463681,159.836198 L305.564427,154.881203 Z M309.010811,154.881203 C309.010811,154.881203 310.478472,155.513149 309.826542,156.634534 C310.091901,156.919876 310.111557,156.899893 310.111557,157.287119 C310.111557,157.674674 310.111557,159.836198 310.111557,159.836198 L309.010811,154.881203 Z M309.010811,154.881203 C309.010811,154.881203 307.543149,155.513149 308.195079,156.634534 C307.929721,156.919876 307.910065,156.899893 307.910065,157.287119 C307.910065,157.674674 307.910065,159.836198 307.910065,159.836198 L309.010811,154.881203 Z M312.457195,154.881203 C312.457195,154.881203 313.924856,155.513149 313.26965,156.634534 C313.535008,156.919876 313.557941,156.899893 313.557941,157.287119 C313.557941,157.674674 313.557941,159.836198 313.557941,159.836198 L312.457195,154.881203 Z M312.457195,154.881203 C312.457195,154.881203 310.986257,155.513149 311.641463,156.634534 C311.376105,156.919876 311.353172,156.899893 311.353172,157.287119 C311.353172,157.674674 311.353172,159.836198 311.353172,159.836198 L312.457195,154.881203 Z M315.900302,154.881203 C315.900302,154.881203 317.367964,155.513149 316.716034,156.634534 C316.981392,156.919876 317.001048,156.899893 317.001048,157.287119 C317.001048,157.674674 317.001048,159.836198 317.001048,159.836198 L315.900302,154.881203 Z M315.900302,154.881203 C315.900302,154.881203 314.432641,155.513149 315.084571,156.634534 C314.819212,156.919876 314.799556,156.899893 314.799556,157.287119 C314.799556,157.674674 314.799556,159.836198 314.799556,159.836198 L315.900302,154.881203 Z M319.346686,154.881203 C319.346686,154.881203 320.814347,155.513149 320.162417,156.634534 C320.427776,156.919876 320.447432,156.899893 320.447432,157.287119 C320.447432,157.674674 320.447432,159.836198 320.447432,159.836198 L319.346686,154.881203 Z M319.346686,154.881203 C319.346686,154.881203 317.879024,155.513149 318.530954,156.634534 C318.265596,156.919876 318.24594,156.899893 318.24594,157.287119 C318.24594,157.674674 318.24594,159.836198 318.24594,159.836198 L319.346686,154.881203 Z M322.79307,154.881203 C322.79307,154.881203 324.260731,155.513149 323.608801,156.634534 C323.874159,156.919876 323.893816,156.899893 323.893816,157.287119 C323.893816,157.674674 323.893816,159.836198 323.893816,159.836198 L322.79307,154.881203 Z M322.79307,154.881203 C322.79307,154.881203 321.325408,155.513149 321.977338,156.634534 C321.71198,156.919876 321.692323,156.899893 321.692323,157.287119 C321.692323,157.674674 321.692323,159.836198 321.692323,159.836198 L322.79307,154.881203 Z M326.239453,154.881203 C326.239453,154.881203 327.707115,155.513149 327.055185,156.634534 C327.320543,156.919876 327.340199,156.899893 327.340199,157.287119 C327.340199,157.674674 327.340199,159.836198 327.340199,159.836198 L326.239453,154.881203 Z M326.239453,154.881203 C326.239453,154.881203 324.771792,155.513149 325.423722,156.634534 C325.158363,156.919876 325.138707,156.899893 325.138707,157.287119 C325.138707,157.674674 325.138707,159.836198 325.138707,159.836198 L326.239453,154.881203 Z M329.685837,154.881203 C329.685837,154.881203 331.153498,155.513149 330.498292,156.634534 C330.763651,156.919876 330.786583,156.899893 330.786583,157.287119 C330.786583,157.674674 330.786583,159.836198 330.786583,159.836198 L329.685837,154.881203 Z M329.685837,154.881203 C329.685837,154.881203 328.214899,155.513149 328.870105,156.634534 C328.604747,156.919876 328.581815,156.899893 328.581815,157.287119 C328.581815,157.674674 328.581815,159.836198 328.581815,159.836198 L329.685837,154.881203 Z M303.720022,145.148445 L303.720022,159.836198 L303.720022,145.148445 Z M331.526966,145.148445 L331.526966,159.836198 L331.526966,145.148445 Z M337.286227,134.366375 L331.526966,134.366375 L337.286227,134.366375 Z M303.720022,151.891825 L331.526966,151.891825 L303.720022,151.891825 Z M291.667508,145.148445 L291.667508,143.374147 L287.706787,143.374147 L291.667508,145.148445 Z M291.667508,143.374147 C292.732217,141.777083 292.83705,137.968698 287.706787,135.593576 L291.667508,143.374147 Z M297.059853,145.148445 L294.059009,145.148445 L294.059009,143.374147 L297.059853,143.374147 L297.059853,145.148445 Z M294.059009,143.374147 C293.731406,142.722545 293.636402,141.856362 294.285056,141.142843 L294.059009,143.374147 Z M294.285056,138.132499 L291.117134,138.132499 L294.285056,138.132499 Z M324.241075,141.04489 L317.623494,141.04489 L324.241075,141.04489 Z M290.497965,144.538448 C290.497965,144.272435 290.281747,144.056544 290.016388,144.056544 C289.75103,144.056544 289.534812,144.272435 289.534812,144.538448 L289.534812,145.148445 L290.497965,145.148445 L290.497965,144.538448 Z M296.041008,144.538448 C296.041008,144.272435 295.82479,144.056544 295.559431,144.056544 C295.294073,144.056544 295.077855,144.272435 295.077855,144.538448 L295.077855,145.148445 L296.041008,145.148445 L296.041008,144.538448 Z M305.623396,143.374147 L308.624239,143.374147 L305.623396,143.374147 Z" id="Stroke-57" stroke="#CAC5A1"></path>
                <path d="M308.624239,145.148445 L305.623396,145.148445 L308.624239,145.148445 Z M307.605394,144.538448 C307.605394,144.272435 307.389176,144.056544 307.123818,144.056544 C306.858459,144.056544 306.642241,144.272435 306.642241,144.538448 L306.642241,145.148445 L307.605394,145.148445 L307.605394,144.538448 Z M326.622749,143.374147 L329.626868,143.374147 L326.622749,143.374147 Z M329.626868,145.148445 L326.622749,145.148445 L329.626868,145.148445 Z M328.608023,144.538448 C328.608023,144.272435 328.391805,144.056544 328.126447,144.056544 C327.857812,144.056544 327.641594,144.272435 327.641594,144.538448 L327.641594,145.148445 L328.608023,145.148445 L328.608023,144.538448 Z M306.036176,151.90624 L309.780678,151.90624 L309.780678,149.692626 L306.036176,149.692626 L306.036176,151.90624 Z M309.780678,149.692626 C310.360535,148.534877 310.360535,146.832325 307.910065,145.913071 L309.780678,149.692626 Z M306.036176,149.692626 C305.456318,148.534877 305.456318,146.832325 307.910065,145.913071 L306.036176,149.692626 Z M308.509578,151.144891 C308.509578,150.813356 308.240944,150.543739 307.910065,150.543739 C307.57591,150.543739 307.307275,150.813356 307.307275,151.144891 L307.307275,151.90624 L308.509578,151.90624 L308.509578,151.144891 Z M315.752881,151.90624 L319.497383,151.90624 L319.497383,149.692626 L315.752881,149.692626 L315.752881,151.90624 Z M319.497383,149.692626 C320.077241,148.534877 320.077241,146.832325 317.623494,145.913071 L319.497383,149.692626 Z M315.752881,149.692626 C315.173024,148.534877 315.173024,146.832325 317.623494,145.913071 L315.752881,149.692626 Z M318.226284,151.144891 C318.226284,150.813356 317.957649,150.543739 317.623494,150.543739 C317.292615,150.543739 317.023981,150.813356 317.023981,151.144891 L317.023981,151.90624 L318.226284,151.90624 L318.226284,151.144891 Z M325.46631,151.90624 L329.210813,151.90624 L329.210813,149.692626 L325.46631,149.692626 L325.46631,151.90624 Z M329.210813,149.692626 C329.79067,148.534877 329.79067,146.832325 327.340199,145.913071 L329.210813,149.692626 Z M325.46631,149.692626 C324.886453,148.534877 324.886453,146.832325 327.340199,145.913071 L325.46631,149.692626 Z M327.939713,151.144891 C327.939713,150.813356 327.671078,150.543739 327.340199,150.543739 C327.00932,150.543739 326.73741,150.813356 326.73741,151.144891 L326.73741,151.90624 L327.939713,151.90624 L327.939713,151.144891 Z M326.622749,145.148445 L329.626868,145.148445 L326.622749,145.148445 Z M311.009189,145.148445 L324.241075,145.148445 L311.009189,145.148445 Z M305.623396,145.148445 L308.624239,145.148445 L305.623396,145.148445 Z M311.009189,141.04489 L317.623494,141.04489 L311.009189,141.04489 Z M336.346006,132.80895 L334.406596,132.80895 L336.346006,132.80895 Z M336.064268,119.991482 L334.406596,119.991482 L336.064268,119.991482 Z M335.733388,107.78827 L334.406596,107.78827 L335.733388,107.78827 Z M335.156807,98.6563363 L334.406596,98.6563363 L335.156807,98.6563363 Z M332.467186,132.80895 L334.406596,132.80895 L332.467186,132.80895 Z M332.752201,119.991482 L334.406596,119.991482 L332.752201,119.991482 Z M333.079804,107.78827 L334.406596,107.78827 L333.079804,107.78827 Z M333.656385,101.359061 L333.656385,98.6563363 L334.406596,98.6563363 L333.656385,101.359061 Z M333.656385,98.6563363 C332.722717,98.1649317 332.722717,96.9364204 334.406596,95.912661 C336.093752,96.9364204 336.093752,98.1649317 335.156807,98.6563363 L333.656385,98.6563363 Z M334.406596,137.941179 L335.497514,137.941179 L334.406596,139.638162 L334.406596,137.941179 Z M334.406596,145.064579 L335.497514,145.064579 L334.406596,146.761562 L334.406596,145.064579 Z M334.406596,137.941179 L333.315678,137.941179 L334.406596,139.638162 L334.406596,137.941179 Z M334.406596,145.064579 L333.315678,145.064579 L334.406596,146.761562 L334.406596,145.064579 Z M316.5293,127.644616 C316.624305,127.678687 316.725862,127.696705 316.833971,127.696705 C317.335203,127.696705 317.741431,127.290477 317.741431,126.788917 C317.741431,126.473435 317.580906,126.195628 317.338479,126.032809 L317.335203,126.032482 C317.38762,126.025602 317.43676,126.021999 317.489177,126.021999 C318.095242,126.021999 318.583371,126.512093 318.583371,127.116848 C318.583371,127.721275 318.095242,128.211697 317.489177,128.211697 C317.076397,128.211697 316.716034,127.982375 316.5293,127.644289 L316.5293,127.644616 Z M317.623494,128.211697 L317.623494,129.059534 L317.623494,128.211697 Z M287.667475,125.299306 L287.667475,126.14747 L287.667475,125.299306 Z M335.156807,101.359061 L335.156807,98.6563363 L334.406596,98.6563363 L335.156807,101.359061 Z" id="Stroke-58" stroke="#AE9859"></path>
                <path d="M334.406596,101.359061 L332.100271,101.359061 L333.079804,103.348267 L333.079804,107.78827 L331.526966,107.78827 L332.752201,110.271829 L332.752201,119.991482 L331.035561,119.991482 L332.467186,122.898959 L332.467186,132.80895 L331.526966,134.366375 L331.526966,145.148445 L329.626868,145.148445 L329.626868,143.374147 C330.092065,142.44572 330.092065,141.080926 328.126447,140.343819 C326.160829,141.080926 326.160829,142.44572 326.622749,143.374147 L326.622749,145.148445 L324.241075,145.148445 L324.241075,141.04489 C325.92823,138.515467 325.751325,132.821727 317.623494,129.059534 C309.498939,132.821727 309.322034,138.515467 311.009189,141.04489 L311.009189,145.148445 L308.624239,145.148445 L308.624239,143.374147 C309.089436,142.44572 309.089436,141.080926 307.123818,140.343819 C305.158199,141.080926 305.158199,142.44572 305.623396,143.374147 L305.623396,145.148445 L303.720022,145.148445 L303.720022,143.947452 L299.081164,143.947452 L299.081164,145.148445 L297.059853,145.148445 L297.059853,143.374147 C297.525049,142.44572 297.525049,141.080926 295.559431,140.343819 C294.973022,140.563641 294.560242,140.839155 294.285056,141.142843 L294.285056,141.143826 L294.285056,138.132499 C295.972211,135.602749 295.795305,129.909008 287.667475,126.147143 C279.54292,129.909008 279.366014,135.602749 281.05317,138.132499 L281.05317,141.143826 L281.05317,141.142843 C280.777983,140.839155 280.365204,140.563641 279.778794,140.343819 C277.813176,141.080926 277.813176,142.44572 278.278372,143.374147 L278.278372,145.148445 L276.257062,145.148445 L276.257062,143.947452 L271.614927,143.947452 L271.614927,145.148445 L269.71483,145.148445 L269.71483,143.374147 C270.180026,142.44572 270.180026,141.080926 268.214408,140.343819 C266.24879,141.080926 266.24879,142.44572 266.713986,143.374147 L266.713986,145.148445 L264.329036,145.148445 L264.329036,141.04489 C266.016192,138.515467 265.839286,132.821727 257.714731,129.059534 C249.586901,132.821727 249.409995,138.515467 251.097151,141.04489 L251.097151,145.148445 L248.715477,145.148445 L248.715477,143.374147 C249.177397,142.44572 249.177397,141.080926 247.211779,140.343819 C245.246161,141.080926 245.246161,142.44572 245.711357,143.374147 L245.711357,145.148445 L243.81126,145.148445 L243.81126,134.366375 L242.871039,132.80895 L242.871039,122.898959 L244.302664,119.991482 L242.586024,119.991482 L242.586024,110.271829 L243.81126,107.78827 L242.258421,107.78827 L242.258421,103.348267 L243.237954,101.359061 L238.625304,101.359061 L239.604837,103.348267 L239.604837,107.78827 L238.051999,107.78827 L239.273958,110.271829 L239.273958,119.991482 L237.560594,119.991482 L238.992219,122.898959 L238.992219,132.80895 L238.051999,134.366375 L238.051999,159.836198 L337.286227,159.836198 L337.286227,134.366375 L336.346006,132.80895 L336.346006,122.898959 L337.777631,119.991482 L336.064268,119.991482 L336.064268,110.271829 L337.286227,107.78827 L335.733388,107.78827 L335.733388,103.348267 L336.712921,101.359061 L334.406596,101.359061 Z" id="Stroke-59" stroke="#AE9859"></path>
                <path d="M396.385564,150.915569 L379.376416,150.915569 M381.918615,20.4424279 L381.918615,150.915569 M385.895716,15.3318209 L385.895716,150.915569 M389.86954,10.2212139 L389.86954,150.915569 M393.843365,5.11060697 L393.843365,150.915569 M393.843365,4.79610808 L397.820465,3.43983161 M393.843365,7.81005577 L397.820465,6.45345171 M393.843365,10.8240035 L397.820465,9.46772701 M393.843365,13.8376236 L397.820465,12.4816747 M393.843365,16.8518989 L397.820465,15.4956224 M393.843365,19.8658466 L397.820465,18.5095701 M393.843365,22.8797943 L397.820465,21.5231902 M393.843365,25.893742 L397.820465,24.5374655 M393.843365,28.9073621 L397.820465,27.5514132 M393.843365,31.9216374 L397.820465,30.5653609 M393.843365,34.9355851 L397.820465,33.5793086 M393.843365,37.9495328 L397.820465,36.5929287 M393.843365,40.9634805 L397.820465,39.607204 M393.843365,43.9771005 L397.820465,42.6211517 M393.843365,46.9913759 L397.820465,45.6350994 M393.843365,50.0053235 L397.820465,48.6490471 M393.843365,53.0192712 L397.820465,51.6626672 M393.843365,56.0332189 L397.820465,54.6769425 M393.843365,59.046839 L397.820465,57.6908902 M393.843365,62.0611143 L397.820465,60.7048379 M393.843365,65.075062 L397.820465,63.7187856 M393.843365,68.0890097 L397.820465,66.7324057 M393.843365,71.1026298 L397.820465,69.746681 M393.843365,74.1165775 L397.820465,72.7606287 M393.843365,77.1308528 L397.820465,75.7745764 M393.843365,80.1448005 L397.820465,78.7881965 M393.843365,83.1587482 L397.820465,81.8021442 M393.843365,86.1723683 L397.820465,84.8164195 M393.843365,89.186316 L397.820465,87.8303672 M393.843365,92.2005913 L397.820465,90.8443149 M393.843365,95.214539 L397.820465,93.857935 M393.843365,98.2284867 L397.820465,96.8718827 M393.843365,101.242107 L397.820465,99.886158 M393.843365,104.256055 L397.820465,102.900106 M393.843365,107.27033 L397.820465,105.914053 M393.843365,110.284278 L397.820465,108.927673 M393.843365,113.298225 L397.820465,111.941621 M393.843365,116.311845 L397.820465,114.955896 M393.843365,119.325793 L397.820465,117.969844 M393.843365,122.340068 L397.820465,120.983792 M393.843365,125.354016 L397.820465,123.997412 M393.843365,128.367964 L397.820465,127.01136 M393.843365,131.381584 L397.820465,130.025635 M393.843365,134.395531 L397.820465,133.039583 M393.843365,137.409807 L397.820465,136.05353 M393.843365,140.423754 L397.820465,139.06715 M393.843365,143.437702 L397.820465,142.081098 M393.843365,146.451322 L397.820465,145.095373 M393.843365,149.46527 L397.820465,148.109321 M386.275735,13.4068256 L389.86954,12.1802799 M385.895716,16.5505041 L389.86954,15.1942276 M385.895716,19.5641242 L389.86954,18.2081753 M385.895716,22.5783995 L389.86954,21.222123 M385.895716,25.5923472 L389.86954,24.2360707 M385.895716,28.6062949 L389.86954,27.2500184 M385.895716,31.6202426 L389.86954,30.2639661 M385.895716,34.6338627 L389.86954,33.2779138 M385.895716,37.648138 L389.86954,36.2918615 M385.895716,40.6620857 L389.86954,39.3058092" id="Stroke-61" stroke="#AE9859"></path>
                <path d="M385.895716,43.6760334 L389.86954,42.3197569 M385.895716,46.6899811 L389.86954,45.3337046 M385.895716,49.7036012 L389.86954,48.3476523 M385.895716,52.7178765 L389.86954,51.3616 M385.895716,55.7318242 L389.86954,54.3755477 M385.895716,58.7457719 L389.86954,57.3894954 M385.895716,61.7597196 L389.86954,60.4034431 M385.895716,64.7733397 L389.86954,63.4173908 M385.895716,67.787615 L389.86954,66.4313385 M385.895716,70.8012351 L389.86954,69.4452862 M385.895716,73.8155104 L389.86954,72.4592339 M385.895716,76.8294581 L389.86954,75.4731816 M385.895716,79.8434058 L389.86954,78.4868017 M385.895716,82.8573535 L389.86954,81.501077 M385.895716,85.8709736 L389.86954,84.5150247 M385.895716,88.8852489 L389.86954,87.5289724 M385.895716,91.8991966 L389.86954,90.5429201 M385.895716,94.9131443 L389.86954,93.5565402 M385.895716,97.9270919 L389.86954,96.5708155 M385.895716,100.940712 L389.86954,99.5847632 M385.895716,103.954987 L389.86954,102.598711 M385.895716,106.968935 L389.86954,105.612659 M385.895716,109.982883 L389.86954,108.626279 M385.895716,112.99683 L389.86954,111.640554 M385.895716,116.010451 L389.86954,114.654502 M385.895716,119.024726 L389.86954,117.668449 M385.895716,122.038674 L389.86954,120.682397 M385.895716,125.052621 L389.86954,123.696017 M385.895716,128.066569 L389.86954,126.710292 M385.895716,131.080189 L389.86954,129.72424 M385.895716,134.094464 L389.86954,132.738188 M385.895716,137.108412 L389.86954,135.752136 M385.895716,140.12236 L389.86954,138.765756 M385.895716,143.136307 L389.86954,141.780031 M385.895716,146.149928 L389.86954,144.793979 M385.895716,149.164203 L389.86954,147.807926 M377.944791,25.2909524 L381.918615,23.934676 M377.944791,28.3049001 L381.918615,26.9486237 M377.944791,31.3188478 L381.918615,29.9625714 M377.944791,34.3327955 L381.918615,32.9765191 M377.944791,37.3467432 L381.918615,35.9904668 M377.944791,40.3606909 L381.918615,39.0044145 M377.944791,43.3746386 L381.918615,42.0183621 M377.944791,46.3885863 L381.918615,45.0323098 M377.944791,49.402534 L381.918615,48.0462575 M377.944791,52.4164817 L381.918615,51.0602052 M377.944791,55.4304294 L381.918615,54.0741529 M377.944791,58.4443771 L381.918615,57.0881006 M377.944791,61.4583248 L381.918615,60.1020483 M377.944791,64.4722725 L381.918615,63.115996 M377.944791,67.4862202 L381.918615,66.1299437 M377.944791,70.4998403 L381.918615,69.1438914 M377.944791,73.5141156 L381.918615,72.1578391 M377.944791,76.5280633 L381.918615,75.1714592 M377.944791,79.542011 L381.918615,78.1854069 M377.944791,82.5556311 L381.918615,81.1996822 M377.944791,85.5695788 L381.918615,84.2136299 M377.944791,88.5838541 L381.918615,87.2275776 M377.944791,91.5978018 L381.918615,90.2411977 M377.944791,94.6117495 L381.918615,93.2551454 M377.944791,97.6253696 L381.918615,96.2694207 M377.944791,100.639317 L381.918615,99.2833684 M377.944791,103.653593 L381.918615,102.297316 M377.944791,106.66754 L381.918615,105.310936" id="Stroke-62" stroke="#CAC5A1"></path>
                <path d="M377.944791,109.681488 L381.918615,108.324884 L377.944791,109.681488 Z M377.944791,112.695108 L381.918615,111.339159 L377.944791,112.695108 Z M377.944791,115.709056 L381.918615,114.353107 L377.944791,115.709056 Z M377.944791,118.723331 L381.918615,117.367055 L377.944791,118.723331 Z M377.944791,121.737279 L381.918615,120.380675 L377.944791,121.737279 Z M377.944791,124.751226 L381.918615,123.394622 L377.944791,124.751226 Z M377.944791,127.764847 L381.918615,126.408898 L377.944791,127.764847 Z M377.944791,130.778794 L381.918615,129.422845 L377.944791,130.778794 Z M377.944791,133.79307 L381.918615,132.436793 L377.944791,133.79307 Z M377.944791,136.807017 L381.918615,135.450413 L377.944791,136.807017 Z M377.944791,139.820965 L381.918615,138.464361 L377.944791,139.820965 Z M377.944791,142.834585 L381.918615,141.478636 L377.944791,142.834585 Z M377.944791,145.848533 L381.918615,144.492584 L377.944791,145.848533 Z M377.944791,148.862808 L381.918615,147.506532 L377.944791,148.862808 Z M379.379692,150.915569 L396.385564,150.915569 L379.379692,150.915569 Z M379.379692,159.836198 L385.643461,159.836198 L385.643461,154.873996 L379.379692,154.873996 L379.379692,159.836198 Z M388.182385,159.836198 L390.148003,159.836198 L390.148003,152.416973 L388.182385,152.416973 L388.182385,159.836198 Z M390.148003,159.836198 L392.113621,159.836198 L392.113621,152.416973 L390.148003,152.416973 L390.148003,159.836198 Z M392.113621,159.836198 L394.079239,159.836198 L394.079239,152.416973 L392.113621,152.416973 L392.113621,159.836198 Z" id="Stroke-63" stroke="#AE9859"></path>
                <path d="M397.820465,0 C393.843365,0.385588744 393.843365,5.11060697 393.843365,5.11060697 C389.86954,5.49619571 389.86954,10.2212139 389.86954,10.2212139 C385.895716,10.6068027 385.895716,15.3318209 385.895716,15.3318209 C381.918615,15.7174096 381.918615,20.4424279 381.918615,20.4424279 C377.944791,20.8280166 377.944791,25.5530348 377.944791,25.5530348 L377.944791,150.915569 L379.376416,150.915569 C379.379692,150.915569 379.379692,159.836198 379.379692,159.836198 L396.385564,159.836198 L396.385564,150.915569 L397.820465,150.915569 L397.820465,0 Z" id="Stroke-64" stroke="#AE9859"></path>
                <path d="M368.338627,146.149928 L348.97434,146.149928 L368.338627,146.149928 Z M348.972047,146.149928 L368.341903,146.149928 L348.972047,146.149928 Z M348.972047,147.506532 L368.341903,147.506532 L348.972047,147.506532 Z M348.972047,148.862808 L368.341903,148.862808 L348.972047,148.862808 Z M350.408259,146.149928 L350.408259,58.0135791 L350.408259,146.149928 Z M353.707876,146.149928 L353.707876,55.6240428 L353.707876,146.149928 Z M357.006839,146.149928 L357.006839,53.2345064 L357.006839,146.149928 Z M360.305801,146.149928 L360.305801,50.8446425 L360.305801,146.149928 Z M363.604763,146.149928 L363.604763,48.4551061 L363.604763,146.149928 Z M366.907002,146.149928 L366.907002,46.0655697 L366.907002,146.149928 Z M348.972047,159.836198 L353.707876,159.836198 L353.707876,150.558154 L348.972047,150.558154 L348.972047,159.836198 Z M356.351633,159.836198 L358.720202,159.836198 L358.720202,152.615828 L356.351633,152.615828 L356.351633,159.836198 Z M358.720202,159.836198 L361.085496,159.836198 L361.085496,152.615828 L358.720202,152.615828 L358.720202,159.836198 Z M361.085496,159.836198 L363.454066,159.836198 L363.454066,152.615828 L361.085496,152.615828 L361.085496,159.836198 Z M363.454066,159.836198 L365.822636,159.836198 L365.822636,152.615828 L363.454066,152.615828 L363.454066,159.836198 Z" id="Stroke-66" stroke="#AE9859"></path>
                <path d="M366.907002,46.0655697 C366.274728,48.4872112 363.604763,48.4551061 363.604763,48.4551061 C362.975766,50.8767476 360.305801,50.8446425 360.305801,50.8446425 C359.673527,53.2662839 357.006839,53.2345064 357.006839,53.2345064 C356.374565,55.6558203 353.707876,55.6240428 353.707876,55.6240428 C353.075603,58.0453566 350.408259,58.0135791 350.408259,58.0135791 C349.776313,60.4352206 347.108969,60.4034431 347.108969,60.4034431 L347.108969,146.149928 L348.97434,146.149928 C348.972047,146.149928 348.972047,159.836198 348.972047,159.836198 L368.341903,159.836198 L368.341903,146.149928 L370.205964,146.149928 L370.205964,43.6760334 C369.57369,46.0973472 366.907002,46.0655697 366.907002,46.0655697 Z" id="Stroke-67" stroke="#AE9859"></path>
                <path d="M367.837394,144.390699 L369.272295,144.390699 M361.23947,144.390699 L362.674371,144.390699 M354.641545,144.390699 L356.07317,144.390699 M348.041655,144.390699 L349.475245,144.390699 M367.837394,142.425081 L369.272295,142.425081 M361.23947,142.425081 L362.674371,142.425081 M354.641545,142.425081 L356.07317,142.425081 M348.041655,142.425081 L349.475245,142.425081 M367.837394,140.459463 L369.272295,140.459463 M361.23947,140.459463 L362.674371,140.459463 M354.641545,140.459463 L356.07317,140.459463 M348.041655,140.459463 L349.475245,140.459463 M367.837394,138.493845 L369.272295,138.493845 M361.23947,138.493845 L362.674371,138.493845 M354.641545,138.493845 L356.07317,138.493845 M348.041655,138.493845 L349.475245,138.493845 M367.837394,136.528227 L369.272295,136.528227 M361.23947,136.528227 L362.674371,136.528227 M354.641545,136.528227 L356.07317,136.528227 M348.041655,136.528227 L349.475245,136.528227 M367.837394,134.562609 L369.272295,134.562609 M361.23947,134.562609 L362.674371,134.562609 M354.641545,134.562609 L356.07317,134.562609 M348.041655,134.562609 L349.475245,134.562609 M367.837394,132.596991 L369.272295,132.596991 M361.23947,132.596991 L362.674371,132.596991 M354.641545,132.596991 L356.07317,132.596991 M348.041655,132.596991 L349.475245,132.596991 M367.837394,130.631373 L369.272295,130.631373 M361.23947,130.631373 L362.674371,130.631373 M354.641545,130.631373 L356.07317,130.631373 M348.041655,130.631373 L349.475245,130.631373 M367.837394,128.665755 L369.272295,128.665755 M361.23947,128.665755 L362.674371,128.665755 M354.641545,128.665755 L356.07317,128.665755 M348.041655,128.665755 L349.475245,128.665755 M367.837394,126.700137 L369.272295,126.700137 M361.23947,126.700137 L362.674371,126.700137 M354.641545,126.700137 L356.07317,126.700137 M348.041655,126.700137 L349.475245,126.700137 M367.837394,124.734519 L369.272295,124.734519 M361.23947,124.734519 L362.674371,124.734519 M354.641545,124.734519 L356.07317,124.734519 M348.041655,124.734519 L349.475245,124.734519 M367.837394,122.768901 L369.272295,122.768901 M361.23947,122.768901 L362.674371,122.768901 M354.641545,122.768901 L356.07317,122.768901 M348.041655,122.768901 L349.475245,122.768901 M367.837394,120.803283 L369.272295,120.803283 M361.23947,120.803283 L362.674371,120.803283 M354.641545,120.803283 L356.07317,120.803283 M348.041655,120.803283 L349.475245,120.803283 M367.837394,118.837665 L369.272295,118.837665 M361.23947,118.837665 L362.674371,118.837665 M354.641545,118.837665 L356.07317,118.837665 M348.041655,118.837665 L349.475245,118.837665 M367.837394,116.872046 L369.272295,116.872046 M361.23947,116.872046 L362.674371,116.872046 M354.641545,116.872046 L356.07317,116.872046 M348.041655,116.872046 L349.475245,116.872046 M367.837394,114.906428 L369.272295,114.906428 M361.23947,114.906428 L362.674371,114.906428 M354.641545,114.906428 L356.07317,114.906428 M348.041655,114.906428 L349.475245,114.906428" id="Stroke-68" stroke="#CAC5A1"></path>
                <path d="M367.837394,112.94081 L369.272295,112.94081 M361.23947,112.94081 L362.674371,112.94081 M354.641545,112.94081 L356.07317,112.94081 M348.041655,112.94081 L349.475245,112.94081 M367.837394,110.975192 L369.272295,110.975192 M361.23947,110.975192 L362.674371,110.975192 M354.641545,110.975192 L356.07317,110.975192 M348.041655,110.975192 L349.475245,110.975192 M367.837394,109.009574 L369.272295,109.009574 M361.23947,109.009574 L362.674371,109.009574 M354.641545,109.009574 L356.07317,109.009574 M348.041655,109.009574 L349.475245,109.009574 M367.837394,107.043956 L369.272295,107.043956 M361.23947,107.043956 L362.674371,107.043956 M354.641545,107.043956 L356.07317,107.043956 M348.041655,107.043956 L349.475245,107.043956 M367.837394,105.078338 L369.272295,105.078338 M361.23947,105.078338 L362.674371,105.078338 M354.641545,105.078338 L356.07317,105.078338 M348.041655,105.078338 L349.475245,105.078338 M367.837394,103.11272 L369.272295,103.11272 M361.23947,103.11272 L362.674371,103.11272 M354.641545,103.11272 L356.07317,103.11272 M348.041655,103.11272 L349.475245,103.11272 M367.837394,101.147102 L369.272295,101.147102 M361.23947,101.147102 L362.674371,101.147102 M354.641545,101.147102 L356.07317,101.147102 M348.041655,101.147102 L349.475245,101.147102 M367.837394,99.1814839 L369.272295,99.1814839 M361.23947,99.1814839 L362.674371,99.1814839 M354.641545,99.1814839 L356.07317,99.1814839 M348.041655,99.1814839 L349.475245,99.1814839 M367.837394,97.2158658 L369.272295,97.2158658 M361.23947,97.2158658 L362.674371,97.2158658 M354.641545,97.2158658 L356.07317,97.2158658 M348.041655,97.2158658 L349.475245,97.2158658 M367.837394,95.2502477 L369.272295,95.2502477 M361.23947,95.2502477 L362.674371,95.2502477 M354.641545,95.2502477 L356.07317,95.2502477 M348.041655,95.2502477 L349.475245,95.2502477 M367.837394,93.2846297 L369.272295,93.2846297 M361.23947,93.2846297 L362.674371,93.2846297 M354.641545,93.2846297 L356.07317,93.2846297 M348.041655,93.2846297 L349.475245,93.2846297 M367.837394,91.3190116 L369.272295,91.3190116 M361.23947,91.3190116 L362.674371,91.3190116 M354.641545,91.3190116 L356.07317,91.3190116 M348.041655,91.3190116 L349.475245,91.3190116 M367.837394,89.3533936 L369.272295,89.3533936 M361.23947,89.3533936 L362.674371,89.3533936 M354.641545,89.3533936 L356.07317,89.3533936 M348.041655,89.3533936 L349.475245,89.3533936 M367.837394,87.3877755 L369.272295,87.3877755 M361.23947,87.3877755 L362.674371,87.3877755 M354.641545,87.3877755 L356.07317,87.3877755 M348.041655,87.3877755 L349.475245,87.3877755 M367.837394,85.4221574 L369.272295,85.4221574 M361.23947,85.4221574 L362.674371,85.4221574 M354.641545,85.4221574 L356.07317,85.4221574 M348.041655,85.4221574 L349.475245,85.4221574 M367.837394,83.4565394 L369.272295,83.4565394 M361.23947,83.4565394 L362.674371,83.4565394 M354.641545,83.4565394 L356.07317,83.4565394 M348.041655,83.4565394 L349.475245,83.4565394" id="Stroke-69" stroke="#CAC5A1"></path>
                <path d="M367.837394,81.4909213 L369.272295,81.4909213 M361.23947,81.4909213 L362.674371,81.4909213 M354.641545,81.4909213 L356.07317,81.4909213 M348.041655,81.4909213 L349.475245,81.4909213 M367.837394,79.5253032 L369.272295,79.5253032 M361.23947,79.5253032 L362.674371,79.5253032 M354.641545,79.5253032 L356.07317,79.5253032 M348.041655,79.5253032 L349.475245,79.5253032 M367.837394,77.5596852 L369.272295,77.5596852 M361.23947,77.5596852 L362.674371,77.5596852 M354.641545,77.5596852 L356.07317,77.5596852 M348.041655,77.5596852 L349.475245,77.5596852 M367.837394,75.5940671 L369.272295,75.5940671 M361.23947,75.5940671 L362.674371,75.5940671 M354.641545,75.5940671 L356.07317,75.5940671 M348.041655,75.5940671 L349.475245,75.5940671 M367.837394,73.628449 L369.272295,73.628449 M361.23947,73.628449 L362.674371,73.628449 M354.641545,73.628449 L356.07317,73.628449 M348.041655,73.628449 L349.475245,73.628449 M367.837394,71.662831 L369.272295,71.662831 M361.23947,71.662831 L362.674371,71.662831 M354.641545,71.662831 L356.07317,71.662831 M348.041655,71.662831 L349.475245,71.662831 M367.837394,69.6972129 L369.272295,69.6972129 M361.23947,69.6972129 L362.674371,69.6972129 M354.641545,69.6972129 L356.07317,69.6972129 M348.041655,69.6972129 L349.475245,69.6972129 M367.837394,67.7319225 L369.272295,67.7319225 M361.23947,67.7319225 L362.674371,67.7319225 M354.641545,67.7319225 L356.07317,67.7319225 M348.041655,67.7319225 L349.475245,67.7319225 M367.837394,65.7663044 L369.272295,65.7663044 M361.23947,65.7663044 L362.674371,65.7663044 M354.641545,65.7663044 L356.07317,65.7663044 M348.041655,65.7663044 L349.475245,65.7663044 M367.837394,63.8006863 L369.272295,63.8006863 M361.23947,63.8006863 L362.674371,63.8006863 M354.641545,63.8006863 L356.07317,63.8006863 M348.041655,63.8006863 L349.475245,63.8006863 M367.837394,61.8350683 L369.272295,61.8350683 M361.23947,61.8350683 L362.674371,61.8350683 M354.641545,61.8350683 L356.07317,61.8350683 M348.041655,61.8350683 L349.475245,61.8350683 M367.837394,59.8694502 L369.272295,59.8694502 M361.23947,59.8694502 L362.674371,59.8694502 M354.641545,59.8694502 L356.07317,59.8694502 M367.837394,57.9038321 L369.272295,57.9038321 M361.23947,57.9038321 L362.674371,57.9038321 M354.641545,57.9038321 L356.07317,57.9038321 M367.837394,55.9382141 L369.272295,55.9382141 M361.23947,55.9382141 L362.674371,55.9382141 M367.837394,53.972596 L369.272295,53.972596 M361.23947,53.972596 L362.674371,53.972596 M367.837394,52.0069779 L369.272295,52.0069779 M361.23947,52.0069779 L362.674371,52.0069779 M367.837394,50.0413599 L369.272295,50.0413599 M367.837394,48.0757418 L369.272295,48.0757418" id="Stroke-70" stroke="#CAC5A1"></path>
                <path d="M180.242729,84.479316 C182.110394,93.9083858 188.429201,129.748483 182.17657,155.14951 L170.838557,158.173286 L170.838557,90.44726 L174.905421,86.656238 M172.285252,89.098846 C171.549783,72.9119813 168.93977,58.3919606 167.848852,52.8842988 M170.838557,158.173286 L170.838557,159.836198 L184.875036,159.836198 L184.875036,130.508194 M180.57066,84.1736624 L182.897296,84.1736624 M180.608662,86.3656541 L183.322525,86.3656541 M181.00932,88.5579734 L183.727115,88.5579734 M181.387702,90.7496376 L184.109428,90.7496376 M181.749048,92.9416293 L184.471429,92.9416293 M182.090738,95.1339487 L184.81574,95.1339487 M182.41572,97.3256128 L185.14367,97.3256128 M182.723339,99.5179322 L185.450634,99.5179322 M183.010975,101.709924 L185.741546,101.709924 M183.28092,103.901588 L186.010835,103.901588 M183.526949,106.093907 L186.263417,106.093907 M183.759875,108.285899 L186.497654,108.285899 M183.971179,110.477891 L186.70863,110.477891 M184.162499,112.669883 L186.900933,112.669883 M184.332853,114.862202 L187.074235,114.862202 M184.481585,117.053866 L187.225587,117.053866 M184.608039,119.245858 L187.354335,119.245858 M184.710252,121.438177 L187.460806,121.438177 M184.792807,123.629841 L187.543035,123.629841 M184.843914,125.822161 L187.600693,125.822161 M184.876674,128.014152 L187.626246,128.014152 M184.877984,130.205817 L187.635091,130.205817 M184.876019,132.398136 L187.603641,132.398136 M184.877984,134.590128 L187.545,134.590128 M184.876674,136.782119 L187.455565,136.782119 M184.877984,138.974111 L187.328127,138.974111 M184.876346,141.166103 L187.164981,141.166103 M184.877984,143.358095 L186.958919,143.358095 M184.876019,145.550086 L186.70863,145.550086 M184.877329,147.742406 L186.411822,147.742406 M184.877984,149.93407 L186.064562,149.93407 M184.876346,152.126389 L185.655059,152.126389 M148.381698,79.2016315 C146.38332,89.2914766 139.622249,127.64134 146.312558,154.821252 L158.44468,158.056659 M143.425065,155.064005 L143.425065,128.454451 M158.44468,158.056659 L158.44468,159.836198 L143.425065,159.836198 M148.030836,78.8743561 L145.54138,78.8743561 M147.99054,81.2199936 L145.086012,81.2199936 M147.561381,83.5653036 L144.653249,83.5653036 M147.156791,85.9109411 L144.2444,85.9109411 M146.769892,88.2565787 L143.856846,88.2565787 M146.404287,90.6022162 L143.488292,90.6022162 M146.056372,92.9475262 L143.137429,92.9475262 M145.727459,95.2931637 L142.809171,95.2931637 M145.419512,97.6384737 L142.497621,97.6384737 M145.130894,99.9841113 L142.209658,99.9841113 M144.867501,102.330076 L141.939058,102.330076 M144.618523,104.675386 L141.688769,104.675386 M144.392149,107.021024 L141.46305,107.021024 M144.187397,109.366334 L141.257316,109.366334 M144.00525,111.711971 L141.071892,111.711971 M143.846035,114.057281 L140.909729,114.057281 M143.710735,116.403247 L140.771808,116.403247 M143.601315,118.748556 L140.65813,118.748556 M143.512863,121.094194 L140.570005,121.094194 M143.458153,123.439504 L140.508415,123.439504 M143.423099,125.785142 L140.480897,125.785142 M143.422116,128.130779 L140.471724,128.130779 M143.423754,130.476417 L140.505139,130.476417" id="Stroke-72" stroke="#AE9859"></path>
                <path d="M143.422116,132.822054 L140.568039,132.822054 M143.423099,135.167364 L140.663699,135.167364 M143.422116,137.513002 L140.799982,137.513002 M143.423427,139.858312 L140.974922,139.858312 M143.422116,142.203949 L141.195071,142.203949 M143.424082,144.549587 L141.46305,144.549587 M143.422772,146.895224 L141.780498,146.895224 M143.422116,149.240534 L142.152327,149.240534 M143.423754,151.586172 L142.590332,151.586172 M127.487834,153.970467 L127.487834,121.264875 M140.477621,159.836198 L127.487834,159.836198 M158.44468,152.730817 L170.838557,152.730817 M158.44468,155.905618 L170.838557,155.905618 M127.487834,156.188994 L140.472707,156.188994 L131.037085,153.672675 C122.813921,120.266014 131.123899,73.1304925 133.580267,60.7290805 M129.076708,156.188994 L129.076708,159.588858 M130.695722,156.229945 L130.695722,159.630136 M132.314409,156.271223 L132.314409,159.671087 M133.933095,156.312501 L133.933095,159.712365 M135.552109,156.353778 L135.552109,159.753643 M137.170796,156.395056 L137.170796,159.794921 M138.78981,156.436334 L138.78981,159.836198 M159.785232,155.905618 L159.785232,159.56953 M161.403918,155.949844 L161.403918,159.613756 M163.022605,155.994398 L163.022605,159.65831 M164.641619,156.038952 L164.641619,159.702864 M166.260305,156.083506 L166.260305,159.74709 M167.879319,156.127405 L167.879319,159.791644 M169.498006,156.171959 L169.498006,159.836198 M158.44468,159.836198 L170.838557,159.836198 M158.44468,158.056659 L158.44468,85.5872693 M187.546311,134.5898 C187.301591,141.789859 186.524517,148.920139 184.935642,155.376211" id="Stroke-73" stroke="#AE9859"></path>
                <path d="M145.948591,76.9333082 C145.948591,76.9333082 140.28499,102.419512 140.477621,128.454123 L145.948591,76.9333082 Z M140.477621,128.454451 L140.477621,159.836198 L143.425065,159.836198 L140.477621,128.454451 Z M182.516622,82.3597245 L180.242402,84.479316 L180.242729,84.479316 C179.942973,82.9657901 179.757549,82.1326956 179.757549,82.1326956 L174.905421,86.656238 C173.768311,67.1687729 170.122745,50.7643797 170.122745,50.7643797 C170.122745,50.7643797 167.848525,52.8842988 167.848852,52.8842988 C167.549095,51.3704453 167.364,50.5373508 167.364,50.5373508 L158.44468,58.8522429 L158.44468,85.5872693 L148.900622,76.6905544 C148.900622,76.6905544 148.702749,77.5819622 148.381698,79.2016315 L145.948591,76.9333082 L145.948591,68.5777934 L134.218437,57.6427325 C134.218437,57.6427325 133.974701,58.7385646 133.580267,60.7290805 C133.580594,60.7290805 130.589907,57.9411789 130.589907,57.9411789 C130.589907,57.9411789 117.94443,115.200943 127.487834,153.970467 L127.487834,159.836198 L187.629194,159.836198 L187.629194,130.508194 L187.629522,130.508194 C187.809376,106.177774 182.516622,82.3597245 182.516622,82.3597245 Z" id="Stroke-74" stroke="#AE9859"></path>
                <path d="M143.425065,159.836198 L143.425065,155.064005 M140.504484,130.476417 C140.668613,138.970835 141.487293,147.455426 143.360527,155.064005 M168.193163,54.6651488 L158.44468,63.7525287 M168.950581,58.8594501 L158.44468,68.6531421 M169.634944,63.1215653 L158.44468,73.553428 M170.262304,67.4374073 L158.44468,78.4540414 M170.826108,71.812218 L158.44468,83.3543272 M171.321116,76.2512387 L158.44468,88.2549407 M171.742086,80.7593838 L158.44468,93.1552265 M172.0805,85.3441879 L158.44468,98.0558399 M170.83823,91.4025504 L158.44468,102.956126 M170.83823,96.3031638 L158.44468,107.856739 M170.838557,101.20345 L158.44468,112.757025 M170.849041,106.093907 L158.44468,117.657638 M170.838557,111.004349 L158.44468,122.557924 M170.83823,115.904962 L158.44468,127.458538 M170.83823,120.805248 L158.44468,132.358824 M170.83823,125.705862 L158.44468,137.259437 M170.838557,130.606147 L158.44468,142.159723 M170.838557,135.506433 L158.44468,147.060336 M170.838557,140.406719 L158.44468,151.960622 M170.838557,145.307333 L162.875183,152.730817 M170.838557,150.207946 L168.132229,152.730817 M133.365359,61.8232746 L145.948591,73.553428 M132.591233,66.001851 L145.542363,78.0753323 M131.863955,70.2249814 L144.87307,82.351862 M131.184834,74.4920106 L144.134325,86.5635263 M130.55387,78.804249 L143.42441,90.8020541 M129.970409,83.1607138 L142.82981,95.1483632 M129.47278,87.5974414 L142.240452,99.4992588 M128.934529,91.9958394 L141.765756,103.956953 M128.534853,96.5239683 L141.338234,108.459529 M128.172196,101.086495 L140.977215,113.023039 M127.911752,105.744027 L140.772463,117.73266 M127.660153,110.409749 L140.533641,122.410503 M127.527474,115.186857 L140.477948,127.259028 M127.488816,120.050778 L140.504484,132.184211 M127.562855,125.020189 L140.480569,137.06222 M127.770555,130.114415 L140.472379,141.955299 M128.13747,135.356719 L140.492035,146.873603 M128.709465,140.790342 L140.471069,151.754887 M129.545181,146.470323 L140.471069,156.655501" id="Stroke-75" stroke="#CAC5A1"></path>
                <path d="M62.3004038,113.522306 C62.2319347,112.4078 63.112204,112.251861 63.6651979,112.457596 C64.7679096,112.868082 64.8118085,114.667933 64.8118085,114.667933 L64.8118085,129.300649 L62.3004038,113.522306 Z M64.8118085,100.41622 L63.9380912,100.41622 L60.8805723,102.791014 L62.8461904,110.81827 L64.8118085,110.81827 L64.8118085,100.41622 Z M64.8118085,100.41622 L65.6855257,100.41622 L68.7430446,102.791014 L66.7774265,110.81827 L64.8118085,110.81827 L64.8118085,100.41622 Z M67.3232131,113.522306 C67.3916822,112.4078 66.5110853,112.251861 65.958419,112.457596 C64.8553797,112.868082 64.8118085,114.667933 64.8118085,114.667933 L64.8118085,129.300649 L67.3232131,113.522306 Z M65.7536671,98.1636213 C65.7536671,98.6838549 65.332042,99.10548 64.8118085,99.10548 C64.2915749,99.10548 63.8699498,98.6838549 63.8699498,98.1636213 C63.8699498,97.6433877 64.2915749,97.2217627 64.8118085,97.2217627 C65.332042,97.2217627 65.7536671,97.6433877 65.7536671,98.1636213 Z M64.8118085,97.2217627 L64.8118085,95.6250256 L64.8118085,97.2217627 Z M66.3679228,130.856764 C66.3679228,131.716394 65.6711111,132.412878 64.8118085,132.412878 C63.9521782,132.412878 63.2556941,131.716394 63.2556941,130.856764 C63.2556941,129.997461 63.9521782,129.300649 64.8118085,129.300649 C65.6711111,129.300649 66.3679228,129.997461 66.3679228,130.856764 Z M64.0180264,132.193712 L62.2964725,159.836198 L64.8118085,159.836198 L64.0180264,132.193712 Z M65.6052629,132.193712 L67.3268168,159.836198 L64.8118085,159.836198 L65.6052629,132.193712 Z" id="Stroke-131" stroke="#AE9859"></path>
                <path d="M60.8805723,102.791014 L68.7430446,102.791014 M63.865691,110.81827 L63.2514353,102.791014 L64.8118085,100.41622 M65.7579259,110.81827 L66.3721816,102.791014 L64.8118085,100.41622 M66.4914291,146.41889 L63.1321878,146.41889 M63.0895994,147.102269 L66.5408971,147.102269 M64.8118085,145.053113 L64.8118085,139.101549 M62.3891842,158.348881 L67.2341051,158.348881 M64.1867419,148.929639 L63.8044292,156.874012 M65.4437547,148.929639 L65.8260674,156.874012" id="Stroke-132" stroke="#AE9859"></path>
            </g>
        </g>
    </g>
</svg>