<?xml version="1.0" encoding="UTF-8"?>
<svg width="32px" height="32px" viewBox="0 0 32 32" version="1.1" xmlns="http://www.w3.org/2000/svg" xmlns:xlink="http://www.w3.org/1999/xlink">
    <!-- Generator: Sketch 64 (93537) - https://sketch.com -->
    <title>search-icon</title>
    <desc>Created with Sketch.</desc>
    <g id="I.--Modules" stroke="none" stroke-width="1" fill="none" fill-rule="evenodd">
        <g id="page-/-hero-forms" transform="translate(-265.000000, -31.000000)" fill="#AE9859" fill-rule="nonzero">
            <path d="M278.548812,31 C282.167875,31 285.570187,32.4093125 288.12925,34.968375 C290.68825,37.527375 292.097625,40.92975 292.097625,44.54875 C292.097625,47.7334374 291.006265,50.7503313 289.000543,53.1723968 L296.621437,60.7933125 C297.126187,61.298125 297.126187,62.1165625 296.621437,62.621375 C296.369062,62.8738125 296.038187,63 295.707375,63 C295.376562,63 295.045687,62.8738125 294.793312,62.621375 L294.793312,62.621375 L287.17244,55.0004803 C284.750332,57.0062025 281.733445,58.0975625 278.548812,58.0975625 C274.929812,58.0975625 271.527375,56.6881875 268.968375,54.1291875 C266.409312,51.5701875 265,48.1678125 265,44.54875 C265,40.92975 266.409312,37.527375 268.968375,34.968375 C271.527375,32.4093125 274.92975,31 278.548812,31 Z M278.548812,33.58525 C272.5035,33.58525 267.58525,38.5034375 267.58525,44.54875 C267.58525,50.5940625 272.503437,55.51225 278.54875,55.51225 C281.557444,55.51225 284.286954,54.2940358 286.269934,52.3249536 L286.29575,52.29575 C286.305045,52.286455 286.314446,52.2773312 286.32395,52.2683786 C288.294036,50.2869543 289.51225,47.5574442 289.51225,44.54875 C289.51225,38.5034375 284.594125,33.58525 278.548812,33.58525 Z" id="search-icon"></path>
        </g>
    </g>
</svg>